<svg width="15" height="36" viewBox="0 0 15 36" fill="none" xmlns="http://www.w3.org/2000/svg">
<path d="M0.518066 1.16113C1.00868 1.33953 1.52334 1.40049 2.17573 1.37682C2.68624 1.35831 2.96863 1.27805 3.46591 1.16113C4.15739 0.998549 4.71921 0.900787 5.19148 0.585938" stroke="#C2000D" stroke-linecap="round" stroke-linejoin="round"/>
<path d="M6.98902 3.89355C5.6307 4.66533 3.84996 4.74927 2.93073 6.15437C2.28729 7.13791 2.23081 8.31422 2.2437 9.46171C2.26448 11.3109 3.26106 12.642 4.44061 13.9674C5.69749 15.3796 6.7371 17.0197 7.26463 18.8485C7.75336 20.5427 7.3977 22.4249 7.4244 24.161C7.45666 26.2575 7.97556 28.4544 9.00618 30.2924C10.1591 32.3484 12.261 33.673 14.2508 34.81" stroke="#C2000D" stroke-linecap="round" stroke-linejoin="round"/>
</svg>
