<svg width="206" height="131" viewBox="0 0 206 131" fill="none" xmlns="http://www.w3.org/2000/svg">
<path d="M23.0078 19.1988C29.5684 23.3965 36.4608 28.5554 44.2806 30.0118C49.1169 30.9126 54.3014 30.7231 59.2023 30.974C63.8063 31.2098 68.3861 31.4427 72.8298 32.8036C78.9908 34.6904 84.1469 39.7442 88.1214 44.6136C93.7392 51.4963 98.3709 58.2995 105.47 63.8243C113.141 69.7933 121.317 73.5755 130.664 76.2053C143.684 79.8685 156.749 83.0205 169.026 88.8684C182.355 95.2174 192.566 104.814 202.575 115.388" stroke="#C2000D" stroke-linecap="round" stroke-linejoin="round"/>
<path d="M2.51185 14.6959C1.79446 18.8668 3.98181 20.9173 7.66921 23.0068C9.0802 23.8064 10.8728 24.0661 12.324 25.013" stroke="#C2000D" stroke-linecap="round" stroke-linejoin="round"/>
<path d="M1.10889 18.8672C2.74849 21.5251 4.36393 22.9874 6.75574 24.9226C7.48612 25.5135 10.2767 26.2328 11.2096 25.7966" stroke="#C2000D" stroke-linecap="round" stroke-linejoin="round"/>
</svg>
