<svg width="54" height="22" viewBox="0 0 54 22" fill="none" xmlns="http://www.w3.org/2000/svg">
<path d="M1 1.64396C2.40412 2.15457 3.51122 1.96594 4.81944 1.96594C5.08375 1.96594 5.90139 1.45722 6 1" stroke="#C2000D" stroke-linecap="round" stroke-linejoin="round"/>
<path d="M6 6C7.93128 6.84785 10.1688 7.50762 11.4725 9.33769C12.9765 11.449 13.7648 13.8721 15.8983 15.496C17.1618 16.4576 18.8089 17.0224 20.3583 17.1883C21.4894 17.3095 22.6339 17.2948 23.7601 17.4704C24.9305 17.6529 26.0481 18.0486 27.1506 18.4811C29.8009 19.5207 32.3091 20.4534 35.1603 20.7611C37.37 20.9995 39.6464 21.0962 41.8615 20.8786C45.684 20.5031 49.3019 19.2458 53 18.2695" stroke="#C2000D" stroke-linecap="round" stroke-linejoin="round"/>
</svg>
