<svg width="83" height="44" viewBox="0 0 83 44" fill="none" xmlns="http://www.w3.org/2000/svg">
<path d="M1.9209 9.08317C4.75655 8.43782 7.8912 7.82285 10.7663 8.61957C13.2137 9.29775 15.5752 10.8412 17.5905 12.3469C22.8438 16.2718 25.0047 22.7949 29.3288 27.5714C33.9613 32.6888 41.5739 33.3856 47.8542 35.1559C52.3962 36.4362 56.3232 39.0011 60.6865 40.7191C67.4245 43.372 74.4254 43.2778 81.5299 43.1298" stroke="#C2000D" stroke-linecap="round" stroke-linejoin="round"/>
<path d="M3.60865 1.43555C3.5173 2.00652 3.43355 2.41831 3.15893 2.98566C2.99558 3.32312 2.89296 3.51277 2.65658 3.80377C2.08104 4.51229 1.15504 5.05247 0.680664 5.05247" stroke="#C2000D" stroke-linecap="round" stroke-linejoin="round"/>
</svg>
