<svg width="273" height="89" viewBox="0 0 273 89" fill="none" xmlns="http://www.w3.org/2000/svg">
<path d="M252.463 16.5665C259.74 13.4847 267.213 8.42735 271.765 2.22852" stroke="#C2000D" stroke-linecap="round" stroke-linejoin="round"/>
<path d="M1.15845 87.9221C3.2027 79.8911 9.78002 75.7714 16.6259 71.8937C26.8043 66.1283 37.1153 62.0945 48.763 60.3131C66.9202 57.5361 83.8242 64.5529 101.416 67.4057C132.385 72.4277 159.565 55.6597 180.677 34.5474C189.569 25.656 199.123 17.7455 211.291 13.7905C219.123 11.2453 227.589 9.71747 235.575 7.49938C238.676 6.63782 243.872 5.28602 246.554 3.53234C248.114 2.51217 251.417 2.14196 252.164 0.647217" stroke="#C2000D" stroke-linecap="round" stroke-linejoin="round"/>
</svg>
