<svg width="116" height="48" viewBox="0 0 116 48" fill="none" xmlns="http://www.w3.org/2000/svg">
<path d="M0.591797 2.14601C3.99549 2.67992 6.67916 2.48268 9.85039 2.48268C10.4911 2.48268 12.4731 1.95075 12.7121 1.47266" stroke="#C2000D" stroke-linecap="round" stroke-linejoin="round"/>
<path d="M13.4092 15.5752C17.577 17.3465 22.4058 18.7249 25.2193 22.5483C28.465 26.9592 30.1662 32.0215 34.7705 35.4142C37.4972 37.4233 41.0516 38.6032 44.3954 38.9499C46.8365 39.203 49.3064 39.1723 51.7368 39.5392C54.2625 39.9204 56.6744 40.7472 59.0536 41.6507C64.7732 43.8227 70.186 45.7714 76.3391 46.4141C81.108 46.9122 86.0205 47.1142 90.801 46.6596C99.0501 45.8751 106.858 43.2483 114.839 41.2088" stroke="#C2000D" stroke-linecap="round" stroke-linejoin="round"/>
</svg>
