<svg width="125" height="92" viewBox="0 0 125 92" fill="none" xmlns="http://www.w3.org/2000/svg">
<path d="M1.17365 8.00212C4.54025 7.58777 13.3834 6.29736 13.3834 1.07227" stroke="#C2000D" stroke-linecap="round" stroke-linejoin="round"/>
<path d="M1.50366 12.2916C3.75404 11.5856 5.95335 11.0226 8.10352 10.055C8.92684 9.68454 10.6127 8.99148 11.0735 8.18507C11.5229 7.39862 12.0974 6.68662 12.5584 5.85678C13.0082 5.04714 12.9876 4.17347 13.3834 3.38184" stroke="#C2000D" stroke-linecap="round" stroke-linejoin="round"/>
<path d="M13.3834 8.66211C19.2439 12.5691 20.1983 18.6409 21.4683 25.0884C22.4991 30.3219 23.4548 37.9176 28.6731 40.6898C30.9 41.8728 33.0963 42.7319 35.053 44.3564C38.9497 47.5914 41.569 51.6084 44.5861 55.6311C50.2978 63.2467 57.0022 70.0866 64.844 75.5224C82.3425 87.652 103.576 88.0589 123.931 91.4904" stroke="#C2000D" stroke-linecap="round" stroke-linejoin="round"/>
</svg>
