<svg width="174" height="73" viewBox="0 0 174 73" fill="none" xmlns="http://www.w3.org/2000/svg">
<path d="M173 71C161 71.5 163.5 72 154.5 72C145.5 72 137.359 72 126.84 72C107.729 72 88.6177 72 69.5065 72C60.5758 72 51.6319 70.4675 42.6725 70.4675C39.7128 70.4675 36.5453 70.1003 33.5519 69.9055C30.3274 69.6956 26.9962 68.4012 23.8447 68.3376C21.0706 68.2817 19.074 68.0856 16.8063 66.326C14.1873 64.2939 11.1817 63.7241 8.47751 61.4923C4.61975 58.3085 4.13716 55.8295 2.92825 52.0221C2.67082 49.1666 0.476401 41.4496 1.1165 37.2527C1.59007 34.1477 3.49928 31.45 4.13716 28.4668C4.38307 27.3168 4.90646 25.5762 5.51891 24.656M173 1C165.925 1.15393 167.129 1 160 1C152.446 1 145.06 2 137.5 2C134.039 2 130.935 3.26532 127.485 3.31052C124.537 3.34914 121.446 2.99075 118.541 3.57676C107.862 5.7311 96.4956 2.31498 85.6948 2.93754C79.4549 3.29721 72.5275 2.71465 66.3685 3.97291C63.5026 4.55839 60.7361 4.20981 57.8638 4.62372C47.6329 6.09798 36.8479 5.41826 26.8361 8.23272C23.9799 9.03562 20.6151 9.56779 18.0866 11.3126M5.51891 24.656C3.78972 29.0383 2.67082 34.6619 2.67082 39.5857C2.67082 44.3162 3.09278 47.498 4.81167 51.8327C7.12082 57.6558 11.2191 60.5165 16.0438 64.0854C20.4469 67.3424 25.6998 66.7437 30.7658 67.6944C38.4167 69.1302 47.885 68.587 55.5763 67.9902C63.4913 67.3761 71.4653 68.5761 79.4189 68.5761C117.162 68.5761 135.188 70.0037 173 69V3C162.817 3 151.145 4.67889 140.917 4.67889C129.547 4.67889 118.324 3.29069 106.986 3.71426C97.8296 4.05633 88.5451 4.17138 79.3896 4.27632C73.5824 4.34289 67.8131 4.80879 61.9988 4.80879C57.8099 4.80879 53.4195 4.51486 49.2417 4.92712C45.0033 5.34535 40.8492 6.55318 36.6312 7.05703C30.3137 7.81166 23.7073 8.78374 18.0866 11.3126M5.51891 24.656C6.55389 23.1011 7.84319 21.7144 8.47751 19.9548C9.54166 17.0029 14.9489 13.7161 17.3928 11.8197C17.6159 11.6467 17.8475 11.4776 18.0866 11.3126M5.51891 24.656C5.66041 24.2974 5.80601 24.6953 5.95541 24.3253C8.44712 18.1561 12.837 13.6746 18.0866 11.3126" stroke="#C2000D" stroke-linecap="round" stroke-linejoin="round"/>
</svg>
