<svg width="85" height="110" viewBox="0 0 85 110" fill="none" xmlns="http://www.w3.org/2000/svg">
<path d="M54.0564 11.9725C56.9568 11.9725 60.4463 11.8439 63.2444 10.9235C66.3274 9.90934 69.6709 9.42569 72.6857 8.19237C74.2015 7.57226 75.7426 6.90056 77.2254 6.22092C78.631 5.57669 80.7458 4.88617 81.8737 3.83348C82.8378 2.93367 83.8948 2.54495 84.3335 1.229" stroke="#C2000D" stroke-linecap="round" stroke-linejoin="round"/>
<path d="M73.59 18.1582C66.7174 20.0825 62.285 26.844 58.8855 32.6275C54.8914 39.4228 51.9603 46.7509 50.0231 54.3858C48.249 61.3779 47.6636 68.5684 46.3153 75.6376C43.888 88.3646 36.5229 100.73 24.3943 106.367C16.8983 109.851 8.49184 108.283 0.664551 107.362" stroke="#C2000D" stroke-linecap="round" stroke-linejoin="round"/>
</svg>
