<svg width="174" height="73" viewBox="0 0 174 73" fill="none" xmlns="http://www.w3.org/2000/svg">
<path d="M90 5.52058C50.0356 5.52058 41.0369 2.02495 0.999995 3.02125V69.0009C11.7824 69.0009 14.7956 69.099 25.6254 69.099C37.6649 69.099 49.7722 69.3971 61.777 68.9767C71.4722 68.6371 81.3031 69.5177 90.9974 69.4135C97.1463 69.3474 103.255 69.8797 109.412 69.8797C113.847 69.8797 118.496 70.1714 122.919 69.7622C127.407 69.3471 131.806 68.1482 136.272 67.648C143.182 66.8743 150.703 65.5865 157.044 62.6225C162.575 60.037 167.208 56.1761 169.753 50.2684C170.024 49.6392 170.25 48.9947 170.437 48.3379C171.696 43.9275 171.231 38.9626 171.231 34.3606C171.231 29.6649 170.784 26.5066 168.964 22.204C166.519 16.4238 162.18 12.5916 157.071 9.04907C152.409 5.81608 146.847 6.41041 141.483 5.4667C133.381 4.04149 123.356 4.58068 115.212 5.17306C106.831 5.78267 98.4216 5.52058 90 5.52058Z" fill="white"/>
<path d="M0.999995 1.02187L13.5 1.02197C24.9865 0.787551 29.0904 2.51506 40.2279 2.51506C60.4638 2.51506 80.2262 2.94142 100.462 2.94142C109.918 2.94142 119.389 3.46997 128.875 3.46997C132.009 3.46997 135.363 3.83451 138.533 4.02788C141.947 4.23617 145.474 5.52104 148.811 5.58415C151.748 5.63971 153.862 5.83429 156.264 7.58088C159.037 9.59805 162.219 10.1636 165.082 12.3789C169.167 15.5392 169.678 18.9926 170.958 22.7718C171.231 25.6063 173.554 31.2811 172.877 35.447C172.375 38.5291 172.354 43.1963 171.678 46.1575C170.978 49.2282 166.152 51.0706 165.082 53.8507C163.956 56.7808 159.23 61.0382 156.642 62.9205C153.909 64.9086 149.954 66.3646 146.644 67.2369C136.043 70.0306 124.623 69.3559 113.79 70.8193C110.749 71.2302 107.819 70.8841 104.785 71.4653C98.2633 72.7143 90.9283 71.1413 84.3211 71.4983C72.8848 72.1163 60.8494 69.7159 49.5423 71.8543C46.4666 72.436 42.1935 71.0855 39.0713 71.1239C35.4182 71.1687 31.8058 71.6524 28.1408 71.6524C20.1359 71.6524 9 71.0003 0.999995 71.0003M0.999995 3.02125C41.0369 2.02495 50.0356 5.52058 90 5.52058C98.4216 5.52058 106.831 5.78267 115.212 5.17306C123.356 4.58068 133.381 4.04149 141.483 5.4667C146.847 6.41041 152.409 5.81608 157.071 9.04907C162.18 12.5916 166.519 16.4238 168.964 22.204C170.784 26.5066 171.231 29.6649 171.231 34.3606C171.231 39.648 171.844 45.4144 169.753 50.2684C164.29 62.9487 149.209 66.1994 136.272 67.648C131.806 68.1482 127.407 69.3471 122.919 69.7622C118.496 70.1714 113.847 69.8797 109.412 69.8797C103.255 69.8797 97.1463 69.3474 90.9974 69.4135C81.3031 69.5177 71.4722 68.6371 61.777 68.9767C49.7722 69.3971 37.6649 69.099 25.6254 69.099C14.7956 69.099 11.7824 69.0009 0.999995 69.0009V3.02125Z" stroke="#C2000D" stroke-linecap="round" stroke-linejoin="round"/>
</svg>
