<svg width="217" height="216" viewBox="0 0 217 216" fill="none" xmlns="http://www.w3.org/2000/svg">
<path d="M68.0494 155.468C67.9508 155.389 67.8186 155.353 67.6781 155.356C65.3732 155.477 63.1171 156.027 61.3899 156.723C61.9703 156.081 62.5395 155.452 63.1002 154.748C63.7056 153.988 64.2605 153.233 64.6973 152.454C64.812 152.223 64.7523 151.922 64.5551 151.765C64.3017 151.563 63.9645 151.64 63.7963 151.851L63.7403 151.922C63.3708 152.617 62.8383 153.343 62.2553 154.076C60.6968 156.033 58.7893 157.85 58.1614 158.639C57.9933 158.85 58.0081 159.207 58.2475 159.398C58.4587 159.566 58.7904 159.554 58.9727 159.354C59.9823 158.317 63.7876 156.63 67.748 156.424C67.9138 156.418 68.0458 156.339 68.1355 156.227C68.3261 155.987 68.2747 155.647 68.0494 155.468Z" fill="#C2000D"/>
<path d="M62.1604 151.179C62.2761 151.066 62.3415 150.901 62.3305 150.735C62.3187 150.646 62.2172 149.41 61.3104 148.484C60.3785 147.533 58.7451 146.713 57.4976 147.935C56.6231 148.791 56.6335 150.217 56.5955 151.413C56.5564 152.711 56.4436 153.754 56.0321 154.157C55.5305 154.648 55.3403 154.582 55.1345 154.784C54.9416 154.973 54.8998 155.316 55.1265 155.547C55.265 155.689 55.4933 155.768 55.7106 155.681C55.7746 155.643 56.2604 155.445 56.7877 154.928C57.6623 154.072 57.6518 152.646 57.6898 151.45C57.7289 150.152 57.8417 149.11 58.2532 148.707C58.8062 148.165 59.7076 148.391 60.5388 149.24C61.3699 150.089 61.057 150.798 61.4096 151.158C61.5985 151.351 61.9418 151.393 62.1604 151.179ZM54.9968 153.357C54.7071 153.061 53.9566 153.015 52.175 151.761C51.9601 151.619 51.6544 151.641 51.4744 151.818C51.2429 152.044 51.2774 152.388 51.4663 152.581L51.5293 152.646C53.2225 153.834 54.3768 154.216 54.4529 154.242C54.6305 154.295 54.8601 154.246 55.0016 154.108C55.2331 153.881 55.1857 153.55 54.9968 153.357Z" fill="#C2000D"/>
<path d="M52.6637 138.158C52.9698 137.969 52.8385 137.415 52.649 137.109C52.4879 136.849 52.1657 136.773 51.9056 136.934C51.5995 137.123 51.7308 137.677 51.9203 137.983C52.0814 138.244 52.4035 138.319 52.6637 138.158Z" fill="#C2000D"/>
<path d="M45.5372 126.421C45.1461 126.557 44.8216 126.555 44.1084 126.421C43.2755 126.272 41.7435 125.756 40.7783 125.5C40.0245 125.304 39.3564 125.136 38.6932 125.366C37.7409 125.697 37.2524 126.705 37.5828 127.657C37.8897 128.541 38.8952 129.297 39.9325 128.937C40.5957 128.707 40.8997 128.43 40.7463 127.988C40.64 127.682 40.3142 127.567 40.0591 127.655C39.821 127.738 39.9185 127.799 39.5784 127.917C39.2553 128.029 38.7684 127.779 38.6032 127.303C38.4615 126.895 38.6392 126.528 39.0473 126.387C39.3024 126.298 39.7414 126.355 40.4952 126.551C41.4146 126.785 42.9125 127.313 43.9051 127.483C44.6523 127.604 45.2621 127.659 45.8913 127.441C47.6598 126.827 46.8413 124.139 46.2865 122.541C46.1921 122.269 45.8714 122.113 45.5994 122.208C45.3273 122.302 45.1718 122.623 45.2662 122.895C45.6321 123.949 46.3365 126.143 45.5372 126.421Z" fill="#C2000D"/>
<path d="M44.5171 120.595C44.6756 120.561 44.8189 120.457 44.8982 120.311C44.936 120.23 45.5111 119.131 45.2402 117.864C44.9617 116.561 44.0197 114.995 42.3122 115.36C41.1153 115.616 40.3616 116.827 39.6898 117.817C38.9626 118.893 38.3097 119.713 37.7464 119.834C37.0599 119.98 36.9343 119.823 36.6526 119.883C36.3886 119.94 36.1697 120.207 36.2374 120.524C36.2788 120.718 36.4296 120.907 36.6596 120.949C36.7338 120.952 37.2504 121.044 37.9721 120.89C39.1691 120.634 39.9228 119.424 40.5946 118.433C41.3218 117.358 41.9747 116.537 42.538 116.417C43.2949 116.255 43.9357 116.928 44.184 118.089C44.4323 119.251 43.7885 119.683 43.8938 120.176C43.9502 120.44 44.2179 120.659 44.5171 120.595ZM37.2995 118.604C37.2129 118.199 36.6034 117.759 35.7684 115.747C35.663 115.512 35.3927 115.367 35.1463 115.42C34.8295 115.487 34.6747 115.797 34.7311 116.061L34.7499 116.149C35.5447 118.059 36.3162 118.998 36.3664 119.061C36.4883 119.201 36.7082 119.282 36.9019 119.241C37.2187 119.173 37.3559 118.868 37.2995 118.604Z" fill="#C2000D"/>
<path d="M43.4576 104.514C43.8176 104.518 44.0029 103.98 44.0064 103.62C44.0095 103.314 43.7778 103.077 43.4718 103.074C43.1118 103.071 42.9265 103.609 42.9229 103.969C42.9199 104.275 43.1516 104.511 43.4576 104.514Z" fill="#C2000D"/>
<path d="M44.6118 92.4742C44.6406 92.3516 44.6168 92.2166 44.5538 92.0909C43.4586 90.0592 41.9957 88.2557 40.628 86.9922C41.4569 87.2419 42.2682 87.4876 43.1444 87.6931C44.0908 87.9149 45.0103 88.0935 45.9019 88.1547C46.1595 88.1596 46.4057 87.977 46.4632 87.7316C46.5372 87.4162 46.3236 87.1443 46.0608 87.0826L45.9731 87.0621C45.1867 87.0256 44.3022 86.8552 43.391 86.6416C40.955 86.0705 38.4961 85.1242 37.5147 84.8941C37.2518 84.8325 36.9355 84.9987 36.8657 85.2966C36.8041 85.5595 36.9568 85.8541 37.2156 85.9333C38.5847 86.4022 41.7377 89.1196 43.6184 92.6111C43.6948 92.7584 43.8226 92.8438 43.9628 92.8767C44.2607 92.9466 44.5461 92.7546 44.6118 92.4742Z" fill="#C2000D"/>
<path d="M45.9669 85.3177C46.1188 85.3738 46.2957 85.3624 46.4407 85.2816C46.5163 85.2328 47.5897 84.6122 48.0387 83.3964C48.5001 82.1469 48.5414 80.3201 46.9035 79.7153C45.7553 79.2913 44.4712 79.9109 43.3739 80.3883C42.1841 80.9083 41.1935 81.2525 40.6532 81.053C39.9946 80.8098 39.9725 80.6098 39.7024 80.51C39.4491 80.4165 39.121 80.5256 39.0088 80.8295C38.9402 81.0153 38.9667 81.2553 39.1381 81.4146C39.1994 81.4564 39.5867 81.8105 40.279 82.0661C41.4273 82.4901 42.7114 81.8706 43.8087 81.3931C44.9985 80.8731 45.9891 80.5289 46.5294 80.7284C47.2555 80.9966 47.437 81.9079 47.0255 83.0223C46.614 84.1368 45.8388 84.1575 45.6642 84.6303C45.5707 84.8836 45.6798 85.2117 45.9669 85.3177ZM40.9332 79.7749C41.0767 79.3865 40.7971 78.6885 41.1677 76.5419C41.2043 76.2868 41.0534 76.02 40.817 75.9327C40.513 75.8205 40.2169 75.999 40.1233 76.2522L40.0922 76.3367C39.7422 78.3757 39.8915 79.5821 39.9004 79.6621C39.9287 79.8453 40.0708 80.032 40.2565 80.1006C40.5604 80.2129 40.8397 80.0282 40.9332 79.7749Z" fill="#C2000D"/>
<path d="M53.6735 71.1628C53.9758 71.3584 54.4202 71.0027 54.6157 70.7005C54.7819 70.4435 54.7126 70.12 54.4556 69.9538C54.1534 69.7582 53.7089 70.1139 53.5134 70.4161C53.3472 70.6731 53.4166 70.9966 53.6735 71.1628Z" fill="#C2000D"/>
<path d="M61.2329 59.6982C60.9429 59.4028 60.8055 59.1088 60.6211 58.407C60.3995 57.5904 60.2106 55.9848 60.0287 55.0031C59.883 54.238 59.7492 53.5622 59.2574 53.0613C58.5512 52.342 57.4312 52.3317 56.7119 53.0378C56.044 53.6936 55.7908 54.9259 56.5601 55.7094C57.0519 56.2103 57.4323 56.3666 57.7662 56.0387C57.9974 55.8117 57.9624 55.4677 57.7733 55.2751C57.5967 55.0953 57.5829 55.2097 57.3307 54.9528C57.0911 54.7087 57.1089 54.1616 57.4686 53.8085C57.7768 53.5059 58.1841 53.5096 58.4867 53.8179C58.6759 54.0105 58.812 54.4318 58.9577 55.1969C59.1401 56.1277 59.3038 57.7076 59.5749 58.6774C59.7845 59.4049 59.9956 59.9796 60.4622 60.4549C61.7737 61.7907 63.8531 59.9006 65.0605 58.7152C65.266 58.5134 65.2693 58.1571 65.0675 57.9515C64.8657 57.746 64.5094 57.7428 64.3039 57.9445C63.5075 58.7264 61.8256 60.3019 61.2329 59.6982Z" fill="#C2000D"/>
<path d="M66.0615 56.284C66.1599 56.4127 66.3155 56.4977 66.4812 56.5069C66.5712 56.5061 67.8101 56.5558 68.8396 55.7687C69.8978 54.9597 70.9098 53.4382 69.8493 52.0512C69.1059 51.0788 67.6895 50.9155 66.507 50.7321C65.2235 50.5351 64.2024 50.2962 63.8526 49.8386C63.4262 49.2809 63.5145 49.1001 63.3396 48.8713C63.1756 48.6568 62.84 48.5735 62.5826 48.7703C62.4253 48.8905 62.3194 49.1075 62.379 49.3338C62.4085 49.4019 62.5464 49.9083 62.9946 50.4945C63.738 51.4669 65.1544 51.6302 66.337 51.8137C67.6204 52.0106 68.6415 52.2496 68.9913 52.7072C69.4614 53.322 69.1274 54.1892 68.1837 54.9107C67.2399 55.6323 66.5738 55.2352 66.1734 55.5413C65.9589 55.7053 65.8756 56.0409 66.0615 56.284ZM64.7728 48.9084C65.1017 48.657 65.2389 47.9177 66.7 46.3021C66.8674 46.1061 66.8826 45.8 66.7295 45.5998C66.5327 45.3424 66.187 45.3348 65.9725 45.4988L65.901 45.5534C64.5148 47.0891 63.9957 48.1884 63.9604 48.2607C63.8864 48.4306 63.9065 48.6644 64.0268 48.8217C64.2236 49.0791 64.5583 49.0724 64.7728 48.9084Z" fill="#C2000D"/>
<path d="M80.1422 48.4452C80.293 48.7721 80.8587 48.7093 81.1856 48.5585C81.4635 48.4303 81.5779 48.1198 81.4497 47.8419C81.2989 47.515 80.7331 47.5778 80.4063 47.7287C80.1284 47.8569 80.014 48.1674 80.1422 48.4452Z" fill="#C2000D"/>
<path d="M91.5182 44.3366C91.6413 44.3101 91.7532 44.2308 91.8398 44.1201C93.2074 42.2609 94.2115 40.1669 94.7683 38.3901C94.8972 39.2461 95.0223 40.0846 95.2116 40.9645C95.416 41.9147 95.648 42.8222 95.9743 43.6542C96.0801 43.8892 96.3505 44.0336 96.5969 43.9806C96.9136 43.9124 97.068 43.6031 97.0112 43.3391L96.9923 43.2511C96.6888 42.5247 96.4643 41.6524 96.2674 40.7373C95.7413 38.2913 95.5443 35.6639 95.3324 34.6785C95.2756 34.4145 94.99 34.1998 94.6909 34.2641C94.4269 34.3209 94.226 34.5851 94.2652 34.8528C94.4272 36.2909 93.3203 40.3034 90.9694 43.4972C90.8689 43.6293 90.8464 43.7815 90.8767 43.9222C90.941 44.2214 91.2366 44.3972 91.5182 44.3366Z" fill="#C2000D"/>
<path d="M98.5672 42.4998C98.5815 42.6612 98.6675 42.8162 98.8026 42.9126C98.8791 42.9601 99.8993 43.6647 101.19 43.5502C102.517 43.4326 104.186 42.6883 104.032 40.9491C103.923 39.7299 102.814 38.8344 101.913 38.0469C100.934 37.194 100.199 36.446 100.148 35.8723C100.086 35.173 100.257 35.0675 100.232 34.7806C100.208 34.5117 99.9691 34.2618 99.6463 34.2904C99.4491 34.3079 99.2435 34.4346 99.1729 34.6577C99.1614 34.731 99.0071 35.2326 99.0722 35.9677C99.1803 37.1869 100.29 38.0824 101.191 38.8699C102.17 39.7227 102.905 40.4708 102.956 41.0445C103.024 41.8155 102.278 42.3695 101.095 42.4745C99.9115 42.5794 99.561 41.8876 99.059 41.9321C98.79 41.956 98.5402 42.195 98.5672 42.4998ZM101.423 35.5785C101.835 35.542 102.347 34.9906 104.445 34.407C104.692 34.3309 104.868 34.0804 104.846 33.8294C104.817 33.5066 104.529 33.3153 104.26 33.3392L104.171 33.3471C102.178 33.9033 101.152 34.5545 101.083 34.5967C100.93 34.7007 100.822 34.909 100.839 35.1063C100.868 35.429 101.154 35.6024 101.423 35.5785Z" fill="#C2000D"/>
<path d="M114.659 43.4069C114.611 43.7637 115.123 44.0132 115.48 44.0606C115.783 44.1009 116.046 43.8997 116.086 43.5964C116.133 43.2395 115.622 42.99 115.265 42.9426C114.962 42.9024 114.699 43.1035 114.659 43.4069Z" fill="#C2000D"/>
<path d="M144.836 55.1076C144.789 55.4644 145.301 55.7139 145.657 55.7613C145.961 55.8016 146.224 55.6004 146.264 55.2971C146.311 54.9402 145.8 54.6907 145.443 54.6433C145.139 54.6031 144.877 54.8042 144.836 55.1076Z" fill="#C2000D"/>
<path d="M128.253 45.3342C128.396 44.9457 128.603 44.6958 129.159 44.2287C129.802 43.679 131.172 42.8213 131.982 42.2368C132.611 41.7777 133.164 41.3676 133.407 40.7088C133.755 39.7627 133.285 38.746 132.339 38.3981C131.46 38.075 130.238 38.3735 129.859 39.404C129.617 40.0628 129.638 40.4735 130.078 40.6351C130.382 40.7469 130.678 40.5681 130.771 40.3147C130.858 40.0781 130.748 40.1147 130.873 39.7768C130.991 39.4558 131.493 39.2377 131.966 39.4117C132.371 39.5608 132.542 39.9305 132.393 40.336C132.3 40.5894 131.977 40.8927 131.348 41.3517C130.585 41.9149 129.227 42.7388 128.467 43.3988C127.899 43.8997 127.47 44.3364 127.24 44.9614C126.594 46.7184 129.192 47.789 130.78 48.373C131.05 48.4725 131.373 48.3229 131.473 48.0526C131.572 47.7823 131.423 47.4588 131.152 47.3594C130.105 46.9742 127.961 46.1282 128.253 45.3342Z" fill="#C2000D"/>
<path d="M133.407 48.2372C133.332 48.3812 133.322 48.5582 133.385 48.7119C133.424 48.7929 133.909 49.934 135.061 50.5277C136.245 51.1379 138.053 51.4015 138.853 49.8495C139.414 48.7615 138.955 47.4115 138.615 46.2642C138.244 45.0199 138.023 43.9947 138.287 43.4827C138.609 42.8587 138.81 42.8612 138.942 42.6052C139.065 42.3652 138.997 42.0262 138.709 41.8778C138.533 41.7871 138.292 41.7842 138.113 41.9349C138.064 41.9907 137.665 42.332 137.327 42.988C136.766 44.076 137.225 45.426 137.565 46.5733C137.936 47.8176 138.157 48.8427 137.893 49.3548C137.539 50.0428 136.612 50.1119 135.556 49.5677C134.5 49.0234 134.574 48.2515 134.126 48.0206C133.886 47.8969 133.547 47.9652 133.407 48.2372ZM139.522 43.9165C139.89 44.1061 140.616 43.9137 142.702 44.543C142.951 44.6105 143.234 44.4932 143.349 44.2692C143.498 43.9812 143.357 43.6655 143.117 43.5418L143.037 43.5006C141.055 42.9048 139.84 42.906 139.759 42.905C139.574 42.9108 139.371 43.0291 139.281 43.2051C139.132 43.4931 139.282 43.7928 139.522 43.9165Z" fill="#C2000D"/>
<path d="M148.89 60.2159C148.989 60.2942 149.121 60.3303 149.262 60.327C151.567 60.2033 153.822 59.6498 155.548 58.9519C154.969 59.595 154.4 60.2239 153.841 60.9288C153.236 61.69 152.682 62.4454 152.247 63.2256C152.132 63.4566 152.192 63.7571 152.39 63.9139C152.643 64.1153 152.981 64.0382 153.148 63.8268L153.204 63.7563C153.573 63.0606 154.104 62.3334 154.686 61.6004C156.242 59.641 158.147 57.8208 158.774 57.0314C158.942 56.82 158.927 56.463 158.687 56.2727C158.476 56.1048 158.144 56.1173 157.962 56.3176C156.954 57.3557 153.151 59.0478 149.191 59.259C149.025 59.2652 148.893 59.3444 148.803 59.4572C148.613 59.6968 148.665 60.0368 148.89 60.2159Z" fill="#C2000D"/>
<path d="M154.786 64.4968C154.67 64.6103 154.605 64.7752 154.616 64.9407C154.628 65.0299 154.731 66.2655 155.639 67.1903C156.573 68.1407 158.207 68.9576 159.453 67.7343C160.326 66.8768 160.314 65.4511 160.35 64.2549C160.388 62.957 160.499 61.9143 160.91 61.5107C161.411 61.0189 161.601 61.0843 161.807 60.8825C161.999 60.6933 162.041 60.35 161.814 60.1189C161.675 59.9776 161.447 59.8991 161.229 59.9862C161.165 60.0238 160.68 60.223 160.153 60.7401C159.28 61.5976 159.292 63.0233 159.256 64.2195C159.219 65.5174 159.107 66.5601 158.696 66.9637C158.144 67.506 157.242 67.2813 156.41 66.4336C155.578 65.5859 155.89 64.876 155.537 64.5164C155.347 64.3237 155.004 64.2824 154.786 64.4968ZM161.946 62.3094C162.236 62.6048 162.987 62.6498 164.77 63.9008C164.985 64.0428 165.291 64.0201 165.471 63.8436C165.702 63.6166 165.667 63.2726 165.478 63.0799L165.415 63.0157C163.72 61.8292 162.565 61.4495 162.489 61.4233C162.311 61.3708 162.082 61.4196 161.941 61.5583C161.709 61.7853 161.757 62.1167 161.946 62.3094Z" fill="#C2000D"/>
<path d="M164.3 77.5043C163.994 77.6942 164.126 78.2479 164.316 78.5537C164.478 78.8136 164.8 78.8889 165.06 78.7275C165.366 78.5375 165.234 77.9839 165.044 77.678C164.882 77.4181 164.56 77.3428 164.3 77.5043Z" fill="#C2000D"/>
<path d="M171.441 89.2327C171.832 89.0964 172.157 89.0977 172.87 89.2303C173.703 89.3783 175.236 89.8926 176.201 90.147C176.956 90.3416 177.624 90.509 178.287 90.2779C179.239 89.9462 179.726 88.9376 179.394 87.9858C179.086 87.1019 178.079 86.3471 177.043 86.7085C176.38 86.9396 176.076 87.217 176.23 87.6589C176.337 87.9648 176.663 88.0799 176.918 87.9911C177.156 87.9081 177.058 87.8468 177.398 87.7284C177.721 87.6158 178.208 87.8653 178.374 88.3412C178.516 88.7492 178.339 89.1159 177.931 89.2581C177.676 89.347 177.237 89.2903 176.483 89.0957C175.563 88.8634 174.065 88.3374 173.072 88.1687C172.325 88.048 171.715 87.9937 171.086 88.2129C169.318 88.829 170.14 91.5161 170.697 93.1138C170.792 93.3858 171.113 93.5408 171.385 93.446C171.657 93.3512 171.812 93.0303 171.717 92.7584C171.35 91.7046 170.642 89.5111 171.441 89.2327Z" fill="#C2000D"/>
<path d="M172.47 95.0568C172.311 95.0909 172.168 95.1954 172.089 95.3413C172.051 95.423 171.478 96.5223 171.75 97.7893C172.031 99.0915 172.975 100.656 174.682 100.289C175.878 100.031 176.63 98.8198 177.301 97.8286C178.027 96.7519 178.678 95.9304 179.242 95.8092C179.928 95.6616 180.054 95.8186 180.335 95.758C180.599 95.7012 180.818 95.4333 180.75 95.1165C180.708 94.9229 180.557 94.7345 180.327 94.6919C180.253 94.6895 179.736 94.5981 179.014 94.7534C177.818 95.0109 177.066 96.2222 176.395 97.2134C175.67 98.2901 175.018 99.1116 174.455 99.2328C173.698 99.3956 173.056 98.7235 172.806 97.5621C172.556 96.4007 173.2 95.9677 173.094 95.475C173.037 95.211 172.769 94.9925 172.47 95.0568ZM179.69 97.0384C179.777 97.4431 180.387 97.8826 181.225 99.8934C181.331 100.128 181.601 100.273 181.848 100.22C182.164 100.152 182.319 99.8422 182.262 99.5782L182.243 99.4902C181.446 97.5812 180.673 96.6428 180.623 96.58C180.501 96.4405 180.28 96.359 180.087 96.4006C179.77 96.4688 179.633 96.7744 179.69 97.0384Z" fill="#C2000D"/>
<path d="M173.552 111.136C173.192 111.133 173.007 111.671 173.004 112.031C173.002 112.337 173.234 112.573 173.54 112.576C173.9 112.579 174.084 112.04 174.087 111.68C174.09 111.375 173.858 111.139 173.552 111.136Z" fill="#C2000D"/>
<path d="M172.413 123.178C172.385 123.3 172.409 123.435 172.472 123.561C173.57 125.591 175.035 127.393 176.404 128.654C175.575 128.406 174.764 128.161 173.887 127.957C172.94 127.736 172.021 127.559 171.129 127.499C170.871 127.494 170.625 127.677 170.568 127.923C170.495 128.238 170.709 128.51 170.972 128.571L171.059 128.592C171.846 128.627 172.73 128.796 173.642 129.009C176.079 129.576 178.539 130.519 179.521 130.748C179.784 130.809 180.1 130.643 180.169 130.345C180.23 130.082 180.077 129.787 179.818 129.709C178.448 129.241 175.292 126.528 173.406 123.039C173.33 122.892 173.202 122.807 173.062 122.774C172.764 122.705 172.479 122.897 172.413 123.178Z" fill="#C2000D"/>
<path d="M171.067 130.336C170.915 130.28 170.738 130.292 170.593 130.373C170.518 130.422 169.445 131.044 168.998 132.26C168.538 133.51 168.499 135.337 170.138 135.94C171.287 136.362 172.57 135.741 173.667 135.262C174.856 134.74 175.846 134.395 176.386 134.594C177.045 134.836 177.068 135.036 177.338 135.135C177.591 135.229 177.919 135.119 178.031 134.815C178.099 134.629 178.073 134.389 177.901 134.23C177.84 134.188 177.452 133.835 176.759 133.58C175.61 133.158 174.327 133.779 173.23 134.258C172.041 134.779 171.051 135.125 170.511 134.926C169.784 134.659 169.601 133.748 170.011 132.633C170.421 131.518 171.197 131.496 171.37 131.023C171.464 130.77 171.354 130.442 171.067 130.336ZM176.108 135.872C175.965 136.261 176.246 136.958 175.878 139.105C175.842 139.361 175.993 139.627 176.229 139.714C176.534 139.826 176.829 139.647 176.923 139.394L176.954 139.309C177.301 137.27 177.15 136.064 177.141 135.984C177.112 135.8 176.97 135.614 176.784 135.546C176.48 135.434 176.201 135.619 176.108 135.872Z" fill="#C2000D"/>
<path d="M163.381 144.502C163.079 144.307 162.635 144.663 162.44 144.966C162.274 145.223 162.344 145.546 162.601 145.712C162.903 145.907 163.347 145.551 163.542 145.249C163.708 144.991 163.638 144.668 163.381 144.502Z" fill="#C2000D"/>
<path d="M155.837 155.976C156.127 156.271 156.265 156.565 156.45 157.267C156.673 158.083 156.864 159.688 157.047 160.67C157.194 161.435 157.329 162.11 157.821 162.611C158.529 163.329 159.649 163.338 160.367 162.631C161.034 161.974 161.285 160.741 160.515 159.959C160.023 159.459 159.642 159.303 159.309 159.631C159.078 159.859 159.113 160.203 159.303 160.395C159.479 160.575 159.493 160.46 159.745 160.717C159.985 160.96 159.968 161.508 159.609 161.861C159.301 162.164 158.894 162.161 158.591 161.853C158.402 161.661 158.265 161.24 158.118 160.475C157.935 159.544 157.769 157.965 157.496 156.995C157.286 156.268 157.074 155.693 156.607 155.219C155.293 153.885 153.216 155.778 152.011 156.965C151.805 157.167 151.803 157.523 152.005 157.728C152.207 157.934 152.563 157.936 152.768 157.734C153.564 156.951 155.243 155.374 155.837 155.976Z" fill="#C2000D"/>
<path d="M151.013 159.397C150.915 159.269 150.759 159.184 150.593 159.175C150.503 159.176 149.264 159.128 148.236 159.916C147.179 160.727 146.169 162.25 147.231 163.635C147.976 164.607 149.392 164.768 150.575 164.95C151.859 165.145 152.88 165.383 153.231 165.84C153.658 166.397 153.57 166.578 153.745 166.806C153.909 167.021 154.245 167.103 154.502 166.906C154.659 166.786 154.765 166.569 154.705 166.343C154.675 166.274 154.537 165.768 154.088 165.183C153.343 164.211 151.927 164.05 150.744 163.868C149.46 163.673 148.439 163.435 148.088 162.978C147.617 162.364 147.95 161.496 148.893 160.773C149.836 160.051 150.502 160.447 150.902 160.14C151.117 159.976 151.199 159.64 151.013 159.397ZM152.312 166.771C151.983 167.023 151.847 167.763 150.388 169.38C150.221 169.576 150.206 169.882 150.36 170.082C150.557 170.34 150.902 170.347 151.117 170.182L151.188 170.128C152.572 168.59 153.09 167.49 153.125 167.418C153.199 167.248 153.178 167.014 153.058 166.857C152.861 166.6 152.526 166.607 152.312 166.771Z" fill="#C2000D"/>
<path d="M136.943 167.255C136.791 166.928 136.226 166.992 135.899 167.143C135.621 167.272 135.507 167.582 135.636 167.86C135.787 168.187 136.353 168.123 136.68 167.972C136.957 167.843 137.071 167.533 136.943 167.255Z" fill="#C2000D"/>
<path d="M125.572 171.379C125.449 171.406 125.338 171.485 125.251 171.596C123.886 173.457 122.885 175.552 122.33 177.33C122.2 176.474 122.074 175.636 121.884 174.756C121.678 173.806 121.445 172.899 121.117 172.067C121.011 171.833 120.74 171.689 120.494 171.742C120.178 171.81 120.024 172.12 120.081 172.384L120.1 172.472C120.404 173.198 120.63 174.07 120.828 174.985C121.357 177.43 121.558 180.057 121.771 181.042C121.828 181.306 122.114 181.521 122.413 181.456C122.677 181.399 122.878 181.134 122.838 180.867C122.674 179.429 123.776 175.415 126.122 172.218C126.223 172.085 126.245 171.933 126.214 171.793C126.15 171.493 125.854 171.318 125.572 171.379Z" fill="#C2000D"/>
<path d="M118.526 173.225C118.511 173.064 118.425 172.909 118.29 172.813C118.213 172.765 117.192 172.062 115.902 172.178C114.575 172.298 112.907 173.044 113.064 174.783C113.173 176.002 114.284 176.896 115.186 177.683C116.167 178.534 116.902 179.281 116.954 179.855C117.017 180.554 116.846 180.66 116.872 180.947C116.896 181.216 117.135 181.465 117.458 181.436C117.655 181.418 117.861 181.291 117.931 181.068C117.942 180.995 118.096 180.493 118.03 179.758C117.92 178.539 116.809 177.645 115.907 176.859C114.927 176.007 114.191 175.26 114.139 174.686C114.07 173.916 114.815 173.361 115.998 173.254C117.182 173.147 117.533 173.839 118.035 173.794C118.304 173.769 118.553 173.53 118.526 173.225ZM115.679 180.15C115.267 180.188 114.757 180.74 112.659 181.326C112.413 181.402 112.236 181.653 112.259 181.904C112.288 182.227 112.576 182.418 112.845 182.394L112.935 182.386C114.927 181.827 115.952 181.174 116.021 181.132C116.174 181.028 116.282 180.819 116.264 180.622C116.235 180.299 115.948 180.126 115.679 180.15Z" fill="#C2000D"/>
<path d="M102.433 172.34C102.48 171.983 101.968 171.734 101.611 171.687C101.308 171.647 101.045 171.849 101.006 172.152C100.959 172.509 101.471 172.758 101.827 172.805C102.131 172.845 102.393 172.643 102.433 172.34Z" fill="#C2000D"/>
<path d="M72.8234 161.668C72.8703 161.311 72.3583 161.062 72.0014 161.015C71.698 160.976 71.4355 161.177 71.3956 161.48C71.3488 161.837 71.8607 162.086 72.2176 162.133C72.521 162.173 72.7835 161.971 72.8234 161.668Z" fill="#C2000D"/>
<path d="M88.8351 170.431C88.6928 170.819 88.4861 171.07 87.9314 171.537C87.2889 172.088 85.9197 172.948 85.111 173.533C84.4825 173.993 83.9295 174.404 83.688 175.063C83.3414 176.01 83.8127 177.026 84.7592 177.372C85.6381 177.694 86.8599 177.394 87.2375 176.363C87.4789 175.704 87.4568 175.293 87.0173 175.132C86.7131 175.021 86.4174 175.2 86.3246 175.454C86.2379 175.69 86.3472 175.654 86.2234 175.992C86.1057 176.313 85.6039 176.532 85.1306 176.358C84.725 176.21 84.5536 175.84 84.7022 175.435C84.795 175.181 85.1171 174.877 85.7456 174.417C86.5082 173.853 87.8649 173.027 88.6246 172.366C89.1917 171.865 89.6202 171.427 89.8493 170.802C90.4931 169.044 87.8935 167.977 86.3047 167.395C86.0343 167.296 85.711 167.446 85.6119 167.717C85.5129 167.987 85.6628 168.31 85.9333 168.409C86.9812 168.793 89.1261 169.636 88.8351 170.431Z" fill="#C2000D"/>
<path d="M83.6789 167.535C83.7529 167.391 83.7628 167.214 83.7001 167.06C83.6607 166.979 83.174 165.839 82.0212 165.246C80.8364 164.638 79.0279 164.377 78.2301 165.93C77.6709 167.019 78.1312 168.368 78.4729 169.515C78.8458 170.759 79.0681 171.783 78.8049 172.296C78.4842 172.92 78.283 172.918 78.1514 173.174C78.028 173.414 78.0968 173.753 78.385 173.901C78.5611 173.992 78.8026 173.994 78.9813 173.843C79.0302 173.788 79.4284 173.446 79.7656 172.789C80.3249 171.7 79.8646 170.351 79.5228 169.204C79.1499 167.96 78.9276 166.936 79.1908 166.423C79.5445 165.735 80.471 165.664 81.5278 166.207C82.5845 166.75 82.5117 167.522 82.96 167.752C83.2002 167.876 83.539 167.807 83.6789 167.535ZM77.5699 171.864C77.2016 171.675 76.475 171.868 74.3887 171.241C74.1399 171.174 73.8569 171.292 73.7417 171.516C73.5937 171.804 73.7352 172.12 73.9753 172.243L74.0554 172.284C76.0374 172.878 77.253 172.875 77.3335 172.876C77.5187 172.869 77.7212 172.751 77.8117 172.575C77.9598 172.287 77.8101 171.987 77.5699 171.864Z" fill="#C2000D"/>
</svg>
