<svg width="228" height="212" viewBox="0 0 228 212" fill="none" xmlns="http://www.w3.org/2000/svg">
<path d="M74.0543 164.72C73.7705 165.262 74.5337 165.783 74.9962 166.025C76.5909 166.86 78.6597 166.013 79.4528 164.498C80.129 163.206 79.6806 161.773 78.3889 161.097C77.5118 160.638 76.6219 160.436 75.2666 160.58C75.073 160.6 74.9341 160.71 74.8506 160.87C74.7087 161.141 74.8393 161.473 75.0785 161.599C75.1742 161.649 75.2866 161.667 75.3914 161.661C76.6176 161.531 77.1704 161.678 77.888 162.054C78.6694 162.463 78.905 163.216 78.4959 163.997C77.9533 165.034 76.4539 165.569 75.497 165.068C75.21 164.918 75.0908 164.835 74.9654 164.648C74.9183 164.583 74.8469 164.525 74.7832 164.492C74.544 164.366 74.2046 164.433 74.0543 164.72Z" fill="#C2000D"/>
<path d="M68.5511 155.626C68.8964 155.165 68.3921 154.607 67.8302 154.186C66.476 153.172 64.8205 154.001 63.9788 155.125C63.1155 156.277 62.9581 157.959 64.2691 158.941C65.681 159.998 67.7866 159.439 70.4709 157.266C69.7192 158.48 69.3057 159.272 69.1766 159.985C69.1407 160.183 69.2236 160.403 69.3821 160.522C69.6414 160.716 69.9761 160.629 70.138 160.413C70.1812 160.355 70.2207 160.273 70.2351 160.193C70.4073 159.243 71.8279 156.956 75.0653 152.634C75.2056 152.447 75.2161 152.072 74.9568 151.878C74.7407 151.716 74.4095 151.738 74.2225 151.958C68.8695 158.203 66.0115 158.896 64.9166 158.076C64.2107 157.547 64.1957 156.637 64.8432 155.772C65.5122 154.879 66.52 154.554 67.1828 155.051C67.6294 155.385 67.5214 155.529 67.7952 155.735C68.0113 155.896 68.3569 155.885 68.5511 155.626Z" fill="#C2000D"/>
<path d="M61.691 148.445C61.1537 147.888 60.6007 147.496 59.6016 147.134C59.4119 147.067 59.1819 147.114 59.0394 147.251C58.8061 147.476 58.8381 147.82 59.0255 148.015C59.0755 148.067 59.1509 148.119 59.2268 148.146C60.125 148.455 60.4513 148.715 60.9136 149.195C61.1135 149.402 61.2496 149.621 61.3348 149.839C60.2125 149.246 58.5582 149.216 57.5864 150.153C56.8609 150.853 56.8406 151.972 57.5403 152.698C58.6524 153.851 60.3993 153.692 61.4876 152.642C62.7185 151.455 62.8905 149.689 61.691 148.445ZM58.3362 150.93C58.984 150.305 60.5861 150.411 61.2733 151.123C61.1669 151.376 60.9841 151.627 60.7379 151.865C60.0123 152.565 58.9549 152.609 58.3177 151.948C58.0178 151.637 58.0252 151.23 58.3362 150.93Z" fill="#C2000D"/>
<path d="M59.7929 139.104C59.2378 139.504 58.0732 139.765 56.8304 139.795C57.1256 139.25 57.5317 138.736 58.1161 138.315C58.7736 137.842 59.5793 137.883 59.9158 138.351C60.1156 138.628 60.0705 138.905 59.7929 139.104ZM50.7239 142.527C50.6217 142.6 50.5509 142.718 50.5159 142.854C50.3738 143.488 50.5308 144.107 50.8988 144.619C51.8031 145.875 53.4111 146.137 54.6675 145.233C56.0846 144.213 56.0213 142.307 56.42 140.889C57.9036 140.886 59.445 140.685 60.4238 139.981C61.1689 139.445 61.3286 138.465 60.7923 137.72C59.9722 136.58 58.4348 136.755 57.4852 137.439C56.5648 138.101 56.0154 138.94 55.6606 139.772C55.0348 139.735 54.4424 139.651 53.9586 139.533C53.7973 139.494 53.6343 139.545 53.5174 139.629C53.2691 139.808 53.2263 140.149 53.3946 140.383C53.4682 140.485 53.571 140.566 53.7071 140.601C54.1909 140.719 54.7478 140.784 55.3192 140.838C55.249 141.111 55.204 141.387 55.163 141.638C54.9542 142.92 54.6794 143.894 54.0366 144.356C53.2477 144.924 52.3432 144.777 51.7754 143.988C51.5546 143.681 51.4991 143.388 51.5629 143.076C51.5875 142.925 51.5618 142.766 51.4777 142.65C51.2989 142.401 50.9577 142.358 50.7239 142.527Z" fill="#C2000D"/>
<path d="M45.8286 133.103C45.7807 133.127 45.7412 133.168 45.7016 133.209C45.1317 133.791 45.0258 134.678 45.3835 135.364C46.2986 137.12 48.9502 137.768 50.6422 136.886C51.5361 136.42 52.1069 135.413 51.5662 134.375C51.0338 133.353 50.0155 132.646 48.8008 132.223C49.1819 131.903 49.9274 131.23 49.6529 130.704C49.5114 130.432 49.1639 130.35 48.9244 130.474C48.8286 130.524 48.7495 130.606 48.6947 130.696C48.4606 131.142 47.9928 131.569 47.2585 131.951C47.035 132.068 46.8878 132.408 47.0292 132.68C47.1041 132.824 47.2345 132.918 47.3961 132.955C49.0036 133.275 50.1343 133.964 50.6084 134.874C50.8164 135.273 50.6858 135.646 50.1431 135.929C48.9618 136.544 46.9236 135.983 46.3413 134.865C46.1998 134.594 46.2333 134.191 46.4548 133.953C46.6131 133.79 46.6652 133.539 46.5571 133.332C46.4073 133.045 46.0681 132.978 45.8286 133.103Z" fill="#C2000D"/>
<path d="M44.7942 117.109C45.1471 117.038 45.2166 116.473 45.1453 116.12C45.0847 115.82 44.809 115.637 44.5091 115.697C44.1562 115.769 44.0867 116.334 44.158 116.687C44.2186 116.987 44.4943 117.17 44.7942 117.109Z" fill="#C2000D"/>
<path d="M39.2323 96.1263C38.6224 96.0763 38.4397 96.9824 38.3971 97.5027C38.25 99.2966 39.8366 100.872 41.5409 101.011C42.994 101.13 44.1392 100.159 44.2584 98.7056C44.3393 97.7189 44.1781 96.8208 43.5173 95.6288C43.4229 95.4585 43.2673 95.3735 43.0879 95.3588C42.783 95.3338 42.5277 95.5838 42.5056 95.8529C42.4968 95.9605 42.5238 96.0711 42.5703 96.1652C43.1682 97.2436 43.2482 97.8101 43.182 98.6174C43.1099 99.4964 42.5082 100.007 41.6291 99.9349C40.4631 99.8393 39.3852 98.6673 39.4735 97.5909C39.4999 97.268 39.5296 97.1259 39.6535 96.9374C39.6952 96.8686 39.7205 96.7804 39.7264 96.7086C39.7485 96.4395 39.5552 96.1528 39.2323 96.1263Z" fill="#C2000D"/>
<path d="M45.4602 87.5124C46.0193 87.6507 46.3363 86.9688 46.5048 86.2873C46.911 84.6448 45.5022 83.4435 44.1393 83.1064C42.7414 82.7607 41.1318 83.2712 40.7385 84.8613C40.315 86.5738 41.6509 88.2948 44.6979 89.9198C43.2873 89.7007 42.3965 89.6288 41.6897 89.7877C41.4933 89.8319 41.3235 89.9939 41.2759 90.1861C41.1982 90.5006 41.4084 90.7751 41.6705 90.8399C41.7404 90.8572 41.8321 90.8613 41.9106 90.8437C42.8531 90.6317 45.5128 91.0484 50.7549 92.3448C50.9821 92.401 51.331 92.2647 51.4088 91.9502C51.4736 91.6881 51.3244 91.3916 51.0491 91.305C43.2108 88.8103 41.4585 86.4486 41.7869 85.1206C41.9987 84.2644 42.8316 83.8956 43.88 84.1548C44.9634 84.4228 45.6552 85.2243 45.4564 86.0281C45.3224 86.5697 45.1477 86.5265 45.0656 86.8585C45.0008 87.1206 45.1456 87.4346 45.4602 87.5124Z" fill="#C2000D"/>
<path d="M49.3998 78.3956C49.7034 77.6836 49.8487 77.0216 49.7925 75.9604C49.7803 75.7596 49.6476 75.566 49.4654 75.4883C49.1674 75.3612 48.8628 75.5249 48.7569 75.7732C48.7286 75.8395 48.7099 75.9293 48.7148 76.0097C48.7803 76.9573 48.6676 77.3593 48.4064 77.972C48.2934 78.2369 48.1449 78.4475 47.9774 78.6109C48.0862 77.3462 47.4688 75.811 46.227 75.2815C45.2998 74.8861 44.2606 75.304 43.8652 76.2312C43.2369 77.7048 44.0645 79.2514 45.4554 79.8445C47.0283 80.5153 48.722 79.9851 49.3998 78.3956ZM45.8034 76.275C46.6313 76.628 47.1587 78.1444 46.7704 79.0551C46.4963 79.0556 46.1936 78.9852 45.879 78.8511C44.9518 78.4557 44.4986 77.4993 44.8587 76.6549C45.0281 76.2575 45.406 76.1055 45.8034 76.275Z" fill="#C2000D"/>
<path d="M57.2606 73.0072C56.6762 72.6517 55.9813 71.6812 55.4696 70.5483C56.0867 70.6076 56.7184 70.7812 57.3336 71.1554C58.0256 71.5763 58.3019 72.3343 58.0026 72.8264C57.8248 73.1186 57.5528 73.1849 57.2606 73.0072ZM50.5735 65.9898C50.4658 65.9244 50.3301 65.905 50.1911 65.9258C49.5514 66.0423 49.0427 66.4282 48.7153 66.9664C47.9108 68.2889 48.2964 69.8718 49.6189 70.6763C51.1106 71.5837 52.8411 70.7823 54.3024 70.5967C54.8837 71.9616 55.669 73.3031 56.6993 73.9299C57.4836 74.4069 58.4482 74.172 58.9253 73.3877C59.6549 72.1882 58.8944 70.8407 57.8948 70.2327C56.926 69.6433 55.9392 69.4645 55.0348 69.4621C54.8253 68.8712 54.6714 68.293 54.5911 67.8016C54.5643 67.6379 54.4539 67.5075 54.3309 67.4327C54.0695 67.2737 53.7386 67.3674 53.5889 67.6134C53.5234 67.7211 53.4887 67.8474 53.5095 67.9865C53.5898 68.4778 53.7471 69.0159 53.9197 69.5633C53.6416 69.6049 53.3696 69.6711 53.1223 69.7314C51.8609 70.0386 50.8568 70.1652 50.1802 69.7536C49.3497 69.2485 49.1329 68.3581 49.638 67.5277C49.8345 67.2047 50.0824 67.0395 50.3946 66.9766C50.543 66.9405 50.6794 66.8549 50.7542 66.7318C50.9132 66.4704 50.8195 66.1395 50.5735 65.9898Z" fill="#C2000D"/>
<path d="M57.3419 57.8077C57.3003 57.7733 57.2472 57.7528 57.1941 57.7323C56.4367 57.4341 55.5783 57.6825 55.0856 58.2795C53.8254 59.8067 54.2625 62.5011 55.7341 63.7154C56.5116 64.357 57.6622 64.4897 58.4069 63.5873C59.1401 62.6988 59.3947 61.4853 59.3102 60.202C59.7538 60.428 60.6639 60.8523 61.0419 60.3941C61.2367 60.1581 61.1774 59.8058 60.9691 59.634C60.8858 59.5652 60.7796 59.5242 60.6758 59.5086C60.1732 59.4672 59.598 59.2027 58.9594 58.6757C58.765 58.5153 58.394 58.5125 58.1992 58.7485C58.0961 58.8734 58.06 59.0303 58.0884 59.1938C58.4211 60.7986 58.2269 62.1086 57.5739 62.8999C57.2875 63.247 56.8935 63.272 56.4215 62.8824C55.3941 62.0347 55.1167 59.9387 55.9186 58.9669C56.1134 58.7309 56.4977 58.6046 56.8024 58.716C57.0148 58.798 57.2658 58.7484 57.4148 58.5679C57.621 58.318 57.5502 57.9795 57.3419 57.8077Z" fill="#C2000D"/>
<path d="M71.67 50.6214C71.8732 50.9185 72.4206 50.7623 72.7177 50.5591C72.9703 50.3864 73.0314 50.0611 72.8587 49.8085C72.6555 49.5114 72.1081 49.6676 71.811 49.8708C71.5584 50.0435 71.4973 50.3688 71.67 50.6214Z" fill="#C2000D"/>
<path d="M138.997 43.7045C138.841 44.0287 139.249 44.4256 139.573 44.5822C139.848 44.7152 140.161 44.6063 140.294 44.3307C140.45 44.0066 140.042 43.6096 139.718 43.4531C139.443 43.32 139.13 43.429 138.997 43.7045Z" fill="#C2000D"/>
<path d="M88.8246 37.3177C88.6329 36.7365 87.7272 36.9215 87.2315 37.085C85.5221 37.649 84.6904 39.724 85.2261 41.3479C85.6829 42.7325 87.0241 43.4084 88.4087 42.9516C89.3489 42.6414 90.1132 42.1429 90.9532 41.0697C91.0732 40.9163 91.0909 40.7399 91.0345 40.569C90.9386 40.2784 90.6089 40.1408 90.3525 40.2254C90.2499 40.2592 90.1586 40.3272 90.0901 40.4067C89.33 41.3777 88.8396 41.6722 88.0704 41.9259C87.2328 42.2023 86.528 41.8472 86.2517 41.0096C85.8852 39.8985 86.5442 38.449 87.5699 38.1107C87.8776 38.0092 88.0199 37.9811 88.2418 38.0217C88.3215 38.0333 88.4126 38.0222 88.481 37.9996C88.7374 37.9151 88.9261 37.6253 88.8246 37.3177Z" fill="#C2000D"/>
<path d="M99.1838 39.6957C99.2744 40.2645 100.026 40.2906 100.719 40.1801C102.39 39.9139 102.947 38.1482 102.726 36.7617C102.5 35.3396 101.402 34.0564 99.7844 34.3141C98.0424 34.5917 96.9783 36.4929 96.6697 39.9323C96.3215 38.5478 96.0405 37.6995 95.6186 37.1105C95.5014 36.9469 95.286 36.8537 95.0905 36.8848C94.7705 36.9358 94.5997 37.2364 94.6422 37.5031C94.6535 37.5742 94.6854 37.6602 94.7323 37.7257C95.2949 38.5109 95.948 41.1227 96.7978 46.4554C96.8346 46.6865 97.0961 46.9547 97.4161 46.9037C97.6827 46.8612 97.8976 46.6082 97.87 46.321C97.1116 38.1303 98.6034 35.596 99.9544 35.3807C100.825 35.2419 101.49 35.8651 101.66 36.9316C101.835 38.0337 101.367 38.9833 100.549 39.1136C99.9982 39.2014 99.9698 39.0236 99.6321 39.0775C99.3655 39.1199 99.1328 39.3757 99.1838 39.6957Z" fill="#C2000D"/>
<path d="M109.114 39.7691C109.888 39.7712 110.555 39.6469 111.51 39.1814C111.69 39.0919 111.817 38.8942 111.817 38.6962C111.818 38.3722 111.549 38.1555 111.279 38.1548C111.207 38.1546 111.117 38.1724 111.044 38.2082C110.197 38.638 109.783 38.6909 109.117 38.6891C108.829 38.6884 108.577 38.6337 108.362 38.5432C109.569 38.1503 110.742 36.9834 110.745 35.6334C110.748 34.6254 109.958 33.8313 108.95 33.8287C107.348 33.8245 106.246 35.1896 106.242 36.7016C106.238 38.4116 107.386 39.7646 109.114 39.7691ZM109.665 35.6306C109.663 36.5305 108.472 37.6074 107.482 37.6049C107.375 37.3526 107.321 37.0464 107.322 36.7044C107.325 35.6964 108.029 34.9063 108.947 34.9087C109.379 34.9098 109.666 35.1986 109.665 35.6306Z" fill="#C2000D"/>
<path d="M116.864 42.9273C116.963 42.2506 117.586 41.2324 118.43 40.3195C118.616 40.9108 118.702 41.5603 118.598 42.2726C118.48 43.074 117.889 43.624 117.32 43.5402C116.981 43.4904 116.814 43.2657 116.864 42.9273ZM120.719 34.0337C120.738 33.909 120.702 33.7765 120.629 33.6565C120.272 33.1128 119.719 32.7949 119.095 32.7032C117.564 32.478 116.257 33.4501 116.031 34.9816C115.777 36.709 117.19 37.9902 117.93 39.2635C116.9 40.331 115.971 41.577 115.795 42.7702C115.662 43.6784 116.254 44.4751 117.162 44.6087C118.552 44.813 119.496 43.5874 119.666 42.4298C119.831 41.3079 119.611 40.3295 119.261 39.4956C119.723 39.0724 120.196 38.7052 120.617 38.4397C120.757 38.3512 120.834 38.1988 120.855 38.0563C120.9 37.7535 120.685 37.4854 120.4 37.4435C120.275 37.4251 120.145 37.4424 120.025 37.5157C119.604 37.7813 119.17 38.1359 118.733 38.5083C118.586 38.2684 118.419 38.0437 118.267 37.8394C117.493 36.7976 116.985 35.9223 117.1 35.1387C117.241 34.1771 117.977 33.6303 118.938 33.7717C119.312 33.8267 119.561 33.9907 119.741 34.2536C119.832 34.3762 119.964 34.4684 120.106 34.4893C120.409 34.5339 120.677 34.3186 120.719 34.0337Z" fill="#C2000D"/>
<path d="M130.894 37.0779C130.91 37.0262 130.908 36.9693 130.906 36.9124C130.886 36.0987 130.322 35.405 129.58 35.184C127.683 34.6189 125.372 36.0717 124.827 37.9004C124.54 38.8664 124.866 39.9778 125.987 40.3118C127.091 40.6406 128.308 40.402 129.457 39.8238C129.422 40.3204 129.386 41.3239 129.955 41.4935C130.248 41.5808 130.55 41.3888 130.627 41.1301C130.657 41.0266 130.654 40.9128 130.628 40.8111C130.47 40.3321 130.489 39.6994 130.726 38.9058C130.798 38.6643 130.656 38.3215 130.362 38.2341C130.207 38.1879 130.048 38.2158 129.909 38.3057C128.561 39.2377 127.279 39.5696 126.295 39.2767C125.864 39.1483 125.688 38.7952 125.862 38.2086C126.243 36.932 128.064 35.8595 129.272 36.2191C129.565 36.3065 129.831 36.6111 129.848 36.9352C129.855 37.1628 129.998 37.3745 130.223 37.4413C130.533 37.5338 130.817 37.3367 130.894 37.0779Z" fill="#C2000D"/>
<path d="M151.893 45.0258C152.171 44.4808 151.403 43.9671 150.938 43.7297C149.335 42.9111 147.275 43.7791 146.497 45.302C145.834 46.6005 146.297 48.0293 147.595 48.6924C148.477 49.1426 149.369 49.3354 150.722 49.1778C150.916 49.1553 151.054 49.0438 151.135 48.8835C151.275 48.611 151.141 48.2798 150.9 48.157C150.804 48.1078 150.691 48.0908 150.587 48.098C149.362 48.2405 148.808 48.0989 148.086 47.7306C147.301 47.3294 147.058 46.5787 147.459 45.7932C147.991 44.7512 149.485 44.2004 150.447 44.6916C150.735 44.8389 150.855 44.9204 150.982 45.1067C151.03 45.1715 151.102 45.2284 151.166 45.2612C151.407 45.384 151.745 45.3144 151.893 45.0258Z" fill="#C2000D"/>
<path d="M157.489 54.0627C157.148 54.5272 157.658 55.0798 158.224 55.4949C159.588 56.4955 161.235 55.6498 162.066 54.5177C162.917 53.3565 163.058 51.6737 161.737 50.705C160.314 49.6618 158.214 50.2423 155.552 52.4418C156.292 51.2206 156.697 50.4242 156.819 49.7101C156.853 49.5117 156.768 49.293 156.608 49.1759C156.347 48.9843 156.013 49.0743 155.853 49.292C155.811 49.3501 155.772 49.4333 155.759 49.5126C155.596 50.4648 154.199 52.7659 151.005 57.1204C150.867 57.3091 150.86 57.6836 151.121 57.8752C151.339 58.0349 151.67 58.0098 151.855 57.7882C157.144 51.4887 159.995 50.7669 161.098 51.5759C161.809 52.0975 161.834 53.0081 161.195 53.879C160.535 54.7789 159.53 55.1137 158.863 54.624C158.413 54.294 158.519 54.1489 158.243 53.9466C158.026 53.787 157.68 53.8015 157.489 54.0627Z" fill="#C2000D"/>
<path d="M165.419 62.1751C165.962 62.7267 166.519 63.113 167.522 63.4647C167.712 63.5299 167.942 63.4808 168.083 63.342C168.314 63.1147 168.278 62.7707 168.089 62.5783C168.038 62.527 167.963 62.4755 167.886 62.4494C166.985 62.1494 166.656 61.8922 166.189 61.4175C165.987 61.2123 165.849 60.9948 165.761 60.7777C166.89 61.3595 168.544 61.3728 169.506 60.4258C170.225 59.7188 170.234 58.5988 169.527 57.8803C168.403 56.7385 166.658 56.9155 165.58 57.976C164.361 59.1754 164.207 60.9434 165.419 62.1751ZM168.749 59.6561C168.107 60.2874 166.504 60.1981 165.81 59.4925C165.914 59.2388 166.094 58.9857 166.338 58.7458C167.056 58.0387 168.113 57.9836 168.757 58.6379C169.06 58.9458 169.057 59.3531 168.749 59.6561Z" fill="#C2000D"/>
<path d="M167.413 71.495C167.964 71.0898 169.126 70.8165 170.368 70.7743C170.079 71.3224 169.678 71.8406 169.098 72.2671C168.445 72.7469 167.639 72.714 167.298 72.2499C167.095 71.9743 167.137 71.6975 167.413 71.495ZM176.447 67.981C176.548 67.9063 176.618 67.7882 176.652 67.6517C176.787 67.0158 176.624 66.3986 176.251 65.891C175.334 64.6438 173.723 64.398 172.476 65.315C171.069 66.3492 171.152 68.2545 170.768 69.6765C169.284 69.6947 167.745 69.9104 166.773 70.6248C166.034 71.1686 165.884 72.15 166.428 72.8896C167.259 74.0208 168.795 73.8302 169.737 73.1372C170.651 72.4655 171.192 71.621 171.538 70.7855C172.164 70.8166 172.758 70.8943 173.243 71.0069C173.404 71.0445 173.567 70.992 173.683 70.9067C173.929 70.7255 173.969 70.3838 173.798 70.1518C173.723 70.0503 173.62 69.9701 173.483 69.9364C172.998 69.8238 172.441 69.7644 171.869 69.7158C171.936 69.4428 171.979 69.166 172.017 68.9144C172.213 67.631 172.478 66.6542 173.116 66.1851C173.899 65.6094 174.805 65.7476 175.381 66.5307C175.605 66.8353 175.663 67.1274 175.602 67.4401C175.579 67.5911 175.607 67.7497 175.692 67.8658C175.873 68.1123 176.215 68.1516 176.447 67.981Z" fill="#C2000D"/>
<path d="M180.437 78.3559C180.485 78.3305 180.524 78.2891 180.563 78.2478C181.127 77.6609 181.224 76.7725 180.859 76.0898C179.926 74.3432 177.268 73.7222 175.585 74.6211C174.696 75.0959 174.136 76.1096 174.687 77.1416C175.23 78.1577 176.255 78.8549 177.474 79.265C177.096 79.5892 176.357 80.2694 176.637 80.7934C176.781 81.0633 177.13 81.1425 177.368 81.0153C177.463 80.9644 177.542 80.8818 177.596 80.7918C177.825 80.3427 178.289 79.9115 179.019 79.5214C179.241 79.4027 179.385 79.0606 179.241 78.7907C179.165 78.6478 179.033 78.5547 178.871 78.5188C177.261 78.2159 176.123 77.5378 175.64 76.6328C175.428 76.2359 175.554 75.862 176.094 75.5737C177.269 74.9462 179.313 75.4871 179.907 76.5986C180.051 76.8685 180.021 77.2719 179.802 77.5113C179.646 77.6766 179.596 77.9276 179.706 78.134C179.859 78.4198 180.199 78.4831 180.437 78.3559Z" fill="#C2000D"/>
<path d="M181.632 94.3384C181.28 94.4133 181.216 94.9789 181.291 95.331C181.354 95.6303 181.632 95.8106 181.931 95.7469C182.283 95.6721 182.347 95.1065 182.272 94.7543C182.209 94.455 181.931 94.2748 181.632 94.3384Z" fill="#C2000D"/>
<path d="M187.406 115.263C188.017 115.307 188.19 114.399 188.227 113.879C188.356 112.083 186.754 110.525 185.048 110.402C183.594 110.298 182.459 111.281 182.354 112.735C182.283 113.723 182.454 114.619 183.126 115.804C183.223 115.974 183.379 116.057 183.559 116.07C183.864 116.092 184.117 115.839 184.136 115.57C184.144 115.462 184.115 115.352 184.068 115.258C183.459 114.186 183.374 113.62 183.432 112.813C183.495 111.933 184.091 111.416 184.971 111.479C186.138 111.563 187.228 112.724 187.15 113.801C187.127 114.125 187.099 114.267 186.977 114.457C186.936 114.526 186.911 114.614 186.906 114.686C186.887 114.956 187.083 115.24 187.406 115.263Z" fill="#C2000D"/>
<path d="M181.266 123.94C180.705 123.808 180.395 124.493 180.233 125.176C179.844 126.822 181.265 128.009 182.631 128.333C184.032 128.664 185.637 128.137 186.014 126.543C186.42 124.827 185.067 123.119 182.004 121.525C183.416 121.73 184.308 121.793 185.013 121.627C185.209 121.581 185.377 121.417 185.423 121.224C185.497 120.909 185.284 120.637 185.021 120.575C184.951 120.558 184.86 120.555 184.781 120.573C183.841 120.795 181.177 120.405 175.922 119.162C175.695 119.108 175.347 119.248 175.273 119.563C175.21 119.826 175.363 120.121 175.639 120.204C183.502 122.62 185.278 124.963 184.963 126.295C184.76 127.153 183.931 127.53 182.88 127.282C181.794 127.025 181.094 126.23 181.284 125.424C181.413 124.881 181.588 124.923 181.667 124.59C181.729 124.327 181.581 124.015 181.266 123.94Z" fill="#C2000D"/>
<path d="M177.42 133.096C177.123 133.811 176.985 134.474 177.052 135.535C177.066 135.735 177.201 135.928 177.384 136.003C177.683 136.128 177.986 135.961 178.089 135.711C178.117 135.645 178.135 135.555 178.129 135.475C178.054 134.528 178.162 134.125 178.417 133.509C178.528 133.243 178.674 133.031 178.84 132.866C178.744 134.132 179.377 135.661 180.624 136.178C181.555 136.564 182.59 136.135 182.976 135.204C183.589 133.724 182.746 132.186 181.349 131.607C179.77 130.952 178.081 131.499 177.42 133.096ZM181.037 135.18C180.206 134.835 179.663 133.324 180.042 132.41C180.316 132.406 180.62 132.474 180.936 132.605C181.867 132.991 182.33 133.942 181.978 134.79C181.813 135.19 181.436 135.345 181.037 135.18Z" fill="#C2000D"/>
<path d="M169.613 138.564C170.201 138.913 170.906 139.877 171.429 141.005C170.812 140.952 170.178 140.784 169.559 140.416C168.863 140.002 168.579 139.247 168.873 138.752C169.048 138.458 169.32 138.389 169.613 138.564ZM176.371 145.513C176.48 145.578 176.615 145.596 176.754 145.573C177.393 145.45 177.897 145.059 178.219 144.518C179.01 143.187 178.609 141.608 177.278 140.817C175.778 139.925 174.055 140.744 172.596 140.944C172.001 139.585 171.202 138.252 170.165 137.636C169.376 137.166 168.414 137.411 167.945 138.2C167.228 139.407 168.002 140.747 169.007 141.345C169.982 141.924 170.971 142.093 171.875 142.086C172.09 142.675 172.25 143.252 172.336 143.742C172.364 143.906 172.476 144.035 172.599 144.108C172.862 144.265 173.192 144.168 173.34 143.92C173.404 143.812 173.437 143.685 173.415 143.546C173.33 143.056 173.167 142.519 172.989 141.974C173.267 141.929 173.538 141.86 173.785 141.798C175.043 141.478 176.046 141.341 176.726 141.746C177.562 142.242 177.788 143.131 177.291 143.966C177.098 144.291 176.852 144.459 176.54 144.525C176.392 144.562 176.257 144.649 176.183 144.773C176.027 145.036 176.124 145.366 176.371 145.513Z" fill="#C2000D"/>
<path d="M169.685 153.764C169.727 153.798 169.781 153.818 169.834 153.838C170.594 154.129 171.45 153.871 171.937 153.269C173.181 151.73 172.717 149.04 171.233 147.84C170.449 147.207 169.297 147.086 168.562 147.996C167.838 148.891 167.595 150.107 167.693 151.39C167.247 151.168 166.333 150.753 165.959 151.215C165.767 151.453 165.83 151.805 166.04 151.975C166.124 152.043 166.23 152.082 166.334 152.097C166.837 152.133 167.415 152.392 168.059 152.913C168.255 153.071 168.626 153.07 168.819 152.832C168.92 152.706 168.955 152.549 168.925 152.386C168.576 150.784 168.757 149.472 169.402 148.674C169.685 148.324 170.078 148.296 170.554 148.68C171.59 149.518 171.889 151.611 171.097 152.591C170.904 152.829 170.521 152.959 170.216 152.85C170.002 152.771 169.752 152.823 169.605 153.005C169.401 153.257 169.475 153.594 169.685 153.764Z" fill="#C2000D"/>
<path d="M155.22 161.436C155.014 161.14 154.468 161.302 154.173 161.508C153.922 161.684 153.864 162.009 154.039 162.26C154.246 162.555 154.791 162.394 155.086 162.187C155.337 162.012 155.395 161.686 155.22 161.436Z" fill="#C2000D"/>
<path d="M88.3496 166.994C88.5201 166.677 88.1296 166.262 87.8125 166.092C87.5429 165.947 87.226 166.042 87.0812 166.312C86.9108 166.629 87.3012 167.043 87.6184 167.214C87.8879 167.359 88.2048 167.263 88.3496 166.994Z" fill="#C2000D"/>
<path d="M138.413 174.571C138.611 175.15 139.515 174.956 140.009 174.787C141.712 174.206 142.523 172.123 141.971 170.504C141.5 169.124 140.152 168.462 138.772 168.933C137.835 169.253 137.076 169.759 136.247 170.84C136.128 170.995 136.113 171.172 136.171 171.342C136.269 171.631 136.601 171.766 136.856 171.679C136.958 171.644 137.049 171.575 137.117 171.495C137.867 170.516 138.354 170.217 139.121 169.955C139.956 169.67 140.664 170.018 140.949 170.853C141.327 171.96 140.682 173.416 139.66 173.765C139.353 173.87 139.211 173.899 138.989 173.861C138.909 173.85 138.818 173.862 138.75 173.885C138.495 173.972 138.309 174.264 138.413 174.571Z" fill="#C2000D"/>
<path d="M128.028 172.298C127.932 171.73 127.18 171.712 126.488 171.829C124.82 172.113 124.281 173.884 124.516 175.268C124.757 176.688 125.867 177.96 127.482 177.686C129.221 177.39 130.266 175.479 130.54 172.036C130.902 173.417 131.192 174.263 131.62 174.847C131.739 175.01 131.955 175.101 132.15 175.068C132.469 175.013 132.637 174.711 132.592 174.445C132.58 174.374 132.547 174.288 132.5 174.223C131.929 173.444 131.25 170.839 130.346 165.515C130.307 165.284 130.043 165.019 129.723 165.073C129.457 165.118 129.245 165.373 129.275 165.66C130.116 173.843 128.65 176.392 127.302 176.621C126.432 176.768 125.761 176.152 125.581 175.087C125.394 173.987 125.853 173.033 126.669 172.894C127.219 172.801 127.249 172.978 127.586 172.921C127.853 172.876 128.083 172.618 128.028 172.298Z" fill="#C2000D"/>
<path d="M118.099 172.324C117.325 172.33 116.66 172.461 115.71 172.936C115.531 173.028 115.406 173.226 115.408 173.424C115.41 173.748 115.682 173.962 115.952 173.96C116.024 173.96 116.113 173.941 116.185 173.905C117.028 173.466 117.442 173.409 118.108 173.404C118.396 173.402 118.648 173.454 118.865 173.543C117.662 173.948 116.5 175.126 116.511 176.476C116.518 177.484 117.316 178.27 118.324 178.263C119.926 178.251 121.014 176.875 121.002 175.363C120.989 173.653 119.827 172.311 118.099 172.324ZM117.591 176.468C117.584 175.568 118.764 174.479 119.754 174.472C119.863 174.723 119.92 175.029 119.922 175.371C119.93 176.379 119.234 177.176 118.316 177.183C117.884 177.186 117.594 176.9 117.591 176.468Z" fill="#C2000D"/>
<path d="M110.02 167.267C109.927 167.945 109.315 168.969 108.48 169.891C108.289 169.301 108.196 168.653 108.293 167.939C108.403 167.137 108.988 166.581 109.558 166.659C109.897 166.705 110.066 166.928 110.02 167.267ZM106.255 176.199C106.238 176.324 106.274 176.456 106.349 176.576C106.711 177.116 107.268 177.428 107.892 177.513C109.426 177.723 110.723 176.738 110.933 175.204C111.17 173.474 109.744 172.207 108.991 170.942C110.01 169.864 110.927 168.608 111.09 167.414C111.215 166.504 110.614 165.713 109.705 165.589C108.314 165.399 107.382 166.634 107.223 167.793C107.069 168.917 107.299 169.893 107.658 170.723C107.2 171.151 106.731 171.523 106.313 171.793C106.173 171.883 106.098 172.036 106.078 172.178C106.037 172.482 106.255 172.748 106.54 172.787C106.665 172.804 106.795 172.785 106.914 172.711C107.332 172.441 107.763 172.082 108.196 171.705C108.345 171.943 108.514 172.166 108.668 172.369C109.454 173.403 109.97 174.273 109.863 175.058C109.731 176.021 109.002 176.575 108.038 176.443C107.664 176.392 107.414 176.231 107.231 175.97C107.139 175.848 107.006 175.757 106.863 175.738C106.56 175.696 106.294 175.914 106.255 176.199Z" fill="#C2000D"/>
<path d="M96.0508 173.258C96.0359 173.31 96.0383 173.367 96.0407 173.424C96.0696 174.238 96.64 174.926 97.384 175.139C99.2872 175.685 101.583 174.209 102.109 172.375C102.387 171.406 102.05 170.298 100.925 169.975C99.8177 169.657 98.6034 169.908 97.4605 170.498C97.4907 170.001 97.5165 168.997 96.9455 168.834C96.6514 168.749 96.352 168.944 96.2776 169.204C96.2478 169.308 96.2526 169.421 96.2797 169.523C96.4424 170 96.4294 170.633 96.2011 171.429C96.1316 171.671 96.2771 172.013 96.5712 172.097C96.727 172.142 96.8852 172.112 97.0238 172.021C98.3624 171.075 99.641 170.73 100.627 171.013C101.06 171.137 101.24 171.489 101.071 172.077C100.704 173.357 98.8929 174.448 97.6818 174.101C97.3876 174.016 97.1184 173.714 97.099 173.391C97.0894 173.163 96.9437 172.953 96.7188 172.888C96.4073 172.799 96.1253 172.999 96.0508 173.258Z" fill="#C2000D"/>
</svg>
