<svg width="251" height="76" viewBox="0 0 251 76" fill="none" xmlns="http://www.w3.org/2000/svg">
<path d="M1.48204 34.3107C4.05867 29.8092 10.1592 27.4943 14.985 26.4556C20.0407 25.3673 25.3495 25.3547 30.4835 25.6981C35.3425 26.0231 39.8251 27.1648 44.198 29.3022C48.729 31.5169 53.2029 34.9748 57.7403 37.164C60.9719 38.7232 63.4751 40.6547 67.5803 41.6385C69.9625 42.2095 71.3565 42.3256 73.8044 42.4176C77.1319 42.5426 78.9887 42.0498 82.3031 41.7295C87.8642 41.1921 91.6231 39.2618 96.4449 38.9839" stroke="#C2000D" stroke-linecap="round" stroke-linejoin="round"/>
<path d="M94.8347 38.3892C94.8231 38.3637 94.8057 38.3255 94.7814 38.3058C94.4217 37.8543 94.098 37.448 93.7089 36.5945C93.2095 35.4989 93.0769 33.9592 93.6247 33.7095C93.8668 33.5992 94.0708 33.6755 94.1811 33.9175C94.4598 34.529 94.2519 35.0853 94.67 36.0025C94.9951 36.7159 95.6975 36.8727 96.243 36.6856C97.6259 36.2091 97.9088 36.3571 98.0307 36.6246C98.3269 37.2743 97.4465 38.5834 96.5039 39.0131C96.2873 39.1118 96.0359 39.1341 95.7577 39.0301C95.6464 38.9885 95.5398 38.9909 95.4379 39.0374C95.2341 39.1303 95.1371 39.3899 95.23 39.5938C95.2764 39.6957 95.3553 39.7674 95.4666 39.809C95.9302 39.9823 96.4319 39.969 96.8523 39.7774C97.9478 39.278 99.428 37.6647 98.795 36.2762C98.3363 35.2698 97.252 35.4564 95.971 35.8864C95.7173 35.9713 95.5737 35.9599 95.4343 35.6541C95.1556 35.0427 95.3635 34.4863 94.9454 33.5691C94.6493 32.9194 93.926 32.6491 93.2763 32.9452C91.7858 33.6246 92.5149 36.0002 92.9446 36.9429C93.3685 37.8728 93.7641 38.3695 94.1238 38.821C94.2375 38.9692 94.4612 39.0211 94.6268 38.9456C94.8561 38.841 94.9218 38.5803 94.8347 38.3892Z" fill="#C2000D"/>
<path d="M103.79 33.1926C103.776 33.1532 103.749 33.1184 103.721 33.0837C103.332 32.5845 102.658 32.4116 102.093 32.6167C100.645 33.1415 99.8723 35.119 100.378 36.5142C100.645 37.2513 101.363 37.7951 102.219 37.485C103.061 37.1797 103.712 36.4675 104.162 35.5745C104.37 35.9012 104.812 36.5452 105.246 36.3878C105.47 36.3067 105.57 36.0472 105.498 35.8498C105.469 35.7708 105.414 35.7014 105.351 35.6499C105.031 35.4235 104.75 35.0189 104.531 34.4135C104.464 34.2292 104.216 34.0806 103.993 34.1617C103.874 34.2046 103.788 34.2954 103.742 34.4162C103.331 35.6226 102.683 36.4233 101.933 36.6952C101.604 36.8145 101.33 36.6755 101.168 36.228C100.815 35.254 101.457 33.7404 102.379 33.4064C102.602 33.3253 102.91 33.3927 103.07 33.5878C103.18 33.7267 103.367 33.7926 103.539 33.7306C103.776 33.6448 103.862 33.3901 103.79 33.1926Z" fill="#C2000D"/>
<path d="M113.33 32.5655C113.249 32.5855 113.174 32.6328 113.116 32.6903C112.468 33.3976 112.07 33.5965 111.458 33.747C110.792 33.911 110.267 33.5933 110.103 32.9272C109.983 32.4378 110.074 31.6945 111.194 30.741C111.313 30.6396 111.372 30.4667 111.335 30.3171C111.275 30.0724 111.031 29.9595 110.827 30.0097L110.759 30.0264C109.222 30.6931 108.235 32.1903 107.684 33.3495C107.567 32.7006 107.421 31.987 107.257 31.3208C107.203 31.1033 106.966 30.9599 106.748 31.0134C106.531 31.0669 106.387 31.3041 106.441 31.5216C106.799 32.9762 107.074 34.7972 107.056 35.1333C107.052 35.1774 107.062 35.2182 107.072 35.259C107.123 35.4629 107.322 35.63 107.581 35.5664C107.744 35.5263 107.87 35.3943 107.898 35.2145C107.919 35.0074 108.335 33.593 109.232 32.3773C109.208 32.6285 109.23 32.8968 109.287 33.1279C109.558 34.229 110.558 34.8337 111.659 34.5627C112.407 34.3787 113.029 34.038 113.745 33.2563C113.848 33.1446 113.872 33.0089 113.838 32.8729C113.781 32.6418 113.534 32.5153 113.33 32.5655Z" fill="#C2000D"/>
<path d="M119.688 29.7582C119.684 29.7164 119.666 29.6759 119.648 29.6354C119.395 29.0551 118.786 28.7203 118.187 28.7784C116.654 28.9268 115.415 30.6504 115.558 32.1275C115.633 32.9078 116.194 33.613 117.1 33.5253C117.991 33.4389 118.798 32.9107 119.457 32.1577C119.577 32.5258 119.845 33.2594 120.305 33.2149C120.541 33.1919 120.702 32.9653 120.682 32.7563C120.674 32.6727 120.638 32.5918 120.59 32.5262C120.336 32.2273 120.164 31.7656 120.102 31.1246C120.083 30.9296 119.88 30.7241 119.644 30.7471C119.518 30.7592 119.412 30.8258 119.338 30.9314C118.639 31.9977 117.813 32.6123 117.019 32.6892C116.67 32.723 116.44 32.5203 116.394 32.0465C116.294 31.0153 117.293 29.7089 118.268 29.6144C118.505 29.5915 118.786 29.7331 118.892 29.9619C118.964 30.1237 119.13 30.2342 119.311 30.2167C119.562 30.1924 119.709 29.9672 119.688 29.7582Z" fill="#C2000D"/>
<path d="M122.856 28.4389C122.675 28.4569 122.52 28.5989 122.483 28.7856C122.406 29.2856 122.391 30.1312 122.465 30.8696C122.562 31.8448 122.624 32.1903 122.805 32.8757C122.854 33.0819 123.062 33.2019 123.258 33.1825C123.508 33.1575 123.655 32.9319 123.634 32.723C123.573 32.11 123.421 31.8578 123.341 31.1905C124.143 31.0544 124.946 30.7776 125.496 30.2304L125.53 30.5648C125.607 31.3449 125.863 32.642 127.131 32.516C127.562 32.473 127.916 32.2127 128.205 31.8604C128.28 31.7685 128.312 31.6668 128.301 31.5554C128.279 31.3325 128.065 31.1569 127.842 31.179C127.73 31.1901 127.637 31.2416 127.562 31.3335C127.348 31.5939 127.173 31.6676 127.047 31.6801C126.643 31.7202 126.454 31.3733 126.366 30.4817L126.185 28.6706C126.166 28.4756 125.977 28.2693 125.726 28.2942C125.531 28.3136 125.378 28.4696 125.355 28.6688C125.256 29.6494 124.42 30.1546 123.272 30.3532C123.244 29.7932 123.271 29.2137 123.313 28.9281C123.323 28.8849 123.318 28.8431 123.316 28.8153C123.295 28.6063 123.107 28.414 122.856 28.4389Z" fill="#C2000D"/>
<path d="M132.907 28.2117C132.89 27.736 132.173 27.6785 131.767 27.6936C130.368 27.7454 129.299 29.116 129.348 30.4451C129.39 31.5783 130.246 32.3732 131.379 32.3311C132.149 32.3026 132.827 32.0953 133.687 31.475C133.81 31.3864 133.861 31.2584 133.856 31.1185C133.847 30.8807 133.63 30.7066 133.421 30.7144C133.337 30.7175 133.254 30.7486 133.185 30.7932C132.408 31.3544 131.978 31.4684 131.348 31.4917C130.662 31.5171 130.213 31.0995 130.187 30.414C130.153 29.5046 130.959 28.5641 131.799 28.533C132.05 28.5236 132.163 28.5335 132.32 28.6117C132.377 28.6376 132.447 28.649 132.503 28.647C132.713 28.6392 132.917 28.4635 132.907 28.2117Z" fill="#C2000D"/>
<path d="M141.533 31.3791C141.156 31.3506 141.11 31.7683 140.65 31.7335C140.063 31.6891 139.934 30.0647 140.034 28.7385C140.051 28.5151 139.87 28.3049 139.647 28.288C139.423 28.2711 139.242 28.4399 139.201 28.6193C139.17 28.8416 138.584 31.5772 137.16 31.4694C136.434 31.4145 136.077 30.9382 136.138 30.1285C136.207 29.2211 136.356 29.1061 136.373 28.8827C136.388 28.6733 136.237 28.4512 135.985 28.4322C135.818 28.4195 135.657 28.5056 135.573 28.6818C135.555 28.7366 135.368 29.1717 135.3 30.0652C135.214 31.2099 135.868 32.2141 137.096 32.3071C138.143 32.3863 138.828 31.6939 139.246 30.9815C139.378 31.6513 139.707 32.5046 140.586 32.5711C141.298 32.6249 141.743 32.1251 141.788 32.0864C141.849 32.0208 141.899 31.9263 141.906 31.8285C141.922 31.6191 141.756 31.396 141.533 31.3791Z" fill="#C2000D"/>
<path d="M144.817 30.4135C144.912 30.0187 145.659 29.6081 146.136 29.7228C146.394 29.785 146.508 29.9708 146.446 30.2294C146.334 30.6922 145.883 31.0731 145.538 31.307L145.47 31.2906C144.953 31.1661 144.716 30.8354 144.817 30.4135ZM143.209 32.9064C143.25 32.9162 143.277 32.9227 143.321 32.919C143.963 32.8862 145.013 32.5917 145.749 32.1642C146.313 32.1559 146.831 31.9204 147.253 31.6621L147.24 31.7165C146.899 33.1321 146.997 33.919 147.008 33.9936C147.037 34.1733 147.181 34.2943 147.33 34.3304C147.575 34.3893 147.788 34.2245 147.837 34.0203C147.899 33.7617 147.709 33.3559 148.056 31.9131C148.259 31.0692 148.673 30.5494 148.718 30.3589C148.768 30.1547 148.67 29.9009 148.412 29.8386C148.262 29.8026 148.106 29.8515 148.005 29.9712C148.005 29.9712 147.672 30.3375 147.166 30.7053C147.203 30.6133 147.239 30.5213 147.262 30.426C147.429 29.7318 147.026 29.0732 146.332 28.9061C145.447 28.6931 144.233 29.2505 144.001 30.2169C143.847 30.8566 144.11 31.4384 144.575 31.7806C144.084 31.9649 143.599 32.0642 143.294 32.0771C143.104 32.0889 142.942 32.2228 142.899 32.3997C142.84 32.6447 143.005 32.8572 143.209 32.9064Z" fill="#C2000D"/>
<path d="M157.407 34.3908C157.576 34.4579 157.766 34.3977 157.88 34.2622C158.046 34.072 158.355 34.014 158.576 34.1019C158.967 34.2569 159.113 34.6465 158.917 35.1409C158.555 36.0518 157.023 36.6483 156.06 36.2659C155.657 36.1058 155.236 35.3061 155.949 33.5105C157.391 29.8803 158.564 29.126 158.98 29.2914C159.201 29.3792 159.397 29.7583 159.191 30.2787C158.886 31.0464 158.514 31.1097 158.496 31.1176C158.335 31.144 158.205 31.2431 158.154 31.3732C158.061 31.6074 158.194 31.8411 158.389 31.9186C158.441 31.9392 158.511 31.9521 158.574 31.9467C158.711 31.9412 159.496 31.7858 159.971 30.5888C160.281 29.8081 160.11 28.8362 159.29 28.5107C157.885 27.9526 156.517 29.8044 155.168 33.2005C154.435 35.0481 154.592 36.5868 155.75 37.0466C157.129 37.5943 159.129 36.8822 159.698 35.451C160.018 34.6443 159.797 33.6829 158.886 33.3212C158.327 33.099 157.649 33.2515 157.244 33.7386C157.216 33.7725 157.187 33.8064 157.172 33.8454C157.094 34.0406 157.173 34.2978 157.407 34.3908Z" fill="#C2000D"/>
<path d="M169.38 38.0333C169.692 38.1126 169.815 37.855 170.399 38.0033C170.792 38.1033 171.137 38.5087 170.972 39.16C170.727 40.1233 169.471 40.801 168.454 40.5424C167.721 40.3562 167.328 39.2884 167.579 38.2979C168.014 36.5883 169.263 35.7069 169.297 35.6866C169.386 35.6225 169.434 35.5479 169.458 35.453C169.513 35.2359 169.371 34.9976 169.154 34.9425C169.046 34.9149 168.927 34.928 168.821 35.0023C168.787 35.0225 167.289 36.0286 166.765 38.091C166.465 39.2715 166.808 40.991 168.247 41.3565C169.671 41.7185 171.41 40.8458 171.786 39.3668C172.055 38.3085 171.461 37.4064 170.606 37.1891C169.941 37.0202 169.404 37.2014 169.339 37.2284C169.21 37.2822 169.107 37.4006 169.073 37.5363C169.014 37.767 169.177 37.9815 169.38 38.0333ZM173.839 35.2662C173.894 35.0491 173.752 34.8109 173.535 34.7557C172.043 34.3764 170.509 33.9868 167.679 33.7008C167.468 33.6762 167.274 33.8146 167.223 34.0182C167.16 34.2624 167.323 34.477 167.526 34.5287L167.58 34.5425C170.357 34.8147 171.822 35.1871 173.301 35.5629L173.328 35.5698C173.546 35.625 173.784 35.4833 173.839 35.2662Z" fill="#C2000D"/>
<path d="M175.498 43.2654C176.083 43.4078 176.61 43.435 177.417 43.2567C177.569 43.2218 177.701 43.0953 177.737 42.9457C177.797 42.7009 177.632 42.488 177.428 42.4383C177.374 42.4251 177.303 42.4221 177.242 42.4361C176.523 42.607 176.2 42.5717 175.697 42.4493C175.479 42.3963 175.299 42.3092 175.152 42.2014C176.136 42.1239 177.235 41.4548 177.484 40.4346C177.669 39.6728 177.216 38.9287 176.454 38.7433C175.244 38.4487 174.162 39.2807 173.884 40.4234C173.57 41.7157 174.192 42.9477 175.498 43.2654ZM176.667 40.236C176.502 40.9162 175.406 41.5139 174.657 41.3319C174.622 41.1216 174.638 40.8804 174.7 40.6219C174.886 39.8602 175.562 39.3907 176.256 39.5595C176.582 39.6389 176.747 39.9095 176.667 40.236Z" fill="#C2000D"/>
<path d="M183.693 39.9408C183.512 39.9263 183.348 40.0397 183.279 40.2027C182.552 41.9283 181.397 43.5496 180.881 43.5084C180.755 43.4984 180.578 43.4281 180.36 43.1719C180.283 43.0815 180.188 43.0318 180.077 43.0229C179.853 43.0051 179.642 43.1849 179.625 43.4082C179.616 43.5198 179.65 43.6209 179.727 43.7113C180.022 44.0579 180.381 44.3112 180.814 44.3457C181.651 44.4125 182.303 43.6359 182.829 42.8493C182.939 43.5883 183.404 44.2715 184.244 44.479L184.314 44.4845C184.523 44.5012 184.746 44.3505 184.766 44.0993C184.782 43.9039 184.658 43.6974 184.45 43.6528C183.872 43.5083 183.588 43.0222 183.644 42.3244C183.706 41.5429 183.9 41.0527 184.058 40.4755C184.06 40.4476 184.076 40.4208 184.079 40.3929C184.095 40.1835 183.944 39.9608 183.693 39.9408Z" fill="#C2000D"/>
<path d="M187.53 40.6953C187.39 40.6983 187.266 40.7571 187.184 40.8849C186.873 41.3818 186.718 41.9594 186.73 42.5333C186.757 43.737 187.672 44.6131 188.876 44.5866C190.346 44.5544 191.65 43.3914 191.617 41.8658C191.592 40.7321 190.748 39.9244 189.614 39.9493C189.208 39.9582 188.218 40.134 188.23 40.6799C188.235 40.9178 188.449 41.0952 188.659 41.0906C188.743 41.0887 188.827 41.0729 188.896 41.0154C189.088 40.8711 189.353 40.7953 189.633 40.7891C190.319 40.774 190.762 41.1984 190.777 41.8842C190.799 42.878 189.907 43.7238 188.858 43.7468C188.102 43.7634 187.587 43.2706 187.57 42.5148C187.561 42.1089 187.664 41.7006 187.895 41.3454C187.935 41.2745 187.961 41.1899 187.959 41.1059C187.955 40.896 187.768 40.69 187.53 40.6953Z" fill="#C2000D"/>
<path d="M196.972 44.0378C196.963 44.4858 197.535 44.6092 198.081 44.6201C199.397 44.6464 200.066 43.3716 200.088 42.2798C200.111 41.16 199.447 40.0265 198.173 40.001C196.802 39.9736 195.725 41.2824 195.015 43.8727C194.939 42.765 194.841 42.0769 194.599 41.5679C194.532 41.4265 194.38 41.3255 194.226 41.3224C193.974 41.3174 193.802 41.524 193.798 41.7339C193.797 41.7899 193.809 41.8602 193.836 41.9167C194.159 42.5953 194.299 44.6845 194.215 48.8837C194.211 49.0657 194.375 49.307 194.626 49.312C194.836 49.3162 195.036 49.1522 195.054 48.9285C195.602 42.5542 197.093 40.8196 198.157 40.8409C198.842 40.8546 199.265 41.4232 199.248 42.263C199.231 43.1308 198.742 43.7932 198.098 43.7803C197.664 43.7716 197.667 43.6316 197.401 43.6263C197.191 43.6221 196.977 43.7859 196.972 44.0378Z" fill="#C2000D"/>
<path d="M204.473 44.2438C205.065 44.1333 205.556 43.9419 206.219 43.4478C206.343 43.3533 206.411 43.184 206.383 43.0326C206.337 42.7849 206.1 42.6583 205.893 42.6968C205.838 42.7071 205.772 42.7337 205.722 42.7715C205.137 43.2226 204.828 43.323 204.319 43.4181C204.099 43.4592 203.898 43.4539 203.72 43.4159C204.586 42.941 205.313 41.8794 205.12 40.8472C204.977 40.0766 204.258 39.5841 203.487 39.728C202.262 39.9568 201.618 41.1595 201.834 42.3155C202.078 43.6229 203.152 44.4906 204.473 44.2438ZM204.295 41.0014C204.423 41.6895 203.669 42.6849 202.912 42.8263C202.794 42.649 202.709 42.4228 202.66 42.1613C202.516 41.3906 202.94 40.6848 203.641 40.5538C203.972 40.4921 204.233 40.6712 204.295 41.0014Z" fill="#C2000D"/>
<path d="M207.356 38.2706C207.239 38.3176 207.143 38.4165 207.102 38.5388C207.084 38.6064 206.923 39.1084 207.164 39.7059C207.43 40.3684 208.14 40.6714 208.803 40.4051C209.179 40.2537 209.493 40.0218 209.719 39.7952C209.759 40.3827 209.869 40.8063 210 41.131C210.24 41.7286 210.95 42.2577 211.691 41.9601C212.094 41.7982 212.361 41.4494 212.539 41.0306C212.586 40.9213 212.588 40.8147 212.547 40.7108C212.463 40.503 212.208 40.3942 212 40.4777C211.896 40.5195 211.821 40.595 211.775 40.7043C211.643 41.0139 211.495 41.1337 211.378 41.1807C211.209 41.2486 210.904 41.1295 210.779 40.8178C210.602 40.3761 210.424 39.6329 210.67 38.07C210.689 38.0024 210.67 37.9192 210.644 37.8543C210.566 37.6594 210.332 37.5272 210.098 37.6212C209.981 37.6682 209.898 37.7619 209.849 37.9024C209.831 37.97 209.528 39.208 208.489 39.6257C208.242 39.7249 208.042 39.6395 207.943 39.3927C207.755 38.925 208.015 38.8206 207.889 38.5088C207.811 38.314 207.577 38.1818 207.356 38.2706Z" fill="#C2000D"/>
<path d="M216.283 39.9544C216.836 39.7167 217.274 39.4221 217.812 38.7948C217.913 38.6752 217.942 38.495 217.881 38.3535C217.782 38.122 217.522 38.0505 217.329 38.1334C217.278 38.1556 217.219 38.1961 217.179 38.2439C216.707 38.8124 216.428 38.9781 215.952 39.1826C215.746 39.271 215.549 39.3098 215.367 39.3119C216.107 38.6585 216.584 37.4632 216.17 36.4985C215.86 35.7782 215.051 35.4554 214.331 35.765C213.186 36.2569 212.821 37.5716 213.286 38.6521C213.811 39.874 215.048 40.485 216.283 39.9544ZM215.398 36.8301C215.674 37.4733 215.157 38.6098 214.45 38.9138C214.295 38.7669 214.162 38.5648 214.057 38.3204C213.748 37.6001 214.006 36.8186 214.662 36.5367C214.971 36.4041 215.265 36.5214 215.398 36.8301Z" fill="#C2000D"/>
<path d="M218.359 33.8545C218.195 33.933 218.097 34.1192 218.125 34.3075C218.223 34.804 218.497 35.604 218.817 36.2734C219.24 37.1575 219.417 37.4611 219.82 38.0443C219.935 38.2216 220.173 38.2634 220.35 38.1788C220.577 38.0701 220.638 37.8081 220.547 37.6187C220.281 37.063 220.053 36.8774 219.75 36.2772C220.459 35.8763 221.119 35.3431 221.451 34.6413L221.596 34.9444C221.934 35.6517 222.616 36.7845 223.765 36.2348C224.157 36.0475 224.401 35.6823 224.552 35.2529C224.592 35.1409 224.588 35.0344 224.539 34.9333C224.443 34.7312 224.181 34.639 223.979 34.7356C223.878 34.784 223.808 34.8642 223.768 34.9762C223.656 35.2936 223.516 35.4226 223.403 35.477C223.036 35.6522 222.74 35.3903 222.354 34.582L221.568 32.9401C221.484 32.7633 221.236 32.6337 221.008 32.7424C220.831 32.827 220.74 33.0258 220.787 33.2207C221.027 34.1767 220.413 34.9362 219.401 35.5134C219.184 34.9961 219.012 34.4421 218.955 34.1593C218.949 34.1153 218.931 34.0774 218.919 34.0522C218.828 33.8627 218.586 33.7458 218.359 33.8545Z" fill="#C2000D"/>
<path d="M227.846 30.3499C227.665 29.9097 226.973 30.1037 226.597 30.2581C225.303 30.7908 224.773 32.4469 225.279 33.6769C225.71 34.7256 226.789 35.1752 227.837 34.7438C228.549 34.4508 229.115 34.0215 229.707 33.1421C229.791 33.0165 229.795 32.8787 229.742 32.7492C229.651 32.5291 229.388 32.4407 229.193 32.5206C229.116 32.5525 229.049 32.6104 229 32.6759C228.464 33.4715 228.1 33.7272 227.518 33.9669C226.883 34.2279 226.317 33.9917 226.056 33.3573C225.71 32.5157 226.14 31.3546 226.917 31.035C227.15 30.9391 227.259 30.9094 227.433 30.9285C227.496 30.9331 227.566 30.9194 227.618 30.8981C227.812 30.8182 227.942 30.583 227.846 30.3499Z" fill="#C2000D"/>
<path d="M236.7 27.7945C236.631 27.8426 236.578 27.9135 236.545 27.988C236.194 28.8807 235.894 29.2093 235.378 29.5695C234.815 29.9617 234.21 29.8537 233.818 29.2909C233.53 28.8774 233.348 28.151 234.052 26.8587C234.127 26.7213 234.119 26.5389 234.031 26.4125C233.887 26.2058 233.618 26.188 233.446 26.3081L233.389 26.3481C232.193 27.5223 231.81 29.274 231.712 30.5538C231.37 29.9899 230.977 29.3766 230.585 28.8138C230.457 28.63 230.184 28.5813 230 28.7093C229.816 28.8374 229.768 29.1103 229.896 29.294C230.752 30.5231 231.663 32.1238 231.767 32.444C231.779 32.4865 231.803 32.5209 231.827 32.5554C231.947 32.7277 232.194 32.8119 232.412 32.6599C232.55 32.5638 232.62 32.3954 232.581 32.2175C232.527 32.0167 232.407 30.5472 232.808 29.0903C232.875 29.3336 232.993 29.5759 233.129 29.7711C233.777 30.7015 234.927 30.907 235.858 30.2586C236.49 29.8184 236.948 29.2769 237.336 28.2902C237.391 28.1492 237.365 28.0139 237.285 27.899C237.149 27.7037 236.873 27.6745 236.7 27.7945Z" fill="#C2000D"/>
<path d="M241.217 26.4863C241.713 26.1445 242.083 25.7696 242.487 25.0486C242.563 24.9115 242.556 24.7291 242.469 24.6024C242.325 24.3949 242.057 24.3759 241.884 24.4952C241.838 24.527 241.789 24.5783 241.758 24.6331C241.408 25.2833 241.166 25.5008 240.74 25.7949C240.556 25.9222 240.37 25.9989 240.192 26.0367C240.79 25.2505 241.022 23.9847 240.426 23.1204C239.98 22.4751 239.123 22.3179 238.478 22.7631C237.453 23.4707 237.354 24.8315 238.022 25.7995C238.777 26.8942 240.111 27.2496 241.217 26.4863ZM239.734 23.5974C240.132 24.1736 239.848 25.3898 239.214 25.827C239.034 25.7134 238.864 25.5414 238.713 25.3224C238.268 24.6771 238.367 23.86 238.955 23.4545C239.232 23.2637 239.543 23.3209 239.734 23.5974Z" fill="#C2000D"/>
</svg>
