<svg width="204" height="92" viewBox="0 0 204 92" fill="none" xmlns="http://www.w3.org/2000/svg">
<path d="M197 1C188.799 7.27648 179.701 12.3197 170.329 15.9203C168.023 16.806 165.793 17.0151 163.458 17.6142C160.801 18.2961 157.735 17.8665 155 17.8665" stroke="#C2000D" stroke-linecap="round" stroke-linejoin="round"/>
<path d="M201.233 2.19343C197.256 6.57267 192.123 8.12754 187.435 11.246C183.949 13.5647 179.131 14.2216 175.14 15.0716C171.177 15.9158 167.126 16.2556 163.199 17.1517C160.512 17.7648 157.959 18.6869 155.189 18.8527" stroke="#C2000D" stroke-linecap="round" stroke-linejoin="round"/>
<path d="M202.949 4.02295C199.355 9.2702 193.971 13.898 188.711 17.4092C181.679 22.1037 173.789 24.8212 168.547 31.8172C163.365 38.7315 160.616 46.9798 156.148 54.2979C153.304 58.9572 149.891 62.3684 145.623 65.6405" stroke="#C2000D" stroke-linecap="round" stroke-linejoin="round"/>
<path d="M0.849121 91.181C18.3752 67.8129 49.5066 65.2495 76.5123 64.9033C84.2672 64.8039 92.7821 61.9889 99.3697 58.1462C106.628 53.9124 112.304 47.7303 119.891 43.8394C129.408 38.9591 139.359 36.1102 147.963 29.6578C150.926 27.4356 153.402 23.5386 156.263 22.1082" stroke="#C2000D" stroke-linecap="round" stroke-linejoin="round"/>
</svg>
