<?xml version="1.0" standalone="no"?>
<!DOCTYPE svg PUBLIC "-//W3C//DTD SVG 1.1//EN" "http://www.w3.org/Graphics/SVG/1.1/DTD/svg11.dtd" >
<svg xmlns="http://www.w3.org/2000/svg" xmlns:xlink="http://www.w3.org/1999/xlink" version="1.1">
<metadata>
Created by FontForge 20170924 at Sun Jul 28 15:54:07 2019
 By www-data
Copyright (c) 2019  by Slava Antipov. All rights reserved.
</metadata>
<defs>
<font id="Aqum" horiz-adv-x="1536" >
  <font-face 
    font-family="Aqum"
    font-weight="700"
    font-stretch="normal"
    units-per-em="2000"
    panose-1="2 0 5 0 0 0 0 0 0 0"
    ascent="1600"
    descent="-400"
    x-height="1489"
    cap-height="1497"
    bbox="-117 -590 2127.16 1969"
    underline-thickness="150"
    underline-position="-325"
    unicode-range="U+001D-0451"
  />
<missing-glyph horiz-adv-x="0" 
 />
    <glyph glyph-name=".notdef" horiz-adv-x="0" 
 />
    <glyph glyph-name=".null" horiz-adv-x="0" 
 />
    <glyph glyph-name=".null" horiz-adv-x="0" 
 />
    <glyph glyph-name="nonmarkingreturn" horiz-adv-x="350" 
 />
    <glyph glyph-name="space" unicode=" " horiz-adv-x="866" 
 />
    <glyph glyph-name="exclam" unicode="!" horiz-adv-x="631" 
d="M204 1450q-46 -46 -46 -111v-788q0 -65 46 -111t112 -46q65 0 111 46t46 111v788q0 65 -46 111t-111 46q-66 0 -112 -46zM427 269q-46 46 -111 46q-66 0 -112 -46t-46 -112q0 -65 46 -111t112 -46q65 0 111 46t46 111q0 66 -46 112z" />
    <glyph glyph-name="quotedbl" unicode="&#x22;" horiz-adv-x="945" 
d="M125 1454q-46 -46 -46 -112v-196q0 -66 46 -112t112 -46q65 0 111 46t46 112v196q0 66 -46 112t-111 46q-66 0 -112 -46zM598 1454q-46 -46 -46 -112v-196q0 -66 46 -112t112 -46q65 0 111 46t46 112v196q0 66 -46 112t-111 46q-66 0 -112 -46z" />
    <glyph glyph-name="numbersign" unicode="#" horiz-adv-x="1654" 
d="M903 611h-225l73 275h226zM1418 886q65 0 111 46q47 47 47 112t-47 111q-46 46 -111 46h-31l26 98q17 63 -16 119q-33 57 -96 73q-63 17 -119 -15q-57 -33 -74 -96l-47 -179h-226l26 98q17 63 -16 119q-32 57 -95 73q-63 17 -120 -15q-56 -33 -73 -96l-48 -179h-154
q-66 0 -112 -46t-46 -111t46 -112q46 -46 112 -46h70l-73 -275h-115q-66 0 -112 -47q-46 -46 -46 -111t46 -111q46 -47 112 -47h31l-26 -97q-17 -63 16 -119q32 -57 95 -74q21 -5 41 -5q53 0 95 32q43 33 57 85l48 178h225l-26 -97q-17 -63 16 -119q33 -57 96 -74
q20 -5 41 -5q52 0 95 32q43 33 57 85l47 178h155q65 0 111 47q46 46 46 111t-46 111q-46 47 -111 47h-71l74 275h115z" />
    <glyph glyph-name="dollar" unicode="$" horiz-adv-x="1457" 
d="M571 904h-39q-57 0 -97 40q-41 41 -41 98t41 97q40 40 97 40h39v-275zM926 589q57 0 97 -41q41 -40 41 -97t-41 -98q-40 -40 -97 -40h-40v276h40zM1221 1179q65 0 112 47q46 46 46 111t-46 111q-47 47 -112 47h-335v39q0 65 -46 111t-111 46t-112 -46q-46 -46 -46 -111
v-39h-39q-187 0 -320 -133t-133 -320q0 -188 133 -320q133 -133 320 -133h39v-276h-334q-66 0 -112 -46t-46 -112q0 -65 46 -111t112 -46h334v-39q0 -66 46 -112q47 -46 112 -46t111 46t46 112v39h40q187 0 320 133t133 320t-133 320t-320 133h-40v275h335z" />
    <glyph glyph-name="percent" unicode="%" horiz-adv-x="1772" 
d="M405 26q-54 37 -67 101t23 118l788 1181q36 55 100 68q64 12 119 -24q54 -36 67 -100t-24 -118l-787 -1182q-47 -70 -132 -70q-47 0 -87 26zM1244 450q-23 -24 -23 -56q0 -33 23 -56t56 -23q32 0 56 23q23 23 23 56q0 32 -23 56q-24 23 -56 23q-33 0 -56 -23zM1022 115
q-116 116 -116 279t116 278q115 116 278 116t278 -116q116 -115 116 -278t-116 -279q-115 -115 -278 -115t-278 115zM417 1158q-23 -23 -23 -55q0 -33 23 -56t56 -23q32 0 56 23q23 23 23 56q0 32 -23 55q-24 24 -56 24q-33 0 -56 -24zM194 824q-115 116 -115 279t115 278
q116 116 279 116t278 -116q116 -115 116 -278t-116 -279q-115 -115 -278 -115t-279 115z" />
    <glyph glyph-name="ampersand" unicode="&#x26;" horiz-adv-x="1615" 
d="M1064 453q0 -57 -41 -98q-40 -40 -97 -40h-394q-57 0 -97 40q-41 41 -41 98t41 97q40 41 97 41h532v-138zM532 906q-57 0 -97 40q-41 41 -41 98t41 97q40 41 97 41h492q65 0 112 46q46 46 46 111t-46 111q-47 47 -112 47h-492q-187 0 -320 -133t-133 -320
q0 -168 110 -296q-110 -127 -110 -295q0 -187 133 -320t320 -133h394q187 0 320 133t133 320v138h39q65 0 111 46q47 46 47 111q0 66 -47 112q-46 46 -111 46h-886z" />
    <glyph glyph-name="quotesingle" unicode="'" horiz-adv-x="473" 
d="M125 1454q-46 -46 -46 -112v-196q0 -66 46 -112t112 -46q65 0 111 46t46 112v196q0 66 -46 112t-111 46q-66 0 -112 -46z" />
    <glyph glyph-name="parenleft" unicode="(" horiz-adv-x="709" 
d="M624 1424q46 46 46 111t-46 111t-112 46q-146 0 -250 -103q-104 -104 -104 -251v-1182q0 -146 104 -250t250 -104q66 0 112 46t46 112q0 65 -46 111t-112 46q-16 0 -27 12q-12 11 -12 27v1182q0 16 12 28q11 11 27 11q66 0 112 47z" />
    <glyph glyph-name="parenright" unicode=")" horiz-adv-x="709" 
d="M87 1646q-46 -46 -46 -111t46 -111q46 -47 112 -47q16 0 27 -11q12 -12 12 -28v-1182q0 -16 -12 -27q-11 -12 -27 -12q-66 0 -112 -46t-46 -111q0 -66 46 -112t112 -46q146 0 250 104t104 250v1182q0 147 -104 251q-104 103 -250 103q-66 0 -112 -46z" />
    <glyph glyph-name="asterisk" unicode="*" horiz-adv-x="788" 
d="M618 1182l46 46q46 46 46 111t-46 111q-46 47 -111 47q-66 0 -112 -47l-46 -46l-46 46q-46 47 -111 47q-66 0 -112 -47q-46 -46 -46 -111t46 -111l46 -46l-46 -47q-46 -46 -46 -111t46 -111q46 -47 112 -47q65 0 111 47l46 46l46 -46q46 -47 112 -47q65 0 111 47
q46 46 46 111t-46 111z" />
    <glyph glyph-name="plus" unicode="+" horiz-adv-x="1260" 
d="M789 906v236q0 65 -46 112q-46 46 -112 46q-65 0 -111 -46q-46 -47 -46 -112v-236h-236q-66 0 -112 -46t-46 -112q0 -65 46 -111t112 -46h236v-237q0 -65 46 -111t111 -46q66 0 112 46t46 111v237h236q65 0 112 46q46 46 46 111q0 66 -46 112q-47 46 -112 46h-236z" />
    <glyph glyph-name="comma" unicode="," horiz-adv-x="473" 
d="M39 -176q-56 34 -72 97q-16 64 18 120l118 197q34 56 97 71q63 16 119 -17q56 -34 72 -97q16 -64 -18 -120l-118 -197q-46 -76 -135 -76q-44 0 -81 22z" />
    <glyph glyph-name="hyphen" unicode="-" horiz-adv-x="984" 
d="M197 906q-66 0 -112 -46t-46 -112q0 -65 46 -111t112 -46h590q66 0 112 46t46 111q0 66 -46 112t-112 46h-590z" />
    <glyph glyph-name="period" unicode="." horiz-adv-x="473" 
d="M348 269q-46 46 -112 46q-65 0 -111 -46t-46 -112q0 -65 46 -111t111 -46q66 0 112 46t46 111q0 66 -46 112z" />
    <glyph glyph-name="slash" unicode="/" horiz-adv-x="710" 
d="M120 -193q-64 15 -97 71q-34 56 -18 120l394 1575q16 64 72 97q56 34 119 18t97 -72q33 -56 18 -119l-394 -1576q-14 -53 -57 -86q-42 -33 -96 -33q-20 0 -38 5z" />
    <glyph glyph-name="zero" unicode="0" horiz-adv-x="1615" 
d="M1143 453q0 -57 -41 -98q-40 -40 -97 -40h-394q-57 0 -98 40q-40 41 -40 98v591q0 57 40 97q41 41 98 41h394q57 0 97 -41q41 -40 41 -97v-591zM611 1497q-187 0 -320 -133t-133 -320v-591q0 -187 133 -320t320 -133h394q187 0 320 133t133 320v591q0 187 -133 320
t-320 133h-394z" />
    <glyph glyph-name="one" unicode="1" horiz-adv-x="709" 
d="M198 1497q-66 0 -112 -47q-46 -46 -46 -111t46 -111t112 -46h39v-1024q0 -66 46 -112t111 -46q66 0 112 46t46 112v1181q0 65 -46 111q-46 47 -112 47h-196z" />
    <glyph glyph-name="two" unicode="2" horiz-adv-x="1457" 
d="M1229 1347q-149 150 -360 150h-280q-211 0 -361 -150q-149 -149 -149 -360q0 -65 46 -112q46 -46 112 -46q65 0 111 46q46 47 46 112q0 80 57 137q57 58 138 58h280q80 0 138 -58q57 -57 57 -137q0 -60 -34 -110q-33 -49 -89 -71l-580 -232q-129 -51 -205 -165
q-77 -113 -77 -251q0 -66 46 -112t112 -46h984q65 0 112 46q46 46 46 112q0 65 -46 111q-47 46 -112 46h-659l496 198q146 59 233 188q88 128 88 286q0 211 -150 360z" />
    <glyph glyph-name="three" unicode="3" horiz-adv-x="1457" 
d="M926 0q187 0 320 133t133 320q0 166 -108 293q-106 125 -267 153l329 329q33 33 43 80q9 47 -9 91q-19 45 -58 71q-40 27 -88 27h-984q-66 0 -112 -47q-46 -46 -46 -111t46 -111t112 -46h604l-322 -322q-34 -34 -43 -81t9 -91t58 -71q40 -26 87 -26h296q57 0 97 -41
q41 -40 41 -97t-41 -98q-40 -40 -97 -40h-689q-66 0 -112 -46t-46 -111q0 -66 46 -112t112 -46h689z" />
    <glyph glyph-name="four" unicode="4" 
d="M1111 1450q-46 -46 -46 -111v-630h-600l215 575q23 61 -4 120q-27 60 -88 83t-120 -4q-60 -27 -83 -89l-295 -787q-29 -78 18 -145q47 -68 130 -68h827v-236q0 -66 46 -112t111 -46t112 46q46 46 46 112v1181q0 65 -46 111q-47 47 -112 47t-111 -47z" />
    <glyph glyph-name="five" unicode="5" horiz-adv-x="1457" 
d="M394 906v276h748q66 0 112 46t46 111t-46 111q-46 47 -112 47h-905q-66 0 -112 -47q-46 -46 -46 -111v-591q0 -65 46 -111t112 -46h689q57 0 97 -41q41 -40 41 -97t-41 -98q-40 -40 -97 -40h-689q-66 0 -112 -46t-46 -111q0 -66 46 -112t112 -46h689q187 0 320 133
t133 320t-133 320t-320 133h-532z" />
    <glyph glyph-name="six" unicode="6" 
d="M611 315q-57 0 -97 40q-41 41 -41 98v138h532q57 0 97 -41q41 -40 41 -97t-41 -98q-40 -40 -97 -40h-394zM473 906v138q0 57 41 97q40 41 97 41h532q65 0 111 46t46 111t-46 111q-46 47 -111 47h-532q-187 0 -320 -133t-133 -320v-591q0 -187 133 -320t320 -133h394
q187 0 320 133t133 320t-133 320t-320 133h-532z" />
    <glyph glyph-name="seven" unicode="7" horiz-adv-x="1378" 
d="M198 1497q-66 0 -112 -47q-46 -46 -46 -111t46 -111t112 -46h718l-522 -948q-31 -58 -13 -120q18 -63 75 -95q36 -19 76 -19q93 0 138 82l650 1181q44 79 -2 156q-46 78 -136 78h-984z" />
    <glyph glyph-name="eight" unicode="8" horiz-adv-x="1457" 
d="M532 315q-57 0 -98 40q-40 41 -40 98t40 97q41 41 98 41h394q57 0 97 -41q41 -40 41 -97t-41 -98q-40 -40 -97 -40h-394zM847 1182q57 0 97 -41q41 -40 41 -97t-41 -98q-40 -40 -97 -40h-236q-57 0 -98 40q-40 41 -40 98t40 97q41 41 98 41h236zM1300 1044
q0 187 -133 320t-320 133h-236q-188 0 -320 -133q-133 -133 -133 -320q0 -137 76 -251q-155 -136 -155 -340q0 -187 133 -320t320 -133h394q187 0 320 133t133 320q0 204 -155 340q76 114 76 251z" />
    <glyph glyph-name="nine" unicode="9" 
d="M435 1141q40 41 97 41h394q57 0 97 -41q41 -40 41 -97v-138h-532q-57 0 -97 40q-41 41 -41 98t41 97zM532 1497q-187 0 -320 -133t-133 -320q0 -188 133 -320q133 -133 320 -133h532v-138q0 -57 -41 -98q-40 -40 -97 -40h-532q-65 0 -111 -46t-46 -111q0 -66 46 -112
t111 -46h532q187 0 320 133t133 320v591q0 187 -133 320t-320 133h-394z" />
    <glyph glyph-name="colon" unicode=":" horiz-adv-x="473" 
d="M348 1450q-46 46 -112 46q-65 0 -111 -46t-46 -111t46 -111t111 -46q66 0 112 46t46 111t-46 111zM348 269q-46 46 -112 46q-65 0 -111 -46t-46 -112q0 -65 46 -111t111 -46q66 0 112 46t46 111q0 66 -46 112z" />
    <glyph glyph-name="semicolon" unicode=";" horiz-adv-x="473" 
d="M39 -176q-56 34 -72 97q-16 64 18 120l118 197q34 56 97 71q63 16 119 -17q56 -34 72 -97q16 -64 -18 -120l-118 -197q-46 -76 -135 -76q-44 0 -81 22zM127 1226q-22 22 -34 52q-12 28 -12 60q0 16 2 31q4 16 10 29q6 16 14 28q10 14 20 23q43 45 111 45t111 -45
q13 -13 20 -23q8 -12 14 -28q6 -13 10 -29q3 -20 3 -31q0 -30 -13 -60q-12 -30 -34 -52q-23 -22 -51 -33q-28 -12 -60 -12q-66 0 -111 45z" />
    <glyph glyph-name="less" unicode="&#x3c;" horiz-adv-x="1024" 
d="M830 1215q-63 17 -119 -15l-552 -315q-79 -45 -79 -137q0 -91 79 -136l552 -316q36 -20 78 -20q91 0 137 79q32 57 15 120t-74 95l-312 178l312 179q57 32 74 95t-15 120q-33 56 -96 73z" />
    <glyph glyph-name="equal" unicode="=" horiz-adv-x="1181" 
d="M197 1201q-66 0 -112 -46t-46 -111q0 -66 46 -112t112 -46h787q65 0 112 46q46 46 46 112q0 65 -46 111q-47 46 -112 46h-787zM197 610q-66 0 -112 -46t-46 -111t46 -111q46 -47 112 -47h787q65 0 112 47q46 46 46 111t-46 111q-47 46 -112 46h-787z" />
    <glyph glyph-name="greater" unicode="&#x3e;" horiz-adv-x="1024" 
d="M101 1142q-32 -57 -15 -120t74 -95l312 -179l-312 -178q-57 -32 -74 -95t15 -120q45 -79 137 -79q42 0 78 20l552 316q79 45 79 136q0 92 -79 137l-552 315q-57 32 -120 15t-95 -73z" />
    <glyph glyph-name="question" unicode="?" horiz-adv-x="1260" 
d="M236 1496q-66 0 -112 -46t-46 -111t46 -111q46 -47 112 -47h492q57 0 97 -40q41 -40 41 -97t-41 -98q-40 -40 -97 -40h-197q-65 0 -111 -46q-47 -47 -47 -112v-197q0 -65 47 -111q46 -46 111 -46t111 46t46 111v40h40q187 0 320 132q133 133 133 321q0 187 -133 320
q-133 132 -320 132h-492zM642 269q-46 46 -111 46t-111 -46t-46 -112q0 -65 46 -111t111 -46t111 46t46 111q0 66 -46 112z" />
    <glyph glyph-name="at" unicode="@" horiz-adv-x="2047" 
d="M897 367q-52 52 -52 125t52 125t125 52t125 -51q52 -52 53 -125l-1 -2q0 -73 -52 -125q-52 -51 -125 -51t-125 52zM1384 1366q-172 71 -362 71q-189 0 -362 -71q-172 -72 -306 -206q-134 -133 -206 -306q-71 -172 -71 -362q0 -189 72 -362q71 -173 205 -306
q134 -134 306 -205q173 -72 362 -72q65 0 112 46q46 46 46 112q0 65 -46 111q-47 46 -112 46q-261 0 -446 185q-184 184 -184 445t185 446q184 184 445 184q262 0 446 -184q184 -185 184 -446q0 -63 -12 -126q-5 -22 -22 -37q-18 -14 -41 -14q-15 0 -28 7q-5 2 -9 6
q-4 2 -7 5t-6 7l-6 10q-6 13 -6 28v112v2q0 204 -145 348q-144 144 -348 144q-203 0 -348 -144q-144 -144 -144 -348t144 -348q145 -144 348 -144q166 0 299 102q110 -102 256 -102h1q134 0 239 86t132 218q18 93 18 188q0 189 -71 362t-205 306q-134 134 -307 206z" />
    <glyph glyph-name="A" unicode="A" horiz-adv-x="1575" 
d="M787 987l188 -376h-376zM246 9q62 20 91 79l104 208h691l105 -208q20 -41 59 -65q38 -23 82 -23q37 0 70 17q58 29 79 91t-9 120l-590 1182q-20 40 -58 64q-38 23 -83 23t-83 -23q-38 -24 -58 -64l-591 -1182q-29 -58 -8 -120q20 -62 79 -91q58 -29 120 -8z" />
    <glyph glyph-name="B" unicode="B" 
d="M473 591h532q57 0 97 -41q41 -40 41 -97t-41 -98q-40 -40 -97 -40h-532v276zM473 1182h335q57 0 97 -41q41 -40 41 -97t-41 -98q-40 -40 -97 -40h-335v276zM1005 0q187 0 320 133t133 320q0 127 -67 236q-64 105 -173 163q43 91 43 192q0 187 -133 320t-320 133h-492
q-66 0 -112 -47q-46 -46 -46 -111v-1181q0 -66 46 -112t112 -46h689z" />
    <glyph glyph-name="C" unicode="C" horiz-adv-x="1457" 
d="M1356 219q46 46 46 112q0 65 -46 111t-111 46q-66 0 -112 -46q-127 -127 -306 -127t-306 127t-127 306q0 180 127 307t306 127t306 -127q46 -47 112 -47q65 0 111 47q46 46 46 111t-46 111q-219 220 -529 220t-529 -220q-219 -218 -219 -529q0 -310 219 -529t529 -219
t529 219z" />
    <glyph glyph-name="D" unicode="D" 
d="M473 1182h236q180 0 307 -128q127 -127 127 -306t-127 -306t-307 -127h-236v867zM709 0q310 0 529 219q220 220 220 529q0 310 -220 529q-219 220 -529 220h-393q-66 0 -112 -47q-46 -46 -46 -111v-1181q0 -66 46 -112t112 -46h393z" />
    <glyph glyph-name="E" unicode="E" 
d="M1300 0q65 0 112 46q46 46 46 112q0 65 -46 111q-47 46 -112 46h-827v276h630q65 0 112 46q46 46 46 111q0 66 -46 112q-47 46 -112 46h-630v276h827q65 0 112 46q46 46 46 111t-46 111q-47 47 -112 47h-984q-66 0 -112 -47q-46 -46 -46 -111v-1181q0 -66 46 -112
t112 -46h984z" />
    <glyph glyph-name="F" unicode="F" 
d="M427 46q46 46 46 112v433h630q65 0 112 46q46 46 46 111q0 66 -46 112q-47 46 -112 46h-630v276h827q65 0 112 46q46 46 46 111t-46 111q-47 47 -112 47h-984q-66 0 -112 -47q-46 -46 -46 -111v-1181q0 -66 46 -112t112 -46q65 0 111 46z" />
    <glyph glyph-name="G" unicode="G" horiz-adv-x="1654" 
d="M1356 219q220 220 220 529v1q0 66 -49 113q-48 46 -115 44h-585q-65 0 -111 -46q-46 -47 -46 -112t46 -111t111 -46h404q-48 -123 -157 -199q-111 -77 -247 -77q-179 0 -306 127t-127 306t127 306q127 128 306 128q180 0 307 -127q46 -47 111 -46q66 0 112 46t46 111
q0 66 -47 112q-219 219 -529 219q-309 0 -529 -220q-219 -219 -219 -529q0 -309 219 -529q220 -219 529 -219q310 0 529 219z" />
    <glyph glyph-name="H" unicode="H" horiz-adv-x="1615" 
d="M427 46q46 46 46 112v433h670v-433q0 -66 46 -112t111 -46t112 46q46 46 46 112v1181q0 65 -46 111q-47 47 -112 47t-111 -47q-46 -46 -46 -111v-433h-670v433q0 65 -46 111q-46 47 -111 47q-66 0 -112 -47q-46 -46 -46 -111v-1181q0 -66 46 -112t112 -46q65 0 111 46z
" />
    <glyph glyph-name="I" unicode="I" horiz-adv-x="631" 
d="M427 46q46 46 46 112v1181q0 65 -46 111q-46 47 -111 47q-66 0 -112 -47q-46 -46 -46 -111v-1181q0 -66 46 -112t112 -46q65 0 111 46z" />
    <glyph glyph-name="J" unicode="J" 
d="M270 191q-191 190 -191 459q0 65 46 111t112 46q65 0 111 -46t46 -111q0 -139 98 -237t237 -98q138 0 236 98q99 98 99 237v532h-335q-65 0 -112 46q-46 46 -46 111t46 111q47 47 112 47h492q65 0 112 -47q46 -46 46 -111v-689q0 -269 -191 -459q-190 -191 -459 -191
t-459 191z" />
    <glyph glyph-name="K" unicode="K" 
d="M1269 1494q-64 -13 -100 -68l-347 -520h-349v433q0 65 -46 111q-46 47 -111 47q-66 0 -112 -47q-46 -46 -46 -111v-1181q0 -66 46 -112t112 -46q65 0 111 46t46 112v433h349l347 -521q47 -70 131 -70q48 0 88 26q54 37 67 101q12 64 -24 118l-335 503l335 504
q36 54 24 118q-13 64 -67 100q-55 36 -119 24z" />
    <glyph glyph-name="L" unicode="L" horiz-adv-x="1300" 
d="M316 0q-66 0 -112 46t-46 112v1181q0 65 46 111q46 47 112 47q65 0 111 -47q46 -46 46 -111v-1024h630q65 0 112 -46q46 -46 46 -111q0 -66 -46 -112q-47 -46 -112 -46h-787z" />
    <glyph glyph-name="M" unicode="M" horiz-adv-x="1811" 
d="M427 1450q-34 34 -81 44q-47 9 -91 -9q-44 -19 -70 -58q-27 -40 -27 -88v-1181q0 -66 46 -112t112 -46q65 0 111 46t46 112v801l322 -322q46 -46 111 -46q66 0 112 46l322 322v-801q0 -66 46 -112t111 -46t111 46q47 46 47 112v1181q0 48 -27 88q-26 39 -71 58
q-44 18 -91 9q-46 -10 -80 -44l-480 -479z" />
    <glyph glyph-name="N" unicode="N" horiz-adv-x="1615" 
d="M187 1430q-29 -41 -29 -91v-1181q0 -66 46 -112t112 -46q65 0 111 46t46 112v746l706 -847q47 -57 121 -57q28 0 54 9q47 17 75 58q29 41 29 91v1181q0 65 -46 111q-47 47 -112 47t-111 -47q-46 -46 -46 -111v-746l-706 847q-32 38 -80 51t-95 -4t-75 -57z" />
    <glyph glyph-name="O" unicode="O" horiz-adv-x="1654" 
d="M1134 442q-128 -127 -307 -127t-306 127t-127 306t127 306q127 128 306 128t307 -128q127 -127 127 -306t-127 -306zM298 219q220 -219 529 -219q310 0 529 219q220 220 220 529q0 310 -220 529q-219 220 -529 220q-309 0 -529 -220q-219 -219 -219 -529q0 -309 219 -529
z" />
    <glyph glyph-name="P" unicode="P" 
d="M1073 778q-69 -69 -167 -69h-433v473h433q98 0 167 -70q70 -69 70 -167q0 -97 -70 -167zM427 46q46 46 46 112v236h433q228 0 390 162q162 161 162 389t-162 390t-390 162h-590q-66 0 -112 -47q-46 -46 -46 -111v-1181q0 -66 46 -112t112 -46q65 0 111 46z" />
    <glyph glyph-name="Q" unicode="Q" horiz-adv-x="1654" 
d="M521 1054q127 127 306 127t307 -127q127 -127 127 -306t-127 -306q-128 -127 -307 -127t-306 127t-127 306t127 306zM1525 -155q48 44 50 109q3 65 -41 113l-3 3l-4 4q-5 6 -11 12q-18 16 -39 32q-61 48 -138 86q111 105 173 243q64 143 64 301q0 310 -220 529
q-219 220 -529 220q-309 0 -529 -220q-219 -219 -219 -529q0 -309 219 -529q220 -219 529 -219q205 0 359 -72q48 -22 86 -50q12 -8 22 -17q3 -2 6 -5l1 -1l1 -1q47 -51 116 -51q61 0 107 42z" />
    <glyph glyph-name="R" unicode="R" 
d="M1073 778q-69 -69 -167 -69h-433v473h433q98 0 167 -70q70 -69 70 -167q0 -97 -70 -167zM841 394l348 -348q46 -46 111 -46t112 46q46 46 46 112q0 65 -46 111l-211 211q118 75 186 196q71 125 71 269q0 228 -162 390t-390 162h-590q-66 0 -112 -47q-46 -46 -46 -111
v-1181q0 -66 46 -112t112 -46q65 0 111 46t46 112v236h368z" />
    <glyph glyph-name="S" unicode="S" horiz-adv-x="1457" 
d="M237 315q-66 0 -112 -46t-46 -111q0 -66 46 -112t112 -46h689q187 0 320 133t133 320t-133 320t-320 133h-394q-57 0 -97 40q-41 41 -41 98t41 97q40 41 97 41h689q65 0 112 46q46 46 46 111t-46 111q-47 47 -112 47h-689q-187 0 -320 -133t-133 -320q0 -188 133 -320
q133 -133 320 -133h394q57 0 97 -41q41 -40 41 -97t-41 -98q-40 -40 -97 -40h-689z" />
    <glyph glyph-name="T" unicode="T" horiz-adv-x="1378" 
d="M531 1182v-1024q0 -66 46 -112q47 -46 112 -46t111 46t46 112v1024h335q65 0 112 46q46 46 46 111t-46 111q-47 47 -112 47h-984q-66 0 -112 -47q-46 -46 -46 -111t46 -111t112 -46h334z" />
    <glyph glyph-name="U" unicode="U" horiz-adv-x="1615" 
d="M349 191q-191 190 -191 459v689q0 65 46 111q46 47 112 47q65 0 111 -47q46 -46 46 -111v-689q0 -139 98 -237t237 -98q138 0 236 98q99 98 99 237v689q0 65 46 111q46 47 111 47t112 -47q46 -46 46 -111v-689q0 -269 -191 -459q-190 -191 -459 -191t-459 191z" />
    <glyph glyph-name="V" unicode="V" horiz-adv-x="1575" 
d="M338 1408q-29 59 -91 79q-62 21 -121 -8q-58 -29 -78 -91q-21 -62 8 -121l591 -1180q20 -40 58 -63q38 -24 83 -24v0q45 0 83 24q38 23 58 63l590 1182q30 58 9 120t-79 91t-120 9q-62 -21 -91 -79l-450 -900z" />
    <glyph glyph-name="W" unicode="W" horiz-adv-x="2166" 
d="M1919 1489q-61 -21 -91 -79l-450 -900l-119 238l260 521q30 58 9 120t-79 91t-120 9q-62 -21 -91 -79l-155 -310l-154 308q-30 59 -91 79q-62 21 -121 -8q-58 -29 -79 -91q-20 -62 9 -121l260 -519l-119 -238l-450 898q-29 59 -91 79q-62 21 -121 -8q-58 -29 -78 -91
q-21 -62 8 -121l591 -1180q20 -40 58 -63q38 -24 83 -24v0q45 0 83 24q38 23 58 63l154 309l155 -309q20 -40 58 -63q38 -24 83 -24v0q44 0 82 24q38 23 58 63l591 1182q29 58 9 120q-21 62 -79 91q-59 29 -121 9z" />
    <glyph glyph-name="X" unicode="X" horiz-adv-x="1457" 
d="M358 1440q-42 50 -107 56t-115 -36t-56 -107t36 -115l408 -490l-408 -490q-42 -50 -36 -115t56 -106q43 -37 101 -37q73 0 121 57l371 445l371 -445q48 -57 121 -57q57 0 101 37q50 41 56 106t-36 115l-408 490l408 490q42 50 36 115t-56 107t-115 36t-107 -56l-371 -446
z" />
    <glyph glyph-name="Y" unicode="Y" horiz-adv-x="1378" 
d="M1146 1493q-64 -15 -98 -70l-359 -574l-359 574q-34 55 -98 70q-63 14 -119 -20q-55 -35 -70 -98q-14 -64 20 -119l469 -750v-348q0 -66 46 -112t111 -46t112 46q46 46 46 112v348l468 750q35 55 20 119q-15 63 -70 98q-55 34 -119 20z" />
    <glyph glyph-name="Z" unicode="Z" horiz-adv-x="1457" 
d="M573 315l769 923q30 35 35 81q6 45 -13 87q-20 41 -58 66q-39 25 -85 25h-984q-66 0 -112 -47q-46 -46 -46 -111t46 -111t112 -46h648l-769 -924q-30 -35 -36 -80q-6 -46 14 -87q19 -42 58 -66q39 -25 85 -25h984q65 0 112 46q46 46 46 112q0 65 -46 111q-47 46 -112 46
h-648z" />
    <glyph glyph-name="bracketleft" unicode="[" horiz-adv-x="709" 
d="M512 1375q66 0 112 47q46 46 46 111t-46 111t-112 46h-196q-66 0 -112 -46t-46 -111v-1575q0 -66 46 -112t112 -46h196q66 0 112 46t46 112q0 65 -46 111t-112 46h-39v1260h39z" />
    <glyph glyph-name="backslash" unicode="\" horiz-adv-x="710" 
d="M552 -197q-54 0 -96 33q-44 33 -57 86l-394 1576q-16 63 18 119q33 56 97 72q63 16 119 -18q56 -33 72 -97l394 -1575q15 -64 -18 -120q-34 -56 -97 -71q-19 -5 -38 -5z" />
    <glyph glyph-name="bracketright" unicode="]" horiz-adv-x="709" 
d="M199 1694q-66 0 -112 -46t-46 -111t46 -111q46 -47 112 -47h39v-1260h-39q-66 0 -112 -46t-46 -111q0 -66 46 -112t112 -46h196q66 0 112 46t46 112v1575q0 65 -46 111t-112 46h-196z" />
    <glyph glyph-name="asciicircum" unicode="^" horiz-adv-x="945" 
d="M603 1418q-46 79 -136 79q-91 0 -136 -79l-230 -393q-33 -57 -16 -120q16 -63 73 -96q56 -33 119 -16q63 16 96 73l94 160l93 -160q46 -78 137 -78q42 0 79 21q56 33 73 96q16 63 -16 120z" />
    <glyph glyph-name="underscore" unicode="_" horiz-adv-x="1378" 
d="M198 -315q-66 0 -112 46t-46 112q0 65 46 111t112 46h984q65 0 112 -46q46 -46 46 -111q0 -66 -46 -112q-47 -46 -112 -46h-984z" />
    <glyph glyph-name="a" unicode="a" horiz-adv-x="1575" 
d="M788 987l188 -376h-376zM247 9q62 20 91 79l104 208h691l105 -208q20 -41 59 -65q38 -23 82 -23q37 0 70 17q58 29 79 91t-9 120l-590 1182q-20 40 -58 64q-38 23 -83 23t-83 -23q-38 -24 -58 -64l-591 -1182q-29 -58 -8 -120q20 -62 79 -91q58 -29 120 -8z" />
    <glyph glyph-name="b" unicode="b" 
d="M473 591h532q57 0 97 -41q41 -40 41 -97t-41 -98q-40 -40 -97 -40h-532v276zM473 1182h335q57 0 97 -41q41 -40 41 -97t-41 -98q-40 -40 -97 -40h-335v276zM1005 0q187 0 320 133t133 320q0 127 -67 236q-64 105 -173 163q43 91 43 192q0 187 -133 320t-320 133h-492
q-66 0 -112 -47q-46 -46 -46 -111v-1181q0 -66 46 -112t112 -46h689z" />
    <glyph glyph-name="c" unicode="c" horiz-adv-x="1457" 
d="M1356 219q46 46 46 112q0 65 -46 111t-111 46q-66 0 -112 -46q-127 -127 -306 -127t-306 127t-127 306q0 180 127 307t306 127t306 -127q46 -47 112 -47q65 0 111 47q46 46 46 111t-46 111q-219 220 -529 220t-529 -220q-219 -218 -219 -529q0 -310 219 -529t529 -219
t529 219z" />
    <glyph glyph-name="d" unicode="d" 
d="M473 1182h236q180 0 307 -128q127 -127 127 -306t-127 -306t-307 -127h-236v867zM709 0q310 0 529 219q220 220 220 529q0 310 -220 529q-219 220 -529 220h-393q-66 0 -112 -47q-46 -46 -46 -111v-1181q0 -66 46 -112t112 -46h393z" />
    <glyph glyph-name="e" unicode="e" 
d="M1300 0q65 0 112 46q46 46 46 112q0 65 -46 111q-47 46 -112 46h-827v276h630q65 0 112 46q46 46 46 111q0 66 -46 112q-47 46 -112 46h-630v276h827q65 0 112 46q46 46 46 111t-46 111q-47 47 -112 47h-984q-66 0 -112 -47q-46 -46 -46 -111v-1181q0 -66 46 -112
t112 -46h984z" />
    <glyph glyph-name="f" unicode="f" 
d="M427 46q46 46 46 112v433h630q65 0 112 46q46 46 46 111q0 66 -46 112q-47 46 -112 46h-630v276h827q65 0 112 46q46 46 46 111t-46 111q-47 47 -112 47h-984q-66 0 -112 -47q-46 -46 -46 -111v-1181q0 -66 46 -112t112 -46q65 0 111 46z" />
    <glyph glyph-name="g" unicode="g" horiz-adv-x="1654" 
d="M1356 219q220 220 220 529v1q0 66 -49 113q-48 46 -115 44h-585q-65 0 -111 -46q-46 -47 -46 -112t46 -111t111 -46h404q-48 -123 -157 -199q-111 -77 -247 -77q-179 0 -306 127t-127 306t127 306q127 128 306 128q180 0 307 -127q46 -47 111 -46q66 0 112 46t46 111
q0 66 -47 112q-219 219 -529 219q-309 0 -529 -220q-219 -219 -219 -529q0 -309 219 -529q220 -219 529 -219q310 0 529 219z" />
    <glyph glyph-name="h" unicode="h" horiz-adv-x="1615" 
d="M427 46q46 46 46 112v433h670v-433q0 -66 46 -112t111 -46t112 46q46 46 46 112v1181q0 65 -46 111q-47 47 -112 47t-111 -47q-46 -46 -46 -111v-433h-670v433q0 65 -46 111q-46 47 -111 47q-66 0 -112 -47q-46 -46 -46 -111v-1181q0 -66 46 -112t112 -46q65 0 111 46z
" />
    <glyph glyph-name="i" unicode="i" horiz-adv-x="631" 
d="M427 46q46 46 46 112v1181q0 65 -46 111q-46 47 -111 47q-66 0 -112 -47q-46 -46 -46 -111v-1181q0 -66 46 -112t112 -46q65 0 111 46z" />
    <glyph glyph-name="j" unicode="j" 
d="M270 191q-191 190 -191 459q0 65 46 111t112 46q65 0 111 -46t46 -111q0 -139 98 -237t237 -98q138 0 236 98q99 98 99 237v532h-335q-65 0 -112 46q-46 46 -46 111t46 111q47 47 112 47h492q65 0 112 -47q46 -46 46 -111v-689q0 -269 -191 -459q-190 -191 -459 -191
t-459 191z" />
    <glyph glyph-name="k" unicode="k" 
d="M1269 1494q-64 -13 -100 -68l-347 -520h-349v433q0 65 -46 111q-46 47 -111 47q-66 0 -112 -47q-46 -46 -46 -111v-1181q0 -66 46 -112t112 -46q65 0 111 46t46 112v433h349l347 -521q47 -70 131 -70q48 0 88 26q54 37 67 101q12 64 -24 118l-335 503l335 504
q36 54 24 118q-13 64 -67 100q-55 36 -119 24z" />
    <glyph glyph-name="l" unicode="l" horiz-adv-x="1300" 
d="M316 0q-66 0 -112 46t-46 112v1181q0 65 46 111q46 47 112 47q65 0 111 -47q46 -46 46 -111v-1024h630q65 0 112 -46q46 -46 46 -111q0 -66 -46 -112q-47 -46 -112 -46h-787z" />
    <glyph glyph-name="m" unicode="m" horiz-adv-x="1811" 
d="M427 1450q-34 34 -81 44q-47 9 -91 -9q-44 -19 -70 -58q-27 -40 -27 -88v-1181q0 -66 46 -112t112 -46q65 0 111 46t46 112v801l322 -322q46 -46 111 -46q66 0 112 46l322 322v-801q0 -66 46 -112t111 -46t111 46q47 46 47 112v1181q0 48 -27 88q-26 39 -71 58
q-44 18 -91 9q-46 -10 -80 -44l-480 -479z" />
    <glyph glyph-name="n" unicode="n" horiz-adv-x="1615" 
d="M187 1430q-29 -41 -29 -91v-1181q0 -66 46 -112t112 -46q65 0 111 46t46 112v746l706 -847q47 -57 121 -57q28 0 54 9q47 17 75 58q29 41 29 91v1181q0 65 -46 111q-47 47 -112 47t-111 -47q-46 -46 -46 -111v-746l-706 847q-32 38 -80 51t-95 -4t-75 -57z" />
    <glyph glyph-name="o" unicode="o" horiz-adv-x="1654" 
d="M1134 442q-128 -127 -307 -127t-306 127t-127 306t127 306q127 128 306 128t307 -128q127 -127 127 -306t-127 -306zM298 219q220 -219 529 -219q310 0 529 219q220 220 220 529q0 310 -220 529q-219 220 -529 220q-309 0 -529 -220q-219 -219 -219 -529q0 -309 219 -529
z" />
    <glyph glyph-name="p" unicode="p" 
d="M1073 778q-69 -69 -167 -69h-433v473h433q98 0 167 -70q70 -69 70 -167q0 -97 -70 -167zM427 46q46 46 46 112v236h433q228 0 390 162q162 161 162 389t-162 390t-390 162h-590q-66 0 -112 -47q-46 -46 -46 -111v-1181q0 -66 46 -112t112 -46q65 0 111 46z" />
    <glyph glyph-name="q" unicode="q" horiz-adv-x="1654" 
d="M521 1054q127 127 306 127t307 -127q127 -127 127 -306t-127 -306q-128 -127 -307 -127t-306 127t-127 306t127 306zM1525 -155q48 44 50 109q3 65 -41 113l-3 3l-4 4q-5 6 -11 12q-18 16 -39 32q-61 48 -138 86q111 105 173 243q64 143 64 301q0 310 -220 529
q-219 220 -529 220q-309 0 -529 -220q-219 -219 -219 -529q0 -309 219 -529q220 -219 529 -219q205 0 359 -72q48 -22 86 -50q12 -8 22 -17q3 -2 6 -5l1 -1l1 -1q47 -51 116 -51q61 0 107 42z" />
    <glyph glyph-name="r" unicode="r" 
d="M1073 778q-69 -69 -167 -69h-433v473h433q98 0 167 -70q70 -69 70 -167q0 -97 -70 -167zM841 394l348 -348q46 -46 111 -46t112 46q46 46 46 112q0 65 -46 111l-211 211q118 75 186 196q71 125 71 269q0 228 -162 390t-390 162h-590q-66 0 -112 -47q-46 -46 -46 -111
v-1181q0 -66 46 -112t112 -46q65 0 111 46t46 112v236h368z" />
    <glyph glyph-name="s" unicode="s" horiz-adv-x="1457" 
d="M237 315q-66 0 -112 -46t-46 -111q0 -66 46 -112t112 -46h689q187 0 320 133t133 320t-133 320t-320 133h-394q-57 0 -97 40q-41 41 -41 98t41 97q40 41 97 41h689q65 0 112 46q46 46 46 111t-46 111q-47 47 -112 47h-689q-187 0 -320 -133t-133 -320q0 -188 133 -320
q133 -133 320 -133h394q57 0 97 -41q41 -40 41 -97t-41 -98q-40 -40 -97 -40h-689z" />
    <glyph glyph-name="t" unicode="t" horiz-adv-x="1378" 
d="M531 1182v-1024q0 -66 46 -112q47 -46 112 -46t111 46t46 112v1024h335q65 0 112 46q46 46 46 111t-46 111q-47 47 -112 47h-984q-66 0 -112 -47q-46 -46 -46 -111t46 -111t112 -46h334z" />
    <glyph glyph-name="u" unicode="u" horiz-adv-x="1615" 
d="M349 191q-191 190 -191 459v689q0 65 46 111q46 47 112 47q65 0 111 -47q46 -46 46 -111v-689q0 -139 98 -237t237 -98q138 0 236 98q99 98 99 237v689q0 65 46 111q46 47 111 47t112 -47q46 -46 46 -111v-689q0 -269 -191 -459q-190 -191 -459 -191t-459 191z" />
    <glyph glyph-name="v" unicode="v" horiz-adv-x="1575" 
d="M338 1408q-29 59 -91 79q-62 21 -121 -8q-58 -29 -78 -91q-21 -62 8 -121l591 -1180q20 -40 58 -63q38 -24 83 -24v0q45 0 83 24q38 23 58 63l590 1182q30 58 9 120t-79 91t-120 9q-62 -21 -91 -79l-450 -900z" />
    <glyph glyph-name="w" unicode="w" horiz-adv-x="2166" 
d="M1919 1489q-61 -21 -91 -79l-450 -900l-119 238l260 521q30 58 9 120t-79 91t-120 9q-62 -21 -91 -79l-155 -310l-154 308q-30 59 -91 79q-62 21 -121 -8q-58 -29 -79 -91q-20 -62 9 -121l260 -519l-119 -238l-450 898q-29 59 -91 79q-62 21 -121 -8q-58 -29 -78 -91
q-21 -62 8 -121l591 -1180q20 -40 58 -63q38 -24 83 -24v0q45 0 83 24q38 23 58 63l154 309l155 -309q20 -40 58 -63q38 -24 83 -24v0q44 0 82 24q38 23 58 63l591 1182q29 58 9 120q-21 62 -79 91q-59 29 -121 9z" />
    <glyph glyph-name="x" unicode="x" horiz-adv-x="1457" 
d="M358 1440q-42 50 -107 56t-115 -36t-56 -107t36 -115l408 -490l-408 -490q-42 -50 -36 -115t56 -106q43 -37 101 -37q73 0 121 57l371 445l371 -445q48 -57 121 -57q57 0 101 37q50 41 56 106t-36 115l-408 490l408 490q42 50 36 115t-56 107t-115 36t-107 -56l-371 -446
z" />
    <glyph glyph-name="y" unicode="y" horiz-adv-x="1378" 
d="M1146 1493q-64 -15 -98 -70l-359 -574l-359 574q-34 55 -98 70q-63 14 -119 -20q-55 -35 -70 -98q-14 -64 20 -119l469 -750v-348q0 -66 46 -112t111 -46t112 46q46 46 46 112v348l468 750q35 55 20 119q-15 63 -70 98q-55 34 -119 20z" />
    <glyph glyph-name="z" unicode="z" horiz-adv-x="1457" 
d="M573 315l769 923q30 35 35 81q6 45 -13 87q-20 41 -58 66q-39 25 -85 25h-984q-66 0 -112 -47q-46 -46 -46 -111t46 -111t112 -46h648l-769 -924q-30 -35 -36 -80q-6 -46 14 -87q19 -42 58 -66q39 -25 85 -25h984q65 0 112 46q46 46 46 112q0 65 -46 111q-47 46 -112 46
h-648z" />
    <glyph glyph-name="braceleft" unicode="{" horiz-adv-x="630" 
d="M395 1336q0 16 12 28q11 11 27 11q66 0 112 47q46 46 46 111t-46 111t-112 46q-146 0 -250 -103q-104 -104 -104 -251v-394q0 -16 -12 -28q-11 -11 -27 -11q-66 0 -112 -46q-46 -47 -46 -112t46 -111t112 -46q16 0 27 -12q12 -11 12 -28v-394q0 -146 104 -250t250 -104
q66 0 112 46t46 112q0 65 -46 111t-112 46q-16 0 -27 12q-12 11 -12 27v394q0 108 -60 197q60 90 60 197v394z" />
    <glyph glyph-name="bar" unicode="|" horiz-adv-x="631" 
d="M427 -153q46 46 46 112v1575q0 65 -46 111t-111 46q-66 0 -112 -46t-46 -111v-1575q0 -66 46 -112t112 -46q65 0 111 46z" />
    <glyph glyph-name="braceright" unicode="}" horiz-adv-x="788" 
d="M238 942q0 -107 60 -197q-60 -89 -60 -197v-394q0 -16 -12 -27q-11 -12 -27 -12q-66 0 -112 -46t-46 -111q0 -66 46 -112t112 -46q146 0 250 104t104 250v394q0 17 12 28q11 12 27 12q66 0 112 46t46 111t-46 112q-46 46 -112 46q-16 0 -27 11q-12 12 -12 28v394
q0 147 -104 251q-104 103 -250 103q-66 0 -112 -46t-46 -111t46 -111q46 -47 112 -47q16 0 27 -11q12 -12 12 -28v-394z" />
    <glyph glyph-name="uni0410" unicode="&#x410;" horiz-adv-x="1575" 
d="M788 987l188 -376h-376zM247 9q62 20 91 79l104 208h691l105 -208q20 -41 59 -65q38 -23 82 -23q37 0 70 17q58 29 79 91t-9 120l-590 1182q-20 40 -58 64q-38 23 -83 23t-83 -23q-38 -24 -58 -64l-591 -1182q-29 -58 -8 -120q20 -62 79 -91q58 -29 120 -8z" />
    <glyph glyph-name="uni0411" unicode="&#x411;" 
d="M1005 591q57 0 97 -41q41 -40 41 -97t-41 -98q-40 -40 -97 -40h-532v276h532zM1103 1182q65 0 112 46q46 46 46 111t-46 111q-47 47 -112 47h-787q-66 0 -112 -47q-46 -46 -46 -111v-1181q0 -66 46 -112t112 -46h689q187 0 320 133t133 320t-133 320t-320 133h-532v276
h630z" />
    <glyph glyph-name="uni0412" unicode="&#x412;" 
d="M473 591h532q57 0 97 -41q41 -40 41 -97t-41 -98q-40 -40 -97 -40h-532v276zM473 1182h335q57 0 97 -41q41 -40 41 -97t-41 -98q-40 -40 -97 -40h-335v276zM1005 0q187 0 320 133t133 320q0 127 -67 236q-64 105 -173 163q43 91 43 192q0 187 -133 320t-320 133h-492
q-66 0 -112 -47q-46 -46 -46 -111v-1181q0 -66 46 -112t112 -46h689z" />
    <glyph glyph-name="uni0413" unicode="&#x413;" horiz-adv-x="1300" 
d="M1215 1450q-47 47 -112 47h-787q-66 0 -112 -47q-46 -46 -46 -111v-1181q0 -66 46 -112t112 -46q65 0 111 46t46 112v1024h630q65 0 112 46q46 46 46 111t-46 111z" />
    <glyph glyph-name="uni0414" unicode="&#x414;" horiz-adv-x="1772" 
d="M886 986l336 -671h-671zM1417 -39q0 -66 47 -112q46 -46 111 -46t111 46q47 46 47 112v196q0 66 -47 112q-46 46 -111 46h-1l-547 1093q-20 40 -58 64q-38 23 -83 23t-83 -23q-38 -24 -58 -64l-547 -1093h-1q-66 0 -112 -46t-46 -112v-196q0 -66 46 -112t112 -46
q65 0 111 46t46 112v39h1063v-39z" />
    <glyph glyph-name="uni0415" unicode="&#x415;" 
d="M1300 0q65 0 112 46q46 46 46 112q0 65 -46 111q-47 46 -112 46h-827v276h630q65 0 112 46q46 46 46 111q0 66 -46 112q-47 46 -112 46h-630v276h827q65 0 112 46q46 46 46 111t-46 111q-47 47 -112 47h-984q-66 0 -112 -47q-46 -46 -46 -111v-1181q0 -66 46 -112
t112 -46h984z" />
    <glyph glyph-name="uni0416" unicode="&#x416;" horiz-adv-x="2008" 
d="M867 158q0 -66 46 -112t112 -46q65 0 111 46t46 112v433h152l347 -521q47 -70 131 -70q48 0 88 26q54 37 67 101q12 64 -24 118l-335 503l335 504q36 54 24 118q-13 64 -67 100q-55 36 -119 24q-64 -13 -100 -68l-347 -520h-152v433q0 65 -46 111q-46 47 -111 47
q-66 0 -112 -47q-46 -46 -46 -111v-433h-152l-347 520q-36 55 -100 68q-64 12 -119 -24q-54 -36 -67 -100q-12 -64 24 -118l335 -504l-335 -503q-36 -54 -24 -118q13 -64 67 -101q40 -26 88 -26q84 0 131 70l347 521h152v-433z" />
    <glyph glyph-name="uni0417" unicode="&#x417;" horiz-adv-x="1457" 
d="M237 315q-66 0 -112 -46t-46 -111q0 -66 46 -112t112 -46h689q187 0 320 133t133 320q0 204 -155 340q76 114 76 251q0 187 -133 320t-320 133h-610q-66 0 -112 -47q-46 -46 -46 -111t46 -111t112 -46h610q57 0 97 -41q41 -40 41 -97t-41 -98q-40 -40 -97 -40h-414
q-65 0 -111 -46t-46 -112q0 -65 46 -111t111 -46h493q57 0 97 -41q41 -40 41 -97t-41 -98q-40 -40 -97 -40h-689z" />
    <glyph glyph-name="uni0418" unicode="&#x418;" horiz-adv-x="1615" 
d="M262 9q-47 17 -75 58q-29 41 -29 91v1181q0 65 46 111q46 47 112 47q65 0 111 -47q46 -46 46 -111v-746l706 847q32 38 80 51t95 -4t75 -57q29 -41 29 -91v-1181q0 -66 -46 -112q-47 -46 -112 -46t-111 46t-46 112v746l-706 -847q-48 -57 -121 -57q-28 0 -54 9z" />
    <glyph glyph-name="uni0419" unicode="&#x419;" horiz-adv-x="1615" 
d="M262 9q-47 17 -75 58q-29 41 -29 91v1181q0 65 46 111q46 47 112 47q65 0 111 -47q46 -46 46 -111v-746l706 847q32 38 80 51t95 -4t75 -57q29 -41 29 -91v-1181q0 -66 -46 -112q-47 -46 -112 -46t-111 46t-46 112v746l-706 -847q-48 -57 -121 -57q-28 0 -54 9zM611 1654
q-65 0 -111 46q-47 46 -47 112q0 65 47 111q46 46 111 46h394q65 0 111 -46t46 -111q0 -66 -46 -112t-111 -46h-394z" />
    <glyph glyph-name="uni041A" unicode="&#x41a;" 
d="M1269 1494q-64 -13 -100 -68l-347 -520h-349v433q0 65 -46 111q-46 47 -111 47q-66 0 -112 -47q-46 -46 -46 -111v-1181q0 -66 46 -112t112 -46q65 0 111 46t46 112v433h349l347 -521q47 -70 131 -70q48 0 88 26q54 37 67 101q12 64 -24 118l-335 503l335 504
q36 54 24 118q-13 64 -67 100q-55 36 -119 24z" />
    <glyph glyph-name="uni041B" unicode="&#x41b;" horiz-adv-x="1575" 
d="M1238 88q29 -58 91 -79q62 -20 120 9t79 91t-9 120l-590 1181q-20 40 -58 63q-38 24 -83 24t-83 -24q-38 -23 -58 -63l-591 -1182q-29 -58 -8 -120q20 -62 79 -91q33 -17 70 -17q44 0 82 23q39 23 59 64l450 900z" />
    <glyph glyph-name="uni041C" unicode="&#x41c;" horiz-adv-x="1811" 
d="M427 1450q-34 34 -81 44q-47 9 -91 -9q-44 -19 -70 -58q-27 -40 -27 -88v-1181q0 -66 46 -112t112 -46q65 0 111 46t46 112v801l322 -322q46 -46 111 -46q66 0 112 46l322 322v-801q0 -66 46 -112t111 -46t111 46q47 46 47 112v1181q0 48 -27 88q-26 39 -71 58
q-44 18 -91 9q-46 -10 -80 -44l-480 -479z" />
    <glyph glyph-name="uni041D" unicode="&#x41d;" horiz-adv-x="1615" 
d="M427 46q46 46 46 112v433h670v-433q0 -66 46 -112t111 -46t112 46q46 46 46 112v1181q0 65 -46 111q-47 47 -112 47t-111 -47q-46 -46 -46 -111v-433h-670v433q0 65 -46 111q-46 47 -111 47q-66 0 -112 -47q-46 -46 -46 -111v-1181q0 -66 46 -112t112 -46q65 0 111 46z
" />
    <glyph glyph-name="uni041E" unicode="&#x41e;" horiz-adv-x="1654" 
d="M1134 442q-128 -127 -307 -127t-306 127t-127 306t127 306q127 128 306 128t307 -128q127 -127 127 -306t-127 -306zM298 219q220 -219 529 -219q310 0 529 219q220 220 220 529q0 310 -220 529q-219 220 -529 220q-309 0 -529 -220q-219 -219 -219 -529q0 -309 219 -529
z" />
    <glyph glyph-name="uni041F" unicode="&#x41f;" horiz-adv-x="1615" 
d="M316 1497q-66 0 -112 -47q-46 -46 -46 -111v-1181q0 -66 46 -112t112 -46q65 0 111 46t46 112v1024h670v-1024q0 -66 46 -112t111 -46t112 46q46 46 46 112v1181q0 65 -46 111q-47 47 -112 47h-984z" />
    <glyph glyph-name="uni0420" unicode="&#x420;" 
d="M1073 778q-69 -69 -167 -69h-433v473h433q98 0 167 -70q70 -69 70 -167q0 -97 -70 -167zM427 46q46 46 46 112v236h433q228 0 390 162q162 161 162 389t-162 390t-390 162h-590q-66 0 -112 -47q-46 -46 -46 -111v-1181q0 -66 46 -112t112 -46q65 0 111 46z" />
    <glyph glyph-name="uni0421" unicode="&#x421;" horiz-adv-x="1457" 
d="M1356 219q46 46 46 112q0 65 -46 111t-111 46q-66 0 -112 -46q-127 -127 -306 -127t-306 127t-127 306q0 180 127 307t306 127t306 -127q46 -47 112 -47q65 0 111 47q46 46 46 111t-46 111q-219 220 -529 220t-529 -220q-219 -218 -219 -529q0 -310 219 -529t529 -219
t529 219z" />
    <glyph glyph-name="uni0422" unicode="&#x422;" horiz-adv-x="1378" 
d="M531 1182v-1024q0 -66 46 -112q47 -46 112 -46t111 46t46 112v1024h335q65 0 112 46q46 46 46 111t-46 111q-47 47 -112 47h-984q-66 0 -112 -47q-46 -46 -46 -111t46 -111t112 -46h334z" />
    <glyph glyph-name="uni0423" unicode="&#x423;" horiz-adv-x="1378" 
d="M1132 1489q-62 -21 -91 -79l-352 -703l-351 701q-29 59 -91 79q-62 21 -121 -8q-58 -29 -78 -91q-21 -62 8 -121l457 -913l-63 -126q-29 -58 -9 -120q21 -62 79 -91q34 -17 71 -17q44 0 82 23t59 64l591 1182q29 58 8 120t-79 91t-120 9z" />
    <glyph glyph-name="uni0424" unicode="&#x424;" horiz-adv-x="1654" 
d="M985 985h39q98 0 167 -70q70 -69 70 -167q0 -97 -70 -167q-69 -69 -167 -69h-39v473zM630 512q-97 0 -167 69q-69 70 -69 167q0 98 69 167q70 70 167 70h40v-473h-40zM1414 1138q-162 162 -390 162h-39v39q0 65 -46 111q-46 47 -112 47q-65 0 -111 -47q-46 -46 -46 -111
v-39h-40q-228 0 -389 -162q-162 -162 -162 -390t162 -389q161 -162 389 -162h40v-39q0 -66 46 -112t111 -46q66 0 112 46t46 112v39h39q228 0 390 162q162 161 162 389t-162 390z" />
    <glyph glyph-name="uni0425" unicode="&#x425;" horiz-adv-x="1457" 
d="M358 1440q-42 50 -107 56t-115 -36t-56 -107t36 -115l408 -490l-408 -490q-42 -50 -36 -115t56 -106q43 -37 101 -37q73 0 121 57l371 445l371 -445q48 -57 121 -57q57 0 101 37q50 41 56 106t-36 115l-408 490l408 490q42 50 36 115t-56 107t-115 36t-107 -56l-371 -446
z" />
    <glyph glyph-name="uni0426" unicode="&#x426;" horiz-adv-x="1615" 
d="M1458 1339q0 65 -46 111q-47 47 -112 47t-111 -47q-46 -46 -46 -111v-1024h-670v1024q0 65 -46 111q-46 47 -111 47q-66 0 -112 -47q-46 -46 -46 -111v-1182q0 -65 46 -111t112 -46h925v-39q0 -66 46 -112t112 -46q65 0 111 46t46 112v196q0 49 -27 89t-71 57v1036z
M1458 1339q0 65 -46 111q-47 47 -112 47t-111 -47q-46 -46 -46 -111v-1024h-670v1024q0 65 -46 111q-46 47 -111 47q-66 0 -112 -47q-46 -46 -46 -111v-1182q0 -65 46 -111t112 -46h925v-39q0 -66 46 -112t112 -46q65 0 111 46t46 112v196q0 49 -27 89t-71 57v1036z" />
    <glyph glyph-name="uni0427" unicode="&#x427;" 
d="M1379 1339q0 65 -46 111q-47 47 -112 47t-111 -47q-46 -46 -46 -111v-630h-335q-139 0 -237 98t-98 237v295q0 65 -46 111q-46 47 -111 47q-66 0 -112 -47q-46 -46 -46 -111v-295q0 -269 191 -460q190 -190 459 -190h335v-236q0 -66 46 -112t111 -46t112 46q46 46 46 112
v1181z" />
    <glyph glyph-name="uni0428" unicode="&#x428;" horiz-adv-x="1811" 
d="M1386 1450q-46 -46 -46 -111v-1024h-276v1024q0 65 -46 111q-46 47 -112 47q-65 0 -111 -47q-46 -46 -46 -111v-1024h-276v1024q0 65 -46 111q-46 47 -111 47q-66 0 -112 -47q-46 -46 -46 -111v-1181q0 -66 46 -112t112 -46h1181q65 0 111 46q47 46 47 112v1181
q0 65 -47 111q-46 47 -111 47t-111 -47z" />
    <glyph glyph-name="uni0429" unicode="&#x429;" horiz-adv-x="1811" 
d="M1655 1340q0 65 -47 111q-46 47 -111 47t-111 -47q-46 -46 -46 -111v-1024h-276v1024q0 65 -46 111q-46 47 -112 47q-65 0 -111 -47q-46 -46 -46 -111v-1024h-276v1024q0 65 -46 111q-46 47 -111 47q-66 0 -112 -47q-46 -46 -46 -111v-1182q0 -65 46 -111t112 -46h1122
v-39q0 -66 46 -112t112 -46q65 0 111 46t46 112v196q0 49 -28 89q-26 40 -70 57v1036z" />
    <glyph glyph-name="uni042A" unicode="&#x42a;" horiz-adv-x="1654" 
d="M591 788h433q98 0 167 -70q70 -69 70 -167q0 -97 -70 -167q-69 -69 -167 -69h-433v473zM1414 941q-162 162 -390 162h-433v236q0 65 -46 111q-46 47 -112 47h-196q-66 0 -112 -47q-46 -46 -46 -111t46 -111t112 -46h39v-1024q0 -66 46 -112t111 -46h591q228 0 390 162
q162 161 162 389t-162 390z" />
    <glyph glyph-name="uni042B" unicode="&#x42b;" horiz-adv-x="2087" 
d="M473 315v473h433q98 0 167 -70q70 -69 70 -167q0 -97 -70 -167q-69 -69 -167 -69h-433zM473 1103v236q0 65 -46 111q-46 47 -111 47q-66 0 -112 -47q-46 -46 -46 -111v-1181q0 -66 46 -112t112 -46h590q228 0 390 162q162 161 162 389t-162 390t-390 162h-433zM1615 158
q0 -66 46 -112q47 -46 112 -46t111 46t46 112v1181q0 65 -46 111q-46 47 -111 47t-112 -47q-46 -46 -46 -111v-1181z" />
    <glyph glyph-name="uni042C" unicode="&#x42c;" 
d="M473 315v473h433q98 0 167 -70q70 -69 70 -167q0 -97 -70 -167q-69 -69 -167 -69h-433zM473 1103v236q0 65 -46 111q-46 47 -111 47q-66 0 -112 -47q-46 -46 -46 -111v-1181q0 -66 46 -112t112 -46h590q228 0 390 162q162 161 162 389t-162 390t-390 162h-433z" />
    <glyph glyph-name="uni042D" unicode="&#x42d;" horiz-adv-x="1457" 
d="M237 1009q65 0 111 46q127 126 306 126q180 0 307 -126q64 -64 97 -149h-404q-65 0 -111 -46t-46 -112q0 -65 46 -111t111 -46h404q-33 -85 -97 -149q-127 -127 -307 -127q-179 0 -306 127q-46 46 -111 46q-66 0 -112 -46t-46 -111q0 -66 46 -112q219 -219 529 -219
t529 219q220 219 220 529t-220 529q-218 219 -529 219q-310 0 -529 -219q-46 -46 -46 -111t46 -111t112 -46z" />
    <glyph glyph-name="uni042E" unicode="&#x42e;" horiz-adv-x="2166" 
d="M1031 442q-127 127 -127 306t127 306q127 128 306 128t306 -128q127 -127 127 -306t-127 -306t-306 -127t-306 127zM864 1328q-203 -167 -258 -422h-133v433q0 65 -46 111q-46 47 -111 47q-66 0 -112 -47q-46 -46 -46 -111v-1181q0 -66 46 -112t112 -46q65 0 111 46
t46 112v433h133q55 -255 258 -422q207 -169 473 -169q310 0 529 219q219 220 219 529q0 310 -219 529q-219 220 -529 220q-266 0 -473 -169z" />
    <glyph glyph-name="uni042F" unicode="&#x42f;" 
d="M394 945q0 98 69 167q70 70 167 70h434v-473h-434q-97 0 -167 69q-69 70 -69 167zM1064 394v-236q0 -66 46 -112t111 -46t112 46q46 46 46 112v1181q0 65 -46 111q-47 47 -112 47h-591q-228 0 -389 -162q-162 -162 -162 -390q0 -144 71 -269q68 -121 186 -196l-211 -211
q-46 -46 -46 -111q0 -66 46 -112t112 -46q65 0 111 46l348 348h368z" />
    <glyph glyph-name="uni0430" unicode="&#x430;" horiz-adv-x="1575" 
d="M788 987l188 -376h-376zM247 9q62 20 91 79l104 208h691l105 -208q20 -41 59 -65q38 -23 82 -23q37 0 70 17q58 29 79 91t-9 120l-590 1182q-20 40 -58 64q-38 23 -83 23t-83 -23q-38 -24 -58 -64l-591 -1182q-29 -58 -8 -120q20 -62 79 -91q58 -29 120 -8z" />
    <glyph glyph-name="uni0431" unicode="&#x431;" 
d="M1005 591q57 0 97 -41q41 -40 41 -97t-41 -98q-40 -40 -97 -40h-532v276h532zM1103 1182q65 0 112 46q46 46 46 111t-46 111q-47 47 -112 47h-787q-66 0 -112 -47q-46 -46 -46 -111v-1181q0 -66 46 -112t112 -46h689q187 0 320 133t133 320t-133 320t-320 133h-532v276
h630z" />
    <glyph glyph-name="uni0432" unicode="&#x432;" 
d="M473 591h532q57 0 97 -41q41 -40 41 -97t-41 -98q-40 -40 -97 -40h-532v276zM473 1182h335q57 0 97 -41q41 -40 41 -97t-41 -98q-40 -40 -97 -40h-335v276zM1005 0q187 0 320 133t133 320q0 127 -67 236q-64 105 -173 163q43 91 43 192q0 187 -133 320t-320 133h-492
q-66 0 -112 -47q-46 -46 -46 -111v-1181q0 -66 46 -112t112 -46h689z" />
    <glyph glyph-name="uni0433" unicode="&#x433;" horiz-adv-x="1300" 
d="M1215 1450q-47 47 -112 47h-787q-66 0 -112 -47q-46 -46 -46 -111v-1181q0 -66 46 -112t112 -46q65 0 111 46t46 112v1024h630q65 0 112 46q46 46 46 111t-46 111z" />
    <glyph glyph-name="uni0434" unicode="&#x434;" horiz-adv-x="1772" 
d="M886 986l336 -671h-671zM1417 -39q0 -66 47 -112q46 -46 111 -46t111 46q47 46 47 112v196q0 66 -47 112q-46 46 -111 46h-1l-547 1093q-20 40 -58 64q-38 23 -83 23t-83 -23q-38 -24 -58 -64l-547 -1093h-1q-66 0 -112 -46t-46 -112v-196q0 -66 46 -112t112 -46
q65 0 111 46t46 112v39h1063v-39z" />
    <glyph glyph-name="uni0435" unicode="&#x435;" 
d="M1300 0q65 0 112 46q46 46 46 112q0 65 -46 111q-47 46 -112 46h-827v276h630q65 0 112 46q46 46 46 111q0 66 -46 112q-47 46 -112 46h-630v276h827q65 0 112 46q46 46 46 111t-46 111q-47 47 -112 47h-984q-66 0 -112 -47q-46 -46 -46 -111v-1181q0 -66 46 -112
t112 -46h984z" />
    <glyph glyph-name="uni0436" unicode="&#x436;" horiz-adv-x="2008" 
d="M867 158q0 -66 46 -112t112 -46q65 0 111 46t46 112v433h152l347 -521q47 -70 131 -70q48 0 88 26q54 37 67 101q12 64 -24 118l-335 503l335 504q36 54 24 118q-13 64 -67 100q-55 36 -119 24q-64 -13 -100 -68l-347 -520h-152v433q0 65 -46 111q-46 47 -111 47
q-66 0 -112 -47q-46 -46 -46 -111v-433h-152l-347 520q-36 55 -100 68q-64 12 -119 -24q-54 -36 -67 -100q-12 -64 24 -118l335 -504l-335 -503q-36 -54 -24 -118q13 -64 67 -101q40 -26 88 -26q84 0 131 70l347 521h152v-433z" />
    <glyph glyph-name="uni0437" unicode="&#x437;" horiz-adv-x="1457" 
d="M237 315q-66 0 -112 -46t-46 -111q0 -66 46 -112t112 -46h689q187 0 320 133t133 320q0 204 -155 340q76 114 76 251q0 187 -133 320t-320 133h-610q-66 0 -112 -47q-46 -46 -46 -111t46 -111t112 -46h610q57 0 97 -41q41 -40 41 -97t-41 -98q-40 -40 -97 -40h-414
q-65 0 -111 -46t-46 -112q0 -65 46 -111t111 -46h493q57 0 97 -41q41 -40 41 -97t-41 -98q-40 -40 -97 -40h-689z" />
    <glyph glyph-name="uni0438" unicode="&#x438;" horiz-adv-x="1615" 
d="M262 9q-47 17 -75 58q-29 41 -29 91v1181q0 65 46 111q46 47 112 47q65 0 111 -47q46 -46 46 -111v-746l706 847q32 38 80 51t95 -4t75 -57q29 -41 29 -91v-1181q0 -66 -46 -112q-47 -46 -112 -46t-111 46t-46 112v746l-706 -847q-48 -57 -121 -57q-28 0 -54 9z" />
    <glyph glyph-name="uni0439" unicode="&#x439;" horiz-adv-x="1615" 
d="M262 9q-47 17 -75 58q-29 41 -29 91v1181q0 65 46 111q46 47 112 47q65 0 111 -47q46 -46 46 -111v-746l706 847q32 38 80 51t95 -4t75 -57q29 -41 29 -91v-1181q0 -66 -46 -112q-47 -46 -112 -46t-111 46t-46 112v746l-706 -847q-48 -57 -121 -57q-28 0 -54 9zM611 1654
q-65 0 -111 46q-47 46 -47 112q0 65 47 111q46 46 111 46h394q65 0 111 -46t46 -111q0 -66 -46 -112t-111 -46h-394z" />
    <glyph glyph-name="uni043A" unicode="&#x43a;" 
d="M1269 1494q-64 -13 -100 -68l-347 -520h-349v433q0 65 -46 111q-46 47 -111 47q-66 0 -112 -47q-46 -46 -46 -111v-1181q0 -66 46 -112t112 -46q65 0 111 46t46 112v433h349l347 -521q47 -70 131 -70q48 0 88 26q54 37 67 101q12 64 -24 118l-335 503l335 504
q36 54 24 118q-13 64 -67 100q-55 36 -119 24z" />
    <glyph glyph-name="uni043B" unicode="&#x43b;" horiz-adv-x="1575" 
d="M1238 88q29 -58 91 -79q62 -20 120 9t79 91t-9 120l-590 1181q-20 40 -58 63q-38 24 -83 24t-83 -24q-38 -23 -58 -63l-591 -1182q-29 -58 -8 -120q20 -62 79 -91q33 -17 70 -17q44 0 82 23q39 23 59 64l450 900z" />
    <glyph glyph-name="uni043C" unicode="&#x43c;" horiz-adv-x="1811" 
d="M427 1450q-34 34 -81 44q-47 9 -91 -9q-44 -19 -70 -58q-27 -40 -27 -88v-1181q0 -66 46 -112t112 -46q65 0 111 46t46 112v801l322 -322q46 -46 111 -46q66 0 112 46l322 322v-801q0 -66 46 -112t111 -46t111 46q47 46 47 112v1181q0 48 -27 88q-26 39 -71 58
q-44 18 -91 9q-46 -10 -80 -44l-480 -479z" />
    <glyph glyph-name="uni043D" unicode="&#x43d;" horiz-adv-x="1615" 
d="M427 46q46 46 46 112v433h670v-433q0 -66 46 -112t111 -46t112 46q46 46 46 112v1181q0 65 -46 111q-47 47 -112 47t-111 -47q-46 -46 -46 -111v-433h-670v433q0 65 -46 111q-46 47 -111 47q-66 0 -112 -47q-46 -46 -46 -111v-1181q0 -66 46 -112t112 -46q65 0 111 46z
" />
    <glyph glyph-name="uni043E" unicode="&#x43e;" horiz-adv-x="1654" 
d="M1134 442q-128 -127 -307 -127t-306 127t-127 306t127 306q127 128 306 128t307 -128q127 -127 127 -306t-127 -306zM298 219q220 -219 529 -219q310 0 529 219q220 220 220 529q0 310 -220 529q-219 220 -529 220q-309 0 -529 -220q-219 -219 -219 -529q0 -309 219 -529
z" />
    <glyph glyph-name="uni043F" unicode="&#x43f;" horiz-adv-x="1615" 
d="M316 1497q-66 0 -112 -47q-46 -46 -46 -111v-1181q0 -66 46 -112t112 -46q65 0 111 46t46 112v1024h670v-1024q0 -66 46 -112t111 -46t112 46q46 46 46 112v1181q0 65 -46 111q-47 47 -112 47h-984z" />
    <glyph glyph-name="uni0440" unicode="&#x440;" 
d="M1073 778q-69 -69 -167 -69h-433v473h433q98 0 167 -70q70 -69 70 -167q0 -97 -70 -167zM427 46q46 46 46 112v236h433q228 0 390 162q162 161 162 389t-162 390t-390 162h-590q-66 0 -112 -47q-46 -46 -46 -111v-1181q0 -66 46 -112t112 -46q65 0 111 46z" />
    <glyph glyph-name="uni0441" unicode="&#x441;" horiz-adv-x="1457" 
d="M1356 219q46 46 46 112q0 65 -46 111t-111 46q-66 0 -112 -46q-127 -127 -306 -127t-306 127t-127 306q0 180 127 307t306 127t306 -127q46 -47 112 -47q65 0 111 47q46 46 46 111t-46 111q-219 220 -529 220t-529 -220q-219 -218 -219 -529q0 -310 219 -529t529 -219
t529 219z" />
    <glyph glyph-name="uni0442" unicode="&#x442;" horiz-adv-x="1378" 
d="M531 1182v-1024q0 -66 46 -112q47 -46 112 -46t111 46t46 112v1024h335q65 0 112 46q46 46 46 111t-46 111q-47 47 -112 47h-984q-66 0 -112 -47q-46 -46 -46 -111t46 -111t112 -46h334z" />
    <glyph glyph-name="uni0443" unicode="&#x443;" horiz-adv-x="1378" 
d="M1132 1489q-62 -21 -91 -79l-352 -703l-351 701q-29 59 -91 79q-62 21 -121 -8q-58 -29 -78 -91q-21 -62 8 -121l457 -913l-63 -126q-29 -58 -9 -120q21 -62 79 -91q34 -17 71 -17q44 0 82 23t59 64l591 1182q29 58 8 120t-79 91t-120 9z" />
    <glyph glyph-name="uni0444" unicode="&#x444;" horiz-adv-x="1654" 
d="M985 985h39q98 0 167 -70q70 -69 70 -167q0 -97 -70 -167q-69 -69 -167 -69h-39v473zM630 512q-97 0 -167 69q-69 70 -69 167q0 98 69 167q70 70 167 70h40v-473h-40zM1414 1138q-162 162 -390 162h-39v39q0 65 -46 111q-46 47 -112 47q-65 0 -111 -47q-46 -46 -46 -111
v-39h-40q-228 0 -389 -162q-162 -162 -162 -390t162 -389q161 -162 389 -162h40v-39q0 -66 46 -112t111 -46q66 0 112 46t46 112v39h39q228 0 390 162q162 161 162 389t-162 390z" />
    <glyph glyph-name="uni0445" unicode="&#x445;" horiz-adv-x="1457" 
d="M358 1440q-42 50 -107 56t-115 -36t-56 -107t36 -115l408 -490l-408 -490q-42 -50 -36 -115t56 -106q43 -37 101 -37q73 0 121 57l371 445l371 -445q48 -57 121 -57q57 0 101 37q50 41 56 106t-36 115l-408 490l408 490q42 50 36 115t-56 107t-115 36t-107 -56l-371 -446
z" />
    <glyph glyph-name="uni0446" unicode="&#x446;" horiz-adv-x="1615" 
d="M1458 1340q0 65 -46 111q-47 47 -112 47t-111 -47q-46 -46 -46 -111v-1024h-670v1024q0 65 -46 111q-46 47 -111 47q-66 0 -112 -47q-46 -46 -46 -111v-1182q0 -65 46 -111t112 -46h925v-39q0 -66 46 -112t112 -46q65 0 111 46t46 112v196q0 49 -27 89t-71 57v1036z" />
    <glyph glyph-name="uni0447" unicode="&#x447;" 
d="M1379 1339q0 65 -46 111q-47 47 -112 47t-111 -47q-46 -46 -46 -111v-630h-335q-139 0 -237 98t-98 237v295q0 65 -46 111q-46 47 -111 47q-66 0 -112 -47q-46 -46 -46 -111v-295q0 -269 191 -460q190 -190 459 -190h335v-236q0 -66 46 -112t111 -46t112 46q46 46 46 112
v1181z" />
    <glyph glyph-name="uni0448" unicode="&#x448;" horiz-adv-x="1811" 
d="M1386 1450q-46 -46 -46 -111v-1024h-276v1024q0 65 -46 111q-46 47 -112 47q-65 0 -111 -47q-46 -46 -46 -111v-1024h-276v1024q0 65 -46 111q-46 47 -111 47q-66 0 -112 -47q-46 -46 -46 -111v-1181q0 -66 46 -112t112 -46h1181q65 0 111 46q47 46 47 112v1181
q0 65 -47 111q-46 47 -111 47t-111 -47z" />
    <glyph glyph-name="uni0449" unicode="&#x449;" horiz-adv-x="1811" 
d="M1655 1340q0 65 -47 111q-46 47 -111 47t-111 -47q-46 -46 -46 -111v-1024h-276v1024q0 65 -46 111q-46 47 -112 47q-65 0 -111 -47q-46 -46 -46 -111v-1024h-276v1024q0 65 -46 111q-46 47 -111 47q-66 0 -112 -47q-46 -46 -46 -111v-1182q0 -65 46 -111t112 -46h1122
v-39q0 -66 46 -112t112 -46q65 0 111 46t46 112v196q0 49 -28 89q-26 40 -70 57v1036z" />
    <glyph glyph-name="uni044A" unicode="&#x44a;" horiz-adv-x="1654" 
d="M591 788h433q98 0 167 -70q70 -69 70 -167q0 -97 -70 -167q-69 -69 -167 -69h-433v473zM1414 941q-162 162 -390 162h-433v236q0 65 -46 111q-46 47 -112 47h-196q-66 0 -112 -47q-46 -46 -46 -111t46 -111t112 -46h39v-1024q0 -66 46 -112t111 -46h591q228 0 390 162
q162 161 162 389t-162 390z" />
    <glyph glyph-name="uni044B" unicode="&#x44b;" horiz-adv-x="2087" 
d="M473 315v473h433q98 0 167 -70q70 -69 70 -167q0 -97 -70 -167q-69 -69 -167 -69h-433zM473 1103v236q0 65 -46 111q-46 47 -111 47q-66 0 -112 -47q-46 -46 -46 -111v-1181q0 -66 46 -112t112 -46h590q228 0 390 162q162 161 162 389t-162 390t-390 162h-433zM1615 158
q0 -66 46 -112q47 -46 112 -46t111 46t46 112v1181q0 65 -46 111q-46 47 -111 47t-112 -47q-46 -46 -46 -111v-1181z" />
    <glyph glyph-name="uni044C" unicode="&#x44c;" 
d="M473 315v473h433q98 0 167 -70q70 -69 70 -167q0 -97 -70 -167q-69 -69 -167 -69h-433zM473 1103v236q0 65 -46 111q-46 47 -111 47q-66 0 -112 -47q-46 -46 -46 -111v-1181q0 -66 46 -112t112 -46h590q228 0 390 162q162 161 162 389t-162 390t-390 162h-433z" />
    <glyph glyph-name="uni044D" unicode="&#x44d;" horiz-adv-x="1457" 
d="M237 1009q65 0 111 46q127 126 306 126q180 0 307 -126q64 -64 97 -149h-404q-65 0 -111 -46t-46 -112q0 -65 46 -111t111 -46h404q-33 -85 -97 -149q-127 -127 -307 -127q-179 0 -306 127q-46 46 -111 46q-66 0 -112 -46t-46 -111q0 -66 46 -112q219 -219 529 -219
t529 219q220 219 220 529t-220 529q-218 219 -529 219q-310 0 -529 -219q-46 -46 -46 -111t46 -111t112 -46z" />
    <glyph glyph-name="uni044E" unicode="&#x44e;" horiz-adv-x="2166" 
d="M1031 442q-127 127 -127 306t127 306q127 128 306 128t306 -128q127 -127 127 -306t-127 -306t-306 -127t-306 127zM864 1328q-203 -167 -258 -422h-133v433q0 65 -46 111q-46 47 -111 47q-66 0 -112 -47q-46 -46 -46 -111v-1181q0 -66 46 -112t112 -46q65 0 111 46
t46 112v433h133q55 -255 258 -422q207 -169 473 -169q310 0 529 219q219 220 219 529q0 310 -219 529q-219 220 -529 220q-266 0 -473 -169z" />
    <glyph glyph-name="uni044F" unicode="&#x44f;" 
d="M394 945q0 98 69 167q70 70 167 70h434v-473h-434q-97 0 -167 69q-69 70 -69 167zM1064 394v-236q0 -66 46 -112t111 -46t112 46q46 46 46 112v1181q0 65 -46 111q-47 47 -112 47h-591q-228 0 -389 -162q-162 -162 -162 -390q0 -144 71 -269q68 -121 186 -196l-211 -211
q-46 -46 -46 -111q0 -66 46 -112t112 -46q65 0 111 46l348 348h368z" />
    <glyph glyph-name="uni0401" unicode="&#x401;" 
d="M1300 0q65 0 112 46q46 46 46 112q0 65 -46 111q-47 46 -112 46h-827v276h630q65 0 112 46q46 46 46 111q0 66 -46 112q-47 46 -112 46h-630v276h827q65 0 112 46q46 46 46 111t-46 111q-47 47 -112 47h-984q-66 0 -112 -47q-46 -46 -46 -111v-1181q0 -66 46 -112
t112 -46h984zM604 1923q-46 46 -111 46t-111 -46q-47 -46 -47 -111q0 -66 47 -112q46 -46 111 -46t111 46t46 112q0 65 -46 111zM1234 1923q-46 46 -111 46t-112 -46q-46 -46 -46 -111q0 -66 46 -112q47 -46 112 -46t111 46t46 112q0 65 -46 111z" />
    <glyph glyph-name="uni0451" unicode="&#x451;" 
d="M1300 0q65 0 112 46q46 46 46 112q0 65 -46 111q-47 46 -112 46h-827v276h630q65 0 112 46q46 46 46 111q0 66 -46 112q-47 46 -112 46h-630v276h827q65 0 112 46q46 46 46 111t-46 111q-47 47 -112 47h-984q-66 0 -112 -47q-46 -46 -46 -111v-1181q0 -66 46 -112
t112 -46h984zM604 1923q-46 46 -111 46t-111 -46q-47 -46 -47 -111q0 -66 47 -112q46 -46 111 -46t111 46t46 112q0 65 -46 111zM1234 1923q-46 46 -111 46t-112 -46q-46 -46 -46 -111q0 -66 46 -112q47 -46 112 -46t111 46t46 112q0 65 -46 111z" />
    <glyph glyph-name="guillemotleft" unicode="&#xab;" horiz-adv-x="1496" 
d="M458 748l283 283q46 46 46 111t-46 112q-46 46 -112 46q-65 0 -111 -46l-394 -394q-46 -46 -46 -112q0 -65 46 -111l394 -394q46 -46 111 -46q66 0 112 46t46 111q0 66 -46 112zM1260 1300q-66 0 -112 -46l-394 -394q-46 -46 -46 -112q0 -65 46 -111l394 -394
q46 -46 112 -46q65 0 111 46t46 111q0 66 -46 112l-282 282l282 283q46 46 46 111t-46 112q-46 46 -111 46z" />
    <glyph glyph-name="guillemotright" unicode="&#xbb;" horiz-adv-x="1496" 
d="M754 466q-46 -46 -46 -112q0 -65 46 -111t112 -46q65 0 111 46l394 394q46 46 46 111q0 66 -46 112l-394 394q-46 46 -111 46q-66 0 -112 -46q-46 -47 -46 -112t46 -111l283 -283zM124 1254q-46 -47 -46 -112t46 -111l282 -283l-282 -282q-46 -46 -46 -112q0 -65 46 -111
t111 -46q66 0 112 46l394 394q46 46 46 111q0 66 -46 112l-394 394q-46 46 -112 46q-65 0 -111 -46z" />
    <glyph glyph-name="q1" horiz-adv-x="1654" 
d="M985 394q0 65 -46 112q-46 46 -112 46q-65 0 -111 -46q-46 -47 -46 -112v-49q-123 49 -198 157q-78 111 -78 247q0 179 127 306t306 127t307 -127q127 -127 127 -306q0 -136 -78 -247q-75 -108 -198 -157v49zM298 1277q-219 -219 -219 -528q0 -267 169 -473
q167 -204 422 -259v-95q0 -66 46 -112t111 -46q66 0 112 46t46 112v95q255 55 422 259q169 206 169 473q0 309 -220 528q-219 220 -529 220q-309 0 -529 -220z" />
    <glyph glyph-name="q2" horiz-adv-x="1654" 
d="M1134 1055q127 -127 127 -306q0 -180 -127 -307q-128 -127 -307 -127t-306 127t-127 307q0 179 127 306t306 127t307 -127zM670 -78q0 -66 46 -112t111 -46q66 0 112 46t46 112v95q255 55 422 259q169 206 169 473q0 309 -220 528q-219 220 -529 220q-309 0 -529 -220
q-219 -219 -219 -528q0 -267 169 -473q167 -204 422 -259v-95z" />
    <glyph glyph-name="q3" horiz-adv-x="1654" 
d="M521 442q-127 127 -127 306t127 306q127 128 306 128t307 -128q127 -127 127 -306q0 -90 -37 -173l-41 40q-46 46 -111 46t-111 -46q-47 -46 -47 -111q0 -66 47 -112l40 -40q-83 -37 -174 -37q-179 0 -306 127zM298 1277q-219 -219 -219 -529q0 -309 219 -529
q220 -219 529 -219q220 0 406 120l74 -74q46 -46 111 -46t111 46q47 46 47 112q0 65 -47 111l-74 74q121 186 121 405q0 310 -220 529q-219 220 -529 220q-309 0 -529 -220z" />
    <glyph glyph-name="q4" horiz-adv-x="1654" 
d="M521 1054q127 128 306 128t307 -128q127 -127 127 -306t-127 -306q-128 -127 -307 -127t-306 127t-127 306t127 306zM1455 343q121 186 121 405q0 310 -220 529q-219 220 -529 220q-309 0 -529 -220q-219 -219 -219 -529q0 -309 219 -529q220 -219 529 -219
q220 0 406 120l74 -74q46 -46 111 -46t112 46q46 46 46 112q0 65 -47 111z" />
    <glyph glyph-name="q6" horiz-adv-x="1654" 
d="M939 46q46 46 46 112q0 65 -46 111t-112 46q-179 0 -306 127t-127 306t127 307q127 127 306 127t307 -127q127 -128 127 -307q0 -65 46 -111t111 -46t111 46q47 46 47 111q0 310 -220 529q-219 220 -529 220q-309 0 -529 -220q-219 -219 -219 -529q0 -309 219 -529
q220 -219 529 -219q66 0 112 46zM1183 615q-46 46 -111 46t-111 -46q-47 -46 -47 -111q0 -66 47 -112l346 -346q46 -46 111 -46t111 46q47 46 47 112q0 65 -47 111z" />
    <glyph glyph-name="q7" horiz-adv-x="1654" 
d="M1456 343q120 184 120 405q0 310 -220 529q-219 220 -529 220q-178 0 -336 -80q-165 -83 -273 -234q-139 -195 -139 -435q0 -309 219 -529q220 -219 529 -219q66 0 112 46t46 112q0 65 -46 111t-112 46q-179 0 -306 127t-127 306q0 139 81 252q62 87 158 135
q91 47 194 47q179 0 307 -127q127 -128 127 -307q0 -89 -37 -173l-41 40q-46 46 -111 46t-111 -46q-47 -46 -47 -111q0 -66 47 -112l172 -173h1v0l173 -173q46 -46 111 -46t111 46q47 46 47 112q0 65 -47 111z" />
    <glyph glyph-name="q8" horiz-adv-x="1654" 
d="M1134 1054q127 -127 127 -306q0 -65 46 -111t111 -46t111 46q47 46 47 111q0 310 -220 529q-219 220 -529 220q-309 0 -529 -220q-219 -219 -219 -529q0 -309 219 -529q220 -219 529 -219q221 0 406 120l74 -74q46 -46 111 -46t111 46q47 46 47 112q0 65 -47 111
l-346 346q-46 46 -111 46t-111 -46q-47 -46 -47 -111q0 -66 47 -112l40 -40q-84 -37 -174 -37q-179 0 -306 127t-127 306t127 306q127 128 306 128t307 -128z" />
    <glyph glyph-name="q9" horiz-adv-x="1654" 
d="M1134 1055q127 -127 127 -307q0 -179 -127 -306q-128 -127 -307 -127t-306 127t-127 306q0 180 127 307t306 127t307 -127zM1294 164q131 105 205 255q77 155 77 329q0 310 -220 529q-219 220 -529 220q-309 0 -529 -220q-219 -219 -219 -529q0 -251 153 -452
q149 -196 385 -265l2 -1l2 -1l754 -216q22 -6 44 -6q52 0 94 31q42 32 57 83q18 63 -14 120q-31 57 -94 75z" />
    <glyph glyph-name="q10" horiz-adv-x="1654" 
d="M1134 1055q127 -127 127 -306t-127 -306q-128 -127 -307 -127t-306 127t-127 306t127 306t306 127t307 -127zM1356 1278q-219 219 -529 219q-309 0 -529 -219q-219 -220 -219 -529q0 -180 82 -339q79 -154 218 -259q-27 -23 -43 -39q-47 -46 -47 -111q0 -66 47 -112
q46 -46 111 -46t111 46q112 111 269 111q158 0 269 -111q46 -46 112 -46q65 0 111 46t46 112q0 65 -46 111q-16 16 -43 39q139 105 218 259q82 159 82 339q0 309 -220 529z" />
    <glyph glyph-name="q11" horiz-adv-x="1654" 
d="M521 1055q127 127 306 127t307 -127q127 -127 127 -306t-127 -306q-128 -127 -307 -127t-306 127t-127 306t127 306zM1356 1278q-219 219 -529 219q-309 0 -529 -219q-219 -219 -219 -529q0 -309 219 -529q220 -219 529 -219h217q57 0 97 -41q41 -40 41 -97t-41 -98
q-40 -40 -97 -40q-65 0 -111 -46q-47 -46 -47 -111q0 -66 47 -112q46 -46 111 -46q187 0 320 133t133 320q0 206 -157 342q111 105 172 243q64 143 64 301q0 310 -220 529z" />
    <glyph glyph-name="q12" horiz-adv-x="1654" 
d="M1134 1056q127 -127 127 -306t-127 -306q-128 -127 -307 -127t-306 127t-127 306t127 306t306 127t307 -127zM322 -123q-34 -34 -43 -81t9 -91t58 -70q40 -27 87 -27h788q65 0 112 46q46 46 46 112q0 65 -46 111q-47 46 -112 46h-407l82 82q287 27 483 240
q197 214 197 505q0 310 -220 529q-219 219 -529 219q-309 0 -529 -219q-219 -219 -219 -529q0 -222 122 -408q119 -181 315 -271z" />
    <glyph glyph-name="q5" horiz-adv-x="1654" 
d="M500 494q6 13 16 23q23 24 54 24q10 0 20 -2q8 -2 16 -5q26 -11 43 -33q21 -26 21 -59q0 -60 6 -116q-183 30 -183 127q0 24 7 41zM1133 1054q119 -119 127 -285q9 -186 -119 -320q-64 -66 -149 -101q-7 48 -7 94q0 126 -71 231q-70 104 -189 152q-167 68 -324 -8
q23 145 127 245q134 127 320 119q166 -7 285 -127zM1148 73q126 59 221 159q220 231 206 552q-13 286 -220 492q-206 207 -493 220q-320 15 -551 -206q-232 -221 -232 -542q0 -56 35 -99q35 -42 88 -54q-25 -70 -25 -142q0 -24 3 -49q4 -32 13 -63q24 -83 77 -147
q153 -184 517 -193q95 -151 256 -233q164 -83 375 -83q65 0 111 46q47 46 47 112q0 65 -47 111q-46 46 -111 46q-163 0 -270 73z" />
    </font>
</defs>
</svg>
